<?xml version="1.0" encoding="UTF-8"?>
<svg id="_レイヤー_2" data-name="レイヤー 2" xmlns="http://www.w3.org/2000/svg" viewBox="0 0 1379.71 805.73">
  <defs>
    <style>
      .cls-1 {
        fill: #f8e493;
      }
    </style>
  </defs>
  <g id="_レイヤー_1-2" data-name="レイヤー 1">
    <path class="cls-1" d="m138.02,600.2c9.87,12.75,20.78,24.66,32.69,35.52,60.44,55.1,132.9,97.9,209.92,125.64,145.89,52.56,306.59,54.63,458.99,25.99,221.08-41.55,446.85-166.55,520.05-379.25,28-81.36,29.98-176.15-15.48-249.2-54.73-87.95-165.76-125.77-269.35-126.98-103.58-1.21-204.94,27.26-307.56,41.4C555.45,102.5,221.45-48.44,97.77,16.3c-4.92,2.57-9.9,5.03-14.9,7.43C-21.79,74.1-18.08,321.64,42.78,460.3c3.1,7.07,6.38,14.05,9.81,20.93,8.15,16.35,17.96,31.82,29.14,46.26l56.28,72.7Z"/>
  </g>
</svg>