<?xml version="1.0" encoding="UTF-8"?>
<svg id="_レイヤー_2" data-name="レイヤー 2" xmlns="http://www.w3.org/2000/svg" viewBox="0 0 228.88 229.18">
  <defs>
    <style>
      .cls-1 {
        fill: #fff;
      }
    </style>
  </defs>
  <g id="_レイヤー_1-2" data-name="レイヤー 1">
    <g>
      <path class="cls-1" d="m227.34,114.5c.08.37.29.16.22-.87l-.35-.73.13,1.59Z"/>
      <path class="cls-1" d="m227.72,107.54c-.25-1.2-.64-2.57-.88-1.77.41,1.17.3,1.47.77,2.74.08,1.03-.06,1.81-.18,1.64.09.36-.03,1.6.19,2.15.2-1.35.25-3.06-.13-4.82.04-.39.16-.02.23.06Z"/>
      <path class="cls-1" d="m180.56,21.66l.51.41c-.13-.12-.31-.26-.51-.41Z"/>
      <path class="cls-1" d="m122.07.63c.48.03.68.01.71-.02-.45-.01-.81-.02-.71.02Z"/>
      <path class="cls-1" d="m111.31.07c.23,0,.43,0,.64,0-.24-.02-.49-.04-.64,0Z"/>
      <path class="cls-1" d="m180.56,21.66l-1.31-1.06c-.16.02.66.57,1.31,1.06Z"/>
      <path class="cls-1" d="m225.23,93.86c.08.34.16.62.24.87-.06-.28-.12-.55-.18-.83-.02-.01-.04-.02-.06-.04Z"/>
      <path class="cls-1" d="m201.19,40.14l.34.39c.13.09.25.17.38.23l-.72-.62Z"/>
      <path class="cls-1" d="m213.54,57.5c-.23-.42-.56-.43-.75-.53.24.18.46.46.69.81.05-.02.07-.11.06-.29Z"/>
      <path class="cls-1" d="m225.39,88.99l.17.57c-.04-.15-.12-.4-.17-.57Z"/>
      <path class="cls-1" d="m190.55,29.2c0-.05-.03-.13-.08-.2-.02.03.01.1.08.2Z"/>
      <path class="cls-1" d="m224.06,138.6s.03,0,.05,0c0-.12-.01-.17-.05,0Z"/>
      <path class="cls-1" d="m228.07,114.5v.34c.06.04.11.07.16.07l-.16-.41Z"/>
      <path class="cls-1" d="m91.63,1.91s.05,0,.09-.01c.51-.12.22-.07-.09.01Z"/>
      <path class="cls-1" d="m2.44,138.76c-.22-2.05,1.07,3.18.64.12-.04.31-1.06-2.65-.64-.12Z"/>
      <path class="cls-1" d="m225.17,93.32c-.05-.28-.1-.56-.15-.85.06.39.11.65.15.85Z"/>
      <path class="cls-1" d="m3.08,138.88h0s-.05-.32-.05-.32c.02.13.03.2.04.32Z"/>
      <path class="cls-1" d="m49.94,19.69c.1-.01.27-.09.45-.17-.03-.01-.13.02-.45.17Z"/>
      <path class="cls-1" d="m80.52,5.33l-.8.23c.32-.08.58-.16.8-.23Z"/>
      <path class="cls-1" d="m36.47,31.01c-.34.3-.48.38-.91.83.05-.03.1-.06.16-.11.14-.18.34-.4.75-.73Z"/>
      <path class="cls-1" d="m24.16,44.51c.07-.07.17-.15.25-.23.11-.15.23-.32.35-.46l-.6.7Z"/>
      <path class="cls-1" d="m200.18,187.08c.32-.25.55-.38.74-.47-.33.08,1.34-1.96-.74.47Z"/>
      <path class="cls-1" d="m225.39,93.83c-.09-.09-.15-.24-.21-.51.04.2.08.4.12.59.05.04.09.05.09-.08Z"/>
      <path class="cls-1" d="m37.46,33.13l-2.09,1.94c.6-.53,1.36-1.23,2.09-1.94Z"/>
      <path class="cls-1" d="m83.45,222.47l.64.15c-.24-.08-.47-.13-.64-.15Z"/>
      <path class="cls-1" d="m29.65,41.3c-.41.32-.81.69-1.2,1.09-.06.1-.14.22-.16.3l1.36-1.39Z"/>
      <path class="cls-1" d="m200.93,186.61s0,0,0,0c0,0,0,0,0,0Z"/>
      <path class="cls-1" d="m211.16,170.86c-1.36,2.35-.32,1.29-.43,1.9-1.66,2.8-1.04,1.12-1.8,1.95-.5.88-.9,1.69-1.27,2.44-.39.74-.78,1.4-1.22,2.02-.12.06-.3.28-.17-.04-.52.94-1.38,2.29-2.41,3.57-1.01,1.29-2.01,2.64-2.67,3.72-.15.12-.23.17-.28.19.41-.19.59-.12.64.03-.8.93-1.32,1.88-1.8,2.07.5-.56.47-.68.64-.99l-.76,1.04c-1.02.65,1.06-1.4.86-1.57-.76.99-1.59,2.07-2.37,3.09-.82.99-1.63,1.89-2.33,2.55-.52.05,3.01-3.32,1.03-1.68.73-.67,1.41-1.38,2.08-2.11-1.88,1.35,1.2-1.33-.58-.14-.64.73-1.16,1.28-1.61,1.75-.43.48-.8.89-1.16,1.29-.73.8-1.4,1.67-2.86,2.95-.5.74.4,0-.1.74-.94,1.02-1.65,1.67-2.22,2.14-.58.45-1.03.69-1.44.91-.82.44-1.48.77-2.86,2.27-.66.84-.73,1.42-3.14,3.03l.54-.91c-2.98,2.3-1.37,1.75-4.73,3.86.49-.53,2.34-1.82,1.85-1.53-2.26,1.23-1.35,1.23-2.95,2.37l-.53-.05c-3.32,2.23-6.95,4.79-10.9,6.85.17-.2.8-.64-.17-.26-2.43,1.4-5.18,2.6-7.9,3.76-1.39.51-2.78,1.01-4.13,1.51-1.35.51-2.72.85-4.01,1.25l-1.86.94c-.46.15-.89.12-.41-.07-2.06.47-.05.21-.99.59-1.15.35-1.57.27-.86-.02-3.45,1.4-10.17,3.05-14.09,3.38l.74-.22c-3.02.36-3.33,1.06-6.18,1.16l.53-.12c-6.6.62-13.96.91-18.98.18-.49.17-2.12,0-3.69-.14-1.57-.11-3.05-.38-3.3-.09-1.86-.38-2.52-.57-3.37-.76-.84-.22-1.87-.5-4.47-1.05-1.39-.25-2.14-.07-3.88-.39l.03-.31-2.4-.22c-.39-.21-.76-.45-1.14-.68l-1.6-.37c.63.2,1.31.51,1.19.57-1.26-.29-2.76-.77-3.94-1.2-1.17-.46-2.02-.91-2.02-.98l-2.92-.85c-.98-.28-1.92-.65-2.89-.97.17-.07,1.13.27,1.91.49-3.13-.9-.43-.52-3.3-1.34.34.21-.27.09-.36.12-.66-.34-1.75-.88-2.97-1.45-1.21-.58-2.58-1.12-3.7-1.67l.52.03c-1-.52-2.03-1.04-3.08-1.59-.53-.27-1.06-.54-1.59-.81-.52-.29-1.05-.59-1.59-.89-1.06-.6-2.16-1.19-3.23-1.82-1.06-.67-2.12-1.34-3.19-2.02,1.47,1.06.93,1.15-.35.37l-.32-.59c-.92-.35,1.24.94-.56.08-1.54-1.11-.83-1.04.11-.5l-1.94-1.24c-.05-.16.42.11.6.09-.88-.39-3.06-2.53-4.31-3.13l-.04-.16c-1-.78-1.86-1.45-2.64-2.05-.77-.62-1.44-1.21-2.1-1.75-.66-.55-1.3-1.09-1.97-1.65-.66-.57-1.32-1.21-2.07-1.91-.25.15-1.38-1.01-2.43-1.7-1.01-1.14-2.07-2.34-3.18-3.6-1.1-1.27-2.18-2.66-3.39-4.02-1.75-1.89-.66-.43-1.52-1.22.08-.31-2.19-3.17-.88-1.79-1.4-1.69-2.2-2.84-3.12-4.08-.47-.62-.95-1.27-1.53-2.04-.55-.79-1.18-1.71-1.98-2.85.24.56.57,1.16.3.91-.58-.83-1.15-1.99-.97-1.93l.17.21c-1.79-2.56-3.43-5.79-4.8-8.94-.74-1.55-1.32-3.13-1.94-4.55-.31-.71-.62-1.39-.93-2.03-.28-.65-.56-1.26-.85-1.81l.13.25c-.69-1.57-1.49-3.1-2.08-4.71-.72-2.26.64,1.28.22-.43-.54-1.28-.99-2.44-1.38-3.52-.33-1.1-.61-2.13-.88-3.13-.57-1.99-.93-3.9-1.59-6.1,0-.45-.06-.98-.14-1.57-.06-.59-.14-1.25-.25-1.95-.19-1.4-.56-2.97-.77-4.59-.23-1.63-.49-3.29-.66-4.85-.11-1.56-.19-3.02-.16-4.21l-.16.29c-.27-1.22-.03-1.49,0-2.4-.13.13-.13,1.34-.24.58-.09-2.61-.27-5.26-.12-7.94.06-1.34.06-2.69.18-4.03.13-1.34.25-2.69.38-4.04.1-1.35.37-2.69.55-4.03.2-1.34.38-2.68.68-4.01.27-1.33.53-2.65.8-3.97.33-1.3.65-2.61.97-3.9.44-1.9.42-2.48.42-3.19.01-.7.1-1.53.98-3.84l-.07,1.44c1.86-7.7,5.43-15.21,8.89-22.11-.16.44-.09.49-.43,1.16.97-1.33,3-5.23,2.84-5.37.67-1,.3-.14.79-.71,1.01-1.29,1.94-3.64,2.66-4.21.12-.1-.21.42-.36.68.51-.94,2.9-4.03,2.08-3.36.88-1.16,1.72-2.26,2.52-3.31.81-1.04,1.51-2.07,2.35-2.87.77-1.34,3.34-3.68,3.39-4.28.2.47,3.74-3.47,4.98-4.83-.35.52,1.25-1,.86-.36,1.48-1.48,2.91-2.75,2.48-2.7,3.22-2.16,5.72-5.29,7.88-6.04,4.84-3.92,9.74-7.01,14.66-9.71.02.27-1.38.92-2.66,1.7-1.29.76-2.53,1.49-2.3,1.63,1.12-.71,2.12-1.35,3.06-1.95.96-.57,1.87-1.1,2.77-1.63,1.79-1.09,3.68-1.99,6.11-3.03,1.27-.51-.63.5-1.02.76,2.36-1.23,4.79-2.07,7.1-3.01,1.18-.41,2.34-.81,3.49-1.2.57-.21,1.14-.41,1.7-.62.57-.19,1.13-.37,1.69-.56,0,.04-.48.23-.93.39.89-.27,2.1-.53,1.95-.7l-.86.3c-1.52.13,3.4-1.62,3.53-1.8-1.4.93,4.61-.91,2.32.38.59-.18,1.32-.44,1.15-.55.9-.17,1.19-.15.33.21,1.61-.44,2.12-.62,2.6-.76.48-.15.92-.29,2.41-.55,0,.1-.59.25-.88.41,1.47-.45,2.96-.96,5.52-1.17-.15.08.16.12-.6.21,2.18-.29,4.02-.68,5.94-.89.96-.12,1.93-.24,2.97-.34,1.04-.1,2.14-.08,3.35-.08-1.41.47,1.65.1,1.91.47.86-.08,1.73-.09,2.59-.1l-1.04-.21c2.27.08,4.29-.2,6.24.06-.56,0-1.13.02-1.7.07,1.42,0,2.84.15,4.26.21l-2.4-.32c2.31-.02-.22-.49,2.81-.16-.62,0,2.28.15,3.43.56h0c1.13.02,2.3.05,3.97.35.42.17-.41.36-.14.48,1.14-.12,5.27.8,6.71.8-.47-.03-.54.16-.4.23l.96-.04c1.01.32,1.15.39.95.5,3.08.76-.88-.69,2.75.36-.29-.05-.16.02-.77-.08,3.64,1.02,7.1,1.77,10.35,3.05.85.68-2.91-.89-1.9-.21,4.78,1.44,9.86,3.24,14.2,5.41l-.79-.45c.83-.16,3.11,1.86,5.38,2.8-.54-.27-.83-.12-.66-.1,1.42.86,2.9,1.68,4.59,2.57,1.64.97,3.51,2,5.63,3.36l-.59-.25c1.51,1.25,4.2,2.99,5.78,4.4.58.28,1.51,1.05,1.06.44.58.58,1.18,1.12,1.77,1.66.57.55,1.16,1.09,1.75,1.6,1.17,1.03,2.38,1.97,3.5,2.99,1.12,1.01,2.28,1.95,3.3,3.01,1.02,1.06,1.99,2.15,2.87,3.3-.48-.5-1.22-1.11-.84-.71,1.19,1.13,2.24,2.39,3.37,3.59-.08-.44-.32-.58-.86-1.48.51.38,1.51,1.37,2.31,2.3-1.58-1.57-.25.23.23,1.08-.04-.17.22.04.22-.07,1.27,2.28.63.05,2.59,3l-.21-.07c.89.98,1.67,1.92,2.48,3.09.12.64-.92-1.07-1.15-1.02,1.16,1.62,2.73,2.9,3.46,4.6-.52-.68-1.17-1.71-1.74-2.34.89,1.77,1.01,1.96,1.78,3.2l-.07-.12c.56.98,1.15,1.93,1.68,2.92-.11-.27-.25-.52-.38-.78.96.87,1.59,1.98,2.29,3.17.35.6.71,1.22,1.09,1.87.36.66.77,1.34,1.25,2.04-1.88-2.71-.47-.36-.85-.45.32.8.83,2,.58,1.71.47.65.74,1.26,1.03,1.94.28.69.6,1.45,1.22,2.39-.05.13.69,1.55.32,1.32.92,1.84-.04-.51.14-.4,1.62,2.78,2.46,7.05,4.31,11.24.68,1.85,1.09,2.95,1.53,4.01.21.53.42,1.06.66,1.66.21.61.42,1.32.67,2.21.13,1.24-.57-.91-.57-.91.29,1.99.72,3.42,1.16,5.26-.15-.36-.15.04-.16.63.29,1.48.53.93.74,2.92-.17-.32-.42-.72-.65-1.42.2.87.42,1.72.64,2.59.18.87.36,1.76.52,2.66-.11.51-.4-1.07-.59-1.69.33,2.04.85,5.28,1.11,5.9v-1.33c.06.75-.2.41-.31-.14-.43-1.73-.23-2.55-.15-2.66l.23,1.29c.2-.7,0-2.01-.27-3.47-.28-1.46-.78-3.04-.98-4.34l.6,1.01-.82-2.61c0-.59.15-1.03.45.25-.17-1.91-.51-1.61-.64-3.26,0-.18.03-.11.09.05l-.54-1.78c.17.33.22-.37.41.76-.23-1.66-.68-2.94-1.05-3.97-.36-1.03-.65-1.8-.67-2.45l.1.26c-.34-1.11-.57-1.67-.72-1.96-.14-.28-.19-.29-.23-.26-.09.06-.16.27-.88-1.31l-.04-2.46-.43-.33c-.16-.45-.49-1.34-.31-1.22-.85-1.58-.01.33-.58-.56-.3-1.11-.88-2.59-1.43-3.84-.57-1.24-1.02-2.28-.9-2.62-.55-.66.74,2.08-.42-.09.09-.43-.22-1.07-.64-1.85-.44-.77-1.02-1.66-1.39-2.65.53.45,1.32,2.29.57.31-.49-.46-.94-1.38-1.37-2.39-.44-1-.94-2.04-1.41-2.79-.18.05-.69-.76-1.36-1.91-.68-1.14-1.6-2.55-2.45-3.78.25.06-2.96-4.76-4.58-7.02l.1.03c-.31-.1-.9-.72-1.57-1.52-.67-.8-1.43-1.77-2.16-2.52.22-.08.54.14,1.34.95-.41-.51-.85-.99-1.28-1.49-.39-.27-.84-.7-1.7-1.63l.53.19c-.43-.49-.87-.97-1.34-1.46-.48-.46-.97-.94-1.48-1.42-1.03-.96-2.03-2.08-3.2-3.28-.31.06,1.42,2.34-1.25.03,0-.19.07-.45.78.15-.23-.2-.86-.66-1.26-1.13l1.18.81c-1.03-1.13-.71-.41-1.58-1.27.15-.13-.56-.73-.32-.72.24.2.71.79,1.11,1.06-.97-.98-2.1-2.21-2.43-2.67.02.16-.18.2-.96-.44-1.98-1.7-.52-.76-1.61-1.84-.55-.33-1.77-1.46-1.99-1.26-.6-.47-.62-.67-.81-.91-.58-.36-1.8-1.35-2.81-2.04-1.01-.68-1.74-1.13-1.22-.56l.27.22c-.06-.03-.12-.07-.19-.12h0s0,0,0,0c-.94-.58-1.87-1.21-2.8-1.87-.94-.63-1.89-1.27-2.84-1.91-1.87-1.33-3.83-2.5-5.76-3.55l.05-.08c-1.15-.63-2.48-1.24-3.7-1.84-1.23-.59-2.36-1.16-3.27-1.42-.7-.32-1.59-.92-1.24-.89-1.87-.74-2.07-.81-4.71-2,1.94.58-.59-.4,1.97.64-2.39-1.03-2.88-1.42-5.59-2.15.99.07-1.75-.93-2.95-1.26l1.67.76c-1.33-.41-2.48-.82-3.64-1.24l.73-.1c-1.24-.52-2.47-.83-3.65-1.15-1.18-.29-2.32-.57-3.43-.73-2.23-.35-4.26-.8-6.21-1.44-1.43-.02,2.82.67,1.53.72-2.4-.47-4.84-1.4-5.6-1.52-3.32-.59-3.18.03-6.66-.43.44.15.83.5-1.79.41-2.43-.23-2.97-.72-1.42-.7.59.03.87.09.84.13.79.02,1.84.05.88-.16l-.33.09c-.6-.11-1.75-.22-2.64-.33-.9-.09-1.54-.13-1.14-.22-1.86.07-.8.17.57.27-3.15-.22-4.92-.22-8.17-.2.52.05.99.18.48.19-2.38-.01-2.9.06-3.23.15-.33.09-.46.18-2.06.34-1.83-.04.62-.48-2.6-.08-1.99.03-.45-.28.33-.44-.73.11-1.45.18-2.13.24-.68.08-1.33.14-1.94.18-1.22.08-2.3.11-3.14.2l1.54-.29c-.92.18-1.68.26-2.45.38.3.02.61.07.92.11-.92.06-1.68.24-1.68.12-.9.32.77.26-1.03.8-1.22.11-3.63.75-4.1.57,3.79-.63-.49-.25,2.71-.89-.61.15-1.37.28-2.28.41-.14,0,.11-.1.36-.15-3.66.53-1.58.72-5.29,1.56.43-.29-.94-.13-1.53.1,1.48-.42.78.09-.54.6-2.39.53-2.52.82-3.75,1.16l1.42-.34c-.43.3-1.6.6-3.19,1.22-.18-.08,1.43-.58.84-.45-1.67.92-4.17.99-6.53,2.21-1.18.34-.23-.27-1.26.05-2.67,1.27-3.05,1.03-5.82,2.46.92-.15,1.03-.27-.86.84l4.58-2.25-2.84,1.66c1.41-.62,2.88-1.5,3.76-1.79-1.37.76-1.23.68-.49.55-2.05.56-3.72,1.86-5.99,2.73l-.2-.56c-1.68.73-3.12,1.5-4.62,2.44-1.47.98-3.11,1.95-5.15,3.16.45-.24.88-.51,1.35-.72-.43.51-2.45,1.6-3.7,2.5.01-.24-.84.21-1.46.47.15.07-2.85,2.01-2.97,2.58-.62.35-1.27.66-1.87,1.04-3.08,2.3-3.13,3.1-5.92,5.48.7-.89-.66.1,1.11-1.63-.93.8-1.79,1.5-1.72,1.62-.31.19-.92.79-1.55,1.44-.62.67-1.27,1.36-1.75,1.68-.32.42-.29.69-1.3,1.63-.14.08-.06-.07-.06-.07.05.06-1.43,1.62-.43.91-3.09,2.27-7.17,7.73-9.51,10.08-.4.54-.82,1.1-1.26,1.68-.42.58-.82,1.19-1.24,1.79-.81,1.2-1.64,2.35-2.3,3.37.04-.16-.08-.06.19-.44-1.96,2.73-.66,2.04-2.85,5.15-.62.76-.41.3-.12-.23.28-.53.68-1.1.29-.62-.44.04-.98,1.07-1.64,2.31-.64,1.26-1.44,2.72-2.16,3.79l.25-.57c-1.08,1.66-2.03,4.36-3.34,7.29,0,0,.01-.17-.08-.06-.3,1.07-.87,2.55-1.39,4.17-.53,1.62-1.21,3.29-1.62,4.78.07-.99.32-1.37-.11-.9-.41,1.32.52-.24-.29,2.39-.41.81-1.19,2.64-1.5,2.83.23-.84.53-1.66.8-2.48-.38.58-.66,1.38-.87,2.2-.19.83-.35,1.67-.57,2.33l-.1-.21c-1.08,3.86-.62,4.03-1.63,8.2l.22-.41c-.12,2.36-.58,1.89-.73,4.24l-.51.63c-.04.39-.1.92-.17,1.54-.04.62-.09,1.34-.13,2.1-.08,1.51-.26,3.16-.31,4.55-.17-1.59.13-4.83.22-6.86-.22,1.52-.64,5.19-.55,6,.04-.62.04-1.4.18-2,.02,1.9.04,4.38-.21,7.42-.79-.58-.46,7.95-.87,10.18l.13,2.03c.06.68.12,1.35.18,2.03.09,1.36.19,2.73.29,4.13.15,1.4.3,2.82.45,4.29.13,1.47.45,2.96.72,4.52.19-2.32.34,1.82.87,1.32.3,1.44.46,1.97.44,2.11l.66,4.42c.06.53-.07.2-.22-.24-.13-.45-.29-1.01-.34-.93.74,3.15.09,1.38.5,3.49.09-.48.61,1,1.03,2.79l-.44-2.58c.76,2.13.91,3.1,1.12,4.06.19.97.39,1.95,1.27,4.05l-.64-1.3c.82,2.19,3.11,8.07,4.56,9.92.11.41.18.97-.28.06,2.28,5.12,6.12,10.81,8.31,14.53l-.35-.27c.61.85,1.18,1.39,1.83,2.52-.09-.02-.37-.26-.09.14.36.42,1.82,2.1,2.54,3.27l-.82-.86c.73,1.15,1.49,2.09,2.2,2.94.71.85,1.39,1.62,2.05,2.35,1.4,1.41,2.74,2.71,4.29,4.37-.17.14.46,1.01,1.31,2.05.85,1.04,1.91,2.25,2.68,2.99h-.1c1.14,1.1,2.21,2.11,3.26,3.03,1.08.89,2.12,1.73,3.16,2.54,1.02.84,2.11,1.56,3.19,2.34,1.1.77,2.19,1.61,3.42,2.4.67.62,1.63,1.39,2.76,2.25,1.14.85,2.51,1.7,3.91,2.63,1.39.95,2.94,1.76,4.39,2.65,1.45.89,2.91,1.64,4.18,2.37-.76-.48.29-.24,1.23.2,1.16.75,3.56,1.33,3.19,1.62l-.44-.21c.78.77,3.38,1.91,5.45,2.68l.53-.36c1.27.7,2.78,1.42,4.43,1.96,1.64.55,3.34,1.17,5.03,1.56,1.67.44,3.26.85,4.62,1.21,1.37.33,2.5.65,3.23,1,1.38.22,3.08.51,4.46.62l-.12.27c1.89.38,3.31.67,4.86.85.77.1,1.58.2,2.48.32.45.05.93.11,1.44.17.52.03,1.07.07,1.66.11l-.99.13c2.69.21,3.45-.52,5.91-.42l.73.44c2.34.06,4.7.24,7.05.18,1.18-.01,2.35-.01,3.52-.09,1.17-.11,2.33-.24,3.47-.43-.07.07-.2.2-.95.27,2.21-.05,8.54-.66,7.66-1.11.12.43,4.78-.74,7.22-1.39l-.33.36c2.01-.83,2.05-.94,4.92-1.7.69-.13.66.08-.27.22,2.31-.44,1.7-.74,4.48-1.36l-.97.46c2.33-.65,2.13-.65,3.32-1.28,1.4-.6,4.36-1.39,4.78-1.29.25-.26,1.41-.94,2.76-1.39.21.02-.25.26-.48.39.96-.33,1.78-.65,2.51-.95.73-.33,1.35-.67,1.95-.97,1.19-.62,2.26-1.14,3.57-1.62.09.06.27.02.49-.06-2.9,1.39-5.29,2.39-5.06,2.29.1.24,2.49-.8.75.38.92-.52,2.14-1.24,3.43-1.95,1.27-.75,2.58-1.53,3.74-2.05.12-.03.24-.07.34-.07l-.22.15c.53-.25.99-.5,1.4-.77.72-.37,1.18-.59,1.86-.98.35.02,2.67-1.35,3.75-2.07-.24-.18,1.21-1.06-.25-.4.18-.1-.18.17-.91.63-.16.1-.36.22-.46.3.02-.02.04-.04.06-.07-.73.43-1.69.99-2.78,1.62.82-.63,1.68-1.27,3-1.85.48-.5,1-1.04,1.29-1.35.85-.31,2.02-.88,3.04-1.38,1.04-.49,1.87-1,2.14-1.03,1.57-1.21,3.47-2.57,5.08-3.98.82-.69,1.6-1.36,2.27-1.99.64-.65,1.19-1.25,1.57-1.76.8-.78,1.07-.73,1.45-.94-.45.46-1.04.96-1.26,1.25.79-.8,2.09-1.85,3.08-2.9,1.02-1.03,1.86-1.93,1.93-2.25,2.15-1.84-.88,1.37,1.83-1.41l-.28.46c1.42-1.28,2.64-2.52,3.74-3.77,1.05-1.29,2-2.56,2.97-3.84.94-1.3,1.84-2.67,2.91-4.06,1.07-1.39,2.14-2.94,3.54-4.54-.38.45-.57.68-.69.74.36-.48.74-.96,1.09-1.45l1.01-1.52c.67-1.02,1.35-2.05,2-3.1,1.2-2.16,2.5-4.27,3.56-6.52,2.31-4.39,4.13-8.98,6.1-13.33.97-2.53.84-2.89,1.2-4.51l.48-.46c.17-.93.3-1.88.45-2.81.21-.98.48-1.87.78-2.74.28-.87.55-1.73.84-2.62.29-.89.57-1.82.83-2.84.22-1.03.38-2.16.49-3.42l-.32.61c.17-.89.42-2.31.58-3.48.14-1.17.28-2.07.37-1.9-.01-.19-.13-.62.06-1.31l.16-.04c.04-.75.11-1.49.14-2.23l.03-2.24c.35-3.45.64.59.94-4.47-.01-1.89-.32-5.37-.45-4.67-.03.76-.15,1.94-.31,1.99l-.04-1.71c-.46-.32-.9-1.61-1.33,2.54l.21,2.91-.3.92c.07-.81.08-1.62.09-2.44-.23,1.38-.12,2.26-.07,3.25-.14.22-.25.62-.34,1.19l.22,2.88c-.22.32-.22-1.3-.54.58.04,1.35.57-1.23.42.98-.39,1.36-.51.93-.53,2.57-.15.21-.18-.14-.15-.79-.03.73-.11,1.68-.23,2.55-.13.86-.22,1.64-.17,2.03-.26.69-.45,1.9-.64,2.91-.21,1-.44,1.8-.64,1.68,0,.46-.24,2.56-.52,3.87,0-1.25-.24-.03-.68,1.37-.41,1.41-.89,3.03-1.08,2.64.01.94-.46,2.49-1.02,4.2-.28.85-.57,1.75-.86,2.62-.32.86-.61,1.7-.85,2.47.03-.18.09-.53.21-.79-.69,1.65-1.02,2.09-1.52,3.12.27.36-.8,2.95-1.21,4.43-1.25,1.85.14-1.42-.48-.94.16.01-.15.92-.46,1.74-.33.81-.64,1.55-.35,1.27-.98,1.39-.76,1.24-1.45,1.86.29.49-.61,1.45-1.07,2.79-1.42,1.99-.71.32-1.91,2.71-.76,1.02.27-1.12.27-1.12Zm-44.9,43.8h0c.49-.26.9-.48,1.16-.62-.24.13-.58.31-1.16.62Zm-4.82,2.35c.6-.26,1.35-.58,2.12-.96.21,0,.08.2-.42.41.24-.18-.94.29-1.7.55Zm11.04-3.56c-.73.46-1.01.56-1.14.57.35-.21.76-.46,1.29-.78.02-.02.05-.06.07-.08-.04.09-.1.18-.22.29Z"/>
      <path class="cls-1" d="m173.64,212.36c.1-.07.16-.11.29-.2-.16.07-.32.14-.47.21-.08.08-.15.16-.22.23.13-.08.27-.16.4-.23Z"/>
      <path class="cls-1" d="m181.16,22.14l-.09-.07c.07.06.14.12.17.17-.05-.06-.05-.06-.08-.1Z"/>
      <polygon class="cls-1" points="89.24 223.82 89.23 223.89 89.7 223.94 89.24 223.82"/>
      <path class="cls-1" d="m202.06,43.15c.02.06.06.16.18.35,0-.02-.08-.17-.18-.35Z"/>
      <path class="cls-1" d="m209.49,53.53l.89,1.57c-.37-.69-.66-1.18-.89-1.57Z"/>
      <path class="cls-1" d="m214.32,62.07c.1.09.15.1.19.11v-.02s-.19-.1-.19-.1Z"/>
      <path class="cls-1" d="m81.73,6.94c-.13.04-.25.08-.36.12-.83.31-.26.11.36-.12Z"/>
      <path class="cls-1" d="m127.56,2.19c-.5-.01-.98-.02-1.5-.06.82.13,1.46.21,1.5.06Z"/>
      <path class="cls-1" d="m37.69,32.92s0,0,0,0c-.08.08-.15.14-.23.22l.23-.21Z"/>
      <path class="cls-1" d="m123.91,1.97c.82.12,1.51.16,2.15.17-.67-.07-1.47-.16-2.15-.17Z"/>
      <path class="cls-1" d="m226.48,102.51l.05.47s.04.02.05.05l-.1-.52Z"/>
      <path class="cls-1" d="m226.58,103.03l.07.52c-.02-.24-.04-.45-.07-.52Z"/>
      <path class="cls-1" d="m226.81,104.64l-.15-1.09c.03.38.06.85.15,1.09Z"/>
      <path class="cls-1" d="m224.48,89.69l-.13-.12c.04.07.08.12.13.12Z"/>
      <path class="cls-1" d="m223.55,85.86c.24.91.33,2.35.7,3.61l.11.1c-.3-.56-.39-2.89-.81-3.71Z"/>
      <path class="cls-1" d="m219.38,69.81c.42,1.03.78,2.09,1.17,3.13-.11-.58-.26-1.35.32.05-1.25-4.04.11.89-1.49-3.19Z"/>
      <path class="cls-1" d="m215.02,60.4c.86,1.58.13-.09.23-.04-.63-.96-.79-1.18-.23.04Z"/>
      <path class="cls-1" d="m161.05,10.28l.27-.16c-1.28-.54-.05.09-.27.16Z"/>
      <path class="cls-1" d="m147.25,6.52c.41.17.83.34,1.23.54l.67-.02c-.63-.19-1.26-.38-1.9-.52Z"/>
      <polygon class="cls-1" points="139.55 2.63 140.15 2.73 137.87 2.3 139.55 2.63"/>
      <path class="cls-1" d="m25.98,41.79c.17-.04.34-.09.51-.12.57-.74.42-1.13-.51.12Z"/>
      <path class="cls-1" d="m2.81,90.54c-.31.54-.68,2.03-.69,2.99.23-1.2.57-2.38.69-2.99Z"/>
      <path class="cls-1" d="m74.78,222.17l-1.06-.3c.65.22,1.3.47,1.97.65-.3-.11-.61-.21-.91-.34Z"/>
    </g>
  </g>
</svg>