<?xml version="1.0" encoding="UTF-8"?>
<svg id="_レイヤー_2" data-name="レイヤー 2" xmlns="http://www.w3.org/2000/svg" viewBox="0 0 978.45 296.52">
  <defs>
    <style>
      .cls-1 {
        fill: #587f00;
      }
    </style>
  </defs>
  <g id="_レイヤー_1-2" data-name="レイヤー 1">
    <path class="cls-1" d="m737.02,210.56c-.97-1.09-2.09-.1-3.06.12-7.87,1.78-12.52,7.36-16.26,13.97-1.11,1.95-1.9,4.11-3.79,5.94-1.3-3.39-.41-6.83-1.72-9.94-.83-1.99-1.31-4.26,2.37-3.74.93.13,1.35-.88,1.88-1.54,2.34-2.92,4.12-6.36,6.56-9.05,4.27-4.71,6.69-13.45,4.31-19.29-.67-1.64-1.98-2.68-3.32-1.47-3.19,2.89-5.88,6.25-7.85,10.65.06-.02.12-.04.18-.06-.24.37-.49.72-.73,1.03-.53.07-.96.38-1.16,1.04-.29.06-.26.12-.06.18-1,3.17-3.05,5.93-3.55,9.28-.12.84-.08,1.73-1.6,1.75-.12-3.07.74-6.35-1.58-9.06-.52-.61.06-1.6.38-2.41,2.44-6.16,5.56-11.94,9.23-17.44,3.82-5.74,3.85-12.07,2.52-18.49-.36-1.72-1.21-3.79-3.19-4.07-1.96-.28-3.85.82-5.06,2.45-2.31,3.12-4.38,6.38-5.26,10.28-.61,2.71-1.49,5.36-2.23,8.05-.15.56.02,1.35-.74,1.48-.85.14-1.28-.52-1.56-1.22-1.26-3.15-3.16-6.23-3.55-9.49-.29-2.48,3.07-3.76,4.57-5.77.51-.68.95-1.42,1.31-2.18,4.02-8.43,2.61-17.23,1.54-25.95-.32-2.58-2.13-3.17-4.16-1.26-2.97,2.79-5.05,6.15-6.32,10.05-1.4,4.29-1.73,8.78-2.29,13.87-2.06-3.71-4.35-6.41-5.65-9.7-.34-.86-.94-1.55-.28-2.67,2.13-3.63,4.09-7.35,6.09-11.05,3.41-6.29,5.13-13.05,5.5-20.18.05-.88-.06-1.76-.9-2.23-.87-.49-1.69,0-2.33.5-7.32,5.67-12.89,12.35-12.5,22.32.03.85-.09,1.5-.86,1.76-.92.32-1.11-.61-1.58-1.12-2.61-2.86-1.23-5.45-.18-8.61,3.03-9.1,2.84-18.79,4.31-28.2.11-.69-.05-1.46-.21-2.16-.21-.88-1.3-1.32-1.63-.84-1.03,1.49-2.98,2.22-4.08,3.78-.59.05-1.54,1.5-2.59,2.54-.83.83-1.79,2.47-2.31,3.45-4.06,5.03-3.28,11.29-2.77,17.52-1.41-2.33-3.69-4.3-2.64-7.22,1.61-4.44,2.29-9.06,2.93-13.68,1.2-8.71,1.68-17.4-1.65-25.81-.54-1.37-.72-3.55-2.6-3.51-1.67.04-2.53,1.94-3.54,3.21-.22.27-.44.68-.4,1,.17,1.43-2.61,2.43-1.4,3.11,0,0-1.12,5.62-1.53,9.02-.31,2.61-1.27,10.67-1.63,14.46-2.62-.45-.6-3.24-1.06-4.69l-.21-3.54c.14-.42.03-.95-.09-1.49-.44-2.11-.99-4.2-1.3-6.33-1.32-9.19-3.15-18.25-6.54-26.94-.36-.93-.53-1.98-1.68-2.12-.99-.12-1.29.84-1.84,1.49-4.33,5.17-3.6,11.53-4.05,17.54-.16,2.08-.67,4.48.57,6.42.05.88.1,1.81.15,2.57-1.27.96-1.9-1.48-2.26-2.12-1.71-3.07-3.83-5.67-6.16-8.31-2.97-3.36-6.44-6.03-9.58-9.09-4.26-4.16-9.48-6.58-14.48-9.34-1.72-.95-3.77-1.93-5.82-2.37-1.04-.22-3.61-.82-2.46,1.66,2.67,5.75,4.61,11.82,8.44,17.1,3.33,4.58,8.41,6.94,12.08,11.09,3.3,3.74,6.81,7.53,12.39,10.29-3.37.2-5.66-1.24-7.98-1.71v-.05s-1.8-.33-1.8-.33c0-.02,0-.04,0-.04-6.56-2.01-13.18-3.47-20.12-2.93-2.25.17-1.15,1.22-.73,2.14,3.65,8.02,10.28,12.62,18.17,15.73,2.8,1.1,5.49,2.72,8.68,2.44,3.85-.33,7.48,1.08,11.34,1.48-4.97.81-9.35,3.57-14.43,3.8-.84.04-1.87-.05-2.22.9-.35.94.45,1.53,1.09,2.1,6.03,5.42,13.24,7.55,21.16,7.06,5.94-.37,11.72-1.8,16.88-4.98,1.29-.8,2.56-.88,3.11.39,1.18,2.75,3.92,4.32,4.97,7.08.35.91,2,1.47.92,2.77-.94,1.14-2.23.69-3.37.39-5.55-1.45-11.26-1.89-16.94-1.97-3.95-.06-7.99.15-11.75,2-2.13,1.04-2.02,2.28-.8,3.66,4.94,5.63,10.82,9.51,18.57,10.15,7.08.58,13.64-.73,19.66-4.56.68-.43,1.76-1.12,2.08.13,1.24,4.88,5.3,8.39,6.62,13.95-4.8-2.94-9.55-4.65-14.64-5.05-5.51-.44-11.04-.61-16.45.93-2.08.6-2.23,1.53-.69,3,9.7,9.28,20.51,14.55,34.24,9.78,2.67-.93,3.92.57,3.86,3.1-.02.97-.55,2,.52,2.59,2.9,1.59,2.62,4.83,4.64,7.77-2.16-.72-3.56-1.07-4.86-1.63-7.95-3.42-16.43-3.9-24.88-4.4-2.33-.14-5.82-.04-6.65,1.72-1.11,2.36,2.41,3.32,3.89,4.92.25.27.48.56.75.8,7.73,6.74,16.75,9.13,26.84,8.06,2.69-.28,5.56-3.01,7.75-1.35,2.21,1.67,1.74,5.38,2.64,8.14.19.57.25,1.19.3,1.79.18,2.14-.71,3.07-2.79,2.14-1.88-.84-3.57-2.21-5.51-2.77-7.66-2.21-15.39-4.17-23.42-4.39-1.2-.03-2.83.25-1.87,2.04,1.81,3.41,3.2,7.42,6.26,9.7,8.07,6.01,17.48,6.57,27.12,5.35.92-.12,2.41-.85,2.65.16.6,2.57,2.55,5.03,1.24,7.85-.34.73-.75,1.17.09,1.78.79.57,1.78,1.35.83,2.32-.7.72-1.48-.43-2.25-.63-.69-.18-1.32-.6-1.96-.95-9.4-5.06-19.38-7.47-30.06-6.37-1.71.18-4.4-.67-4.96.91-.72,2.03,2.22,2.73,3.34,4.22.22.29.45.58.73.82,8.72,7.51,18.66,11.4,30.32,10.4,2.03-.17,4.44-2.42,5.93-.38,1.13,1.55.75,4.2,1.02,6.36.05.36-.04.73,0,1.09.27,2.66-.76,2.95-2.95,1.82-3.33-1.71-6.75-3.26-10.14-4.84-5.71-2.67-11.74-4.29-17.91-5.46-1.21-.23-2.5-.26-3.43.71-1.11,1.17-.21,2.4.33,3.34,1.14,1.99,2.58,3.81,3.86,5.72,6.79,10.17,17.41,11.87,28.33,12.4,2.18.1,2.33.42,2.25,2.12-.46,9.36-1.6,18.6-4.85,27.45-.41,1.12-1.39,2.32.51,2.85,1.73.48,1.82-.88,2.18-2.12,1.92-6.7,3.2-13.56,3.87-20.45.5-5.11,1.93-10.2.94-15.48-.19-1.03-.18-3.05,1.56-3.72,4.74-1.82,7.72-5.6,10.51-9.53,3.75-5.27,8-10.24,10.35-16.41.4-1.06.9-2.09.05-3.05Zm-93.17-136.73c.35-3.9,1.06-7.46,3.16-11.35,3.02,7.05,5.15,13.89,6.22,21.1.51,3.48.81,7.03,1.94,10.39l.1,4.74h.04c-.29,1.56-.06,3.19-.2,4.77-.09,1.01-.19,2.33-1.24,2.73-.95.35-1.8-.56-2.48-1.23-3.89-3.79-5.03-8.87-6.37-13.84-.41-1.53-.34-3.21-1.07-4.64l-.11-2.32c.9-3.39-.28-6.9.03-10.34Zm-31,.58c-3.52-3.33-5.16-7.96-7.22-12.25-.33-.69-1.03-1.54-.2-2.34.87-.84,1.79-.36,2.65.12,8.58,4.76,16.48,10.34,23.29,17.55,5.02,5.31,8.17,11.66,11.52,17.94.56,1.05.8,2.27,1.12,3.19.41,1.54-.45,1.78-1.35,1.51-1.25-.38-2.67-.75-3.59-1.59-8.8-7.97-17.59-15.97-26.22-24.13Zm24.8,35.03c-.77-.27-1.66-.44-2.47-.37-8.39.68-15.06-3.43-21.78-7.57-2.34-1.44-4.32-3.12-5.33-5.7-.34-.88-1.84-1.72-.68-2.75.71-.62,1.73-.98,2.99-.54,3.98,1.38,8.21,1.23,12.34,1.78l2.72.56c.74.53,1.69.69,2.55.99,8.65,3.06,17.23,6.26,24.55,12.97-5.18.46-9.9,2.38-14.89.63Zm22.69,10.68c-7.8,4.22-22.74,5.5-29.83-1.49,9.56-3.64,19.17-5.17,29.16-2.99,1.34.29,3.18.27,3.42,2.13.24,1.83-1.8,1.83-2.76,2.35Zm5.72-6.88c-.91,2.17-1.71,1.83-2.69.63-1.7-2.07-2.78-4.51-3.15-7.22-.13-.94-.38-2.69-.5-2.68.09-2.63,1.54-11.1,1.81-14.23.22-2.51.96-7.46,1.25-9.32.7-.55,1.09-1.99,1.74-2.68.53-.56.53-1.62,1.65-1.56,1.12.06,1.32,1.06,1.51,1.81.69,2.67,1.86,5.21,2.08,8.02.71,9.35-.03,18.44-3.7,27.24Zm8.99-7.72c.84-.58,1.78-1.38,2.4-2.32.47-.7.77-1.3.97-1.79,3-.96,2.78-.76,2.71,2.67-.07,3.84-.95,7.57-1.24,11.38-.35,4.56-1,9.4-4.95,13.44-2.22-8.25-3.43-15.92.11-23.39Zm2.52,33.19c-8.78,6.03-24.12,6.27-32.09-2.11-.55-.57-1.63-.95-1.25-1.99.34-.94,1.38-.91,2.18-1.05,2.38-.44,4.76-.98,7.25-1.01,5.78.6,11.57,1.18,17.35,1.8,1.24.13,2.29.72,3.24,1.53.43.37,1.34.86,1.5.14.35-1.58.6-2.55,2.01-.71.89,1.17,1.33,2.36-.19,3.41Zm17.59-21.53c-.49,8.64-2.07,12.68-9.05,23.34-2.14-6.28,1.24-20.98,9.05-23.34Zm-35.66,36.34c11.86-1.65,21.93.63,31.1,7.24-11.53,4.18-21.45,1.4-31.1-7.24Zm43.54-15.68c.33,9.09,2.37,18.24-5.34,26.01-2.99-8.11-.09-22.32,5.34-26.01Zm-35.83,36.1c11.81.16,22.33,2.53,32.9,7.44-9.47,6.33-25.22,2.89-32.9-7.44Zm38.5,30.2c-1.11,1.99-4.08,2.67-7,2.03-2.53-.56-5.24-.27-7.87-.39-4.16-.2-7.79-1.95-11.11-4.25-2.72-1.88-2.58-5.56-5.47-8.57,10.15,1.07,18.86,2.62,26.98,6.63,2.17,1.07,5.12,3.37,4.47,4.55Zm.43-19.07c.01-.23-.2-.63-.11-.69,3.07-2.31.76-5.59,1.54-8.23.91-3.06,1.77-6.2,3.52-8.99.67-1.08,1.03-2.3,1.88-3.38.74-.94.61-2.87,2.44-2.26,1.8.6,2.17,2.99,1.56,3.93-1.02,1.58-.02,2.62.04,3.87.2,3.71-.38,7.18-2.66,10.25-2.8,3.76-4.62,8.06-6.65,12.98-1.36-2.94-1.69-5.16-1.57-7.47Zm-31.58,27.89c8.9,1.16,18.21.63,26.4,5.52,2.87,1.71,6.14,2.77,8.58,5.31-12.08,5.07-30.3-1.71-34.98-10.83Zm36.17,1.72c-.08-1.44,1.39-1.03,1.51-2.14.52-4.92,2.49-9.39,4.5-13.83l1.96-3.8c2.25-1.83,3.09-4.8,5.65-6.26,1.54,3.79,2.01,7.28.36,11.04-2.34,5.33-6.5,9.3-9.95,13.8-.93,1.21-2.5,1.54-4.02,1.2Zm1.6,29.52c-.16,1.32-1.6,1.68-2.77,1.94-9.32,2.12-25.2-6.85-28.5-16.65,10.45,3.01,20.2,6.34,29.25,11.52,1.27.73,2.19,1.83,2.02,3.19Zm1.78-7.77c5.84-8.79,9.16-18.4,18.49-23.49-.28,6-12.08,21.71-18.49,23.49Z"/>
    <g>
      <path class="cls-1" d="m783.59,94.91c-.05,1.94-1.92,2.93-4.47,3.03-1.58.06-2.07-.91-1.81-2.37.47-2.62,1.93-4.55,4.61-4.67,1.39-.06,1.9,1.58,1.67,4.02Z"/>
      <path class="cls-1" d="m778.66,107.8c-.39,1.84-.88,3.77-3.46,3.76-2.05,0-2.38-1.81-2.3-3.08.11-1.84,1.16-3.78,3.2-3.86,1.41-.05,2.54,1.31,2.56,3.18Z"/>
      <path class="cls-1" d="m786.24,113.33c-1.66-.03-2.62-1.15-2.53-2.51.13-1.99,1.26-3.77,3.31-4.19,1.56-.32,2.43,1.06,2.44,2.5.03,2.14-1.02,3.67-3.23,4.2Z"/>
      <path class="cls-1" d="m798.57,102.19c-.1,2.11-.86,3.63-3.29,3.88-2.25.23-1.8-1.52-1.89-2.62-.17-2.02.62-3.49,2.93-3.7,1.83-.16,2.36.79,2.24,2.44Z"/>
      <path class="cls-1" d="m771.21,102.56c-2.24-.15-3.39-1.4-3.29-2.79.12-1.63,1.4-3.2,3.22-3.25,1.6-.04,2.6,1.2,2.34,2.93-.24,1.58-.72,3.1-2.28,3.11Z"/>
      <path class="cls-1" d="m794.29,94.64c-.83,1.08-1.21,3.2-3.02,3.16-1.4-.04-3.25-1.2-3.06-2.96.18-1.71,1.57-2.96,3.56-2.94,1.59.01,2.4.91,2.52,2.74Z"/>
      <path class="cls-1" d="m825.63,137.95c-4.08-2.02-7.86-.58-12.07.78-9.98,3.22-15.93,10-19.85,19.16-.35.82-.66,1.21-1.63.87.94-7.25,1.33-14.53,1.7-21.81.13-2.59.2-5.31,4.18-4.58.64.12,1.48-.68,2.18-1.14,3.17-2.1,5.81-4.72,7.37-8.23.63-1.42,1.34-1.79,2.74-1.07,5.36,2.78,9.85,1.13,14.42-2.29,8.19-6.12,7.86-17.54-1.21-22.14-3.12-1.59-2.3-2.6-.78-4.52,3-3.8,3.45-9.65.73-13.34-4.17-5.65-12.3-11.13-21.18-7.09-1.75.8-3.61,1.37-5.35,2.2-1.51.72-2.07,1.41-2.58-1.24-.68-3.52-2.96-6.74-6.65-8.14-7.27-2.76-14.64.33-18.74,7.01-3.07,5-3.57,10.31-3.2,15.96-5.58-1.11-10.44.62-15.27,2.35-6.88,2.46-10.04,7.86-10.64,14.75-.44,5.05,1.99,7.62,7.18,8.37,2.04.29,4.12.23,6.18.43,1.27.12,1.95.48,1.27,2.12-3,7.15,3.89,15.98,11.56,14.68,4-.68,7.98-1.83,11.17-4.56,1.24-1.06,1.82-1.19,2.61.34,1.66,3.22,4.25,5.22,7.96,5.51,2.99.24,3.8,1.95,3.58,4.71-.3,3.79-.33,7.59-.57,11.39-.29,4.65-.63,9.3-1.08,13.94-.09.9-.54,2.17-1.21,2.51-1.05.53-1.43-.87-2.1-1.5-2.49-2.34-4.89-4.78-7.54-6.94l.27-.35-5.4-4.2c-4.35-3.73-9.55-5.73-15.01-7.25-1.11-.31-1.78-.61-2.74.6-3.11,3.91-3.05,13.58.5,17,3.03,2.91,6.68,5.23,10.84,5.51,4.89.33,9.51,1.53,14.17,2.73,5.66,1.45,6.56,2.78,5.45,8.38-.76,3.83-2.07,7.6-2.38,11.45-.41,5.09-2.87,9.45-3.75,14.72-.81-.73-1.34-.99-1.48-1.38-1.76-5.08-6.11-7.77-9.94-10.95l-2.86-2.36-2.09-.94c-.09-.24-.31-.41-.54-.47-.58-.14-1.14-.33-1.7-.54l-.09-.04h0c-3.03-1.15-5.85-3.01-9.1-3.14-6.31-.26-7.71,1.35-7.87,6.62-.17,5.57,3.02,8.43,8.65,10.65,6.63,2.62,13.38,4.86,20.32,6.56,4.3,1.05,5.19,2.6,3.79,7.19-2,6.51-3.78,13.1-6.94,19.23-1.42,2.76-2.2,2.81-4.03.43-4.79-6.24-10.58-11.33-18.03-14.21-4.63-1.79-7.55-.5-10.34,4.29-1.7,2.92-.93,9.88,1.81,11.43,3.63,2.05,6.89,4.85,11.06,5.94,4.16,1.08,7.43,4,11.33,5.64,1.32.56,1.24,1.09.79,2.46-1.19,3.59-3.98,6.03-5.9,9.08-3.44,5.48-6.37,11.45-11.9,15.3-2.11,1.47-3.27,3.76-5.21,5.36-.55.45-1.4,1.37-.7,2.16.56.64,1.61.57,2.33-.09,1.58-1.46,3.12-2.96,4.65-4.47,8.08-7.95,13.96-17.51,19.99-26.99,1.27-2,2.77-3.54,2.52-6.18-.11-1.2.76-2.52,1.27-3.74.32-.75.63-1.44,1.79-1.45,8.28-.07,16.54.59,24.81.79,5.88.15,11.02-1.65,14.41-7.13,3.58-5.79.49-13.32-6.16-14.12-2.51-.3-5.11-.24-7.56.68-4.85,1.83-9.97,2.76-14.81,4.79-2.65,1.12-4.72,3.31-8.54,4.17,4.03-6.07,3.56-13.21,8.3-18.2.42-.44.67-1.03.33-1.67-1.72-3.21,1.45-5.57,1.52-8.51.03-1.2,1.36-1.06,2.37-.98,5.67.43,11.34.78,17-.17,4.44-.75,9.1-.04,13.23-2.79,3.08-2.05,5.76-4.53,7.9-7.37,2.1-2.79,1.02-5.96-.62-8.91-1.63-2.94-4.09-3.94-7.2-3.59-8.93.99-17.38,3.64-25.46,7.5-.62.3-1.24.81-1.61,1.39-.65,1.02-1.25,2.6-2.55,1.96-1.09-.53-.14-1.93.2-2.94.19-.56.02-1.27.27-1.78,1.32-2.74.18-6.42,2.49-8.5,1.52-1.37,1.34-2.05.76-3.54-1.33-3.43-.19-5.18,3.54-5.95,1.77-.36,3.49-.81,5.21-1.48,4.3-1.68,8.62-3.69,13.11-4.37,7.31-1.12,12.23-5.79,17.53-10.07.59-.48.66-1.24.95-1.88,1.76-3.87-2.1-7.79-6.13-9.79Zm-41.66,27.58c-.83,1.12-2.04-.16-2.93-.55-4.73-2.04-9.39-4.25-14.11-6.33-.91-.4-2.23-1.24-2.77.32-.4,1.16.81,1.51,1.72,1.91,1.87.82,3.69,1.73,5.9,2.77-8.6,1.73-15.47-3.58-15.74-11.84-.13-3.97,2.26-5.26,6.12-4.19,4.25,1.18,7.36,4.03,10.81,6.38l3.83,3.09c1.63,2.11,4.11,3.53,5.69,5.68.65.88,2.53,1.36,1.49,2.77Zm-23.95,32.34c-1.16-.47-2.9-1.14-3.46-.45-2.29,2.82-4.06.47-5.71-.45-2.47-1.37-3.18-3.75-2.52-6.53.64-2.71,2.61-2.68,4.81-2.73,1.35-.03,2.25.16,3.49.89,1.46.87,3.23,1.23,4.96,1.65l4.9,3.37c.21.36.77.57,1.14.79l.26.18c1.41,1.3,3.12,2.26,4.61,3.48,1.9,1.56,3.64,3.27,3.61,6.26-5.58-2.23-10.84-4.32-16.08-6.45Zm6.43,45.67c-3.42-3.21-7.71-4.63-11.52-6.91-1.1-.65-2.73-1.2-3.29-.16-.82,1.54,1.14,1.74,2.07,2.28,2.91,1.66,5.87,3.22,8.71,4.77-.09.79-.44.82-.76.63-5.27-3.22-11.41-4.57-16.75-7.62-4.29-2.45-5.26-7.67-2.26-11.47,1.13-1.43,2.81-1.87,4.56-1.62,6.35.91,18.49,12.85,19.75,19.37.02.08-.13.19-.52.73Zm26.54-14.46c-.33-1.43-1.84-.58-2.85-.54-3.19.12-6.12,1.24-9.01,2.47-.54.23-1.09.77-1.57.07-.54-.78.25-.95.73-1.27,6.55-4.36,14.18-5.27,21.64-6.53,4.96-.84,7.01.58,8.19,4.45.67,2.2-1.91,6.59-4.36,8.43-4.65,3.49-10.11,3.22-15,2.3-5.03-.95-9.9.16-14.79-.54-.42-.06-.91.36-1.43-.42,5.09-3.27,10.57-5.07,16.15-6.68.96-.28,2.61-.39,2.3-1.74Zm15.95-38.93c.68-.08,1.71.04,1.75-.88.05-1.2-.95-.97-1.83-1.04-4.8-.4-9.3.82-13.76,2.34-.92.31-2.06,1.35-2.88-.08-.89-1.55.55-2.15,1.44-2.84,4.44-3.45,9.93-4.21,15.11-5.72,2.88-.84,5.84-1.05,8.89-1.16,2.8-.1,4.19,1.36,5.24,2.96.97,1.48.35,3.67-1.01,5.05-3.76,3.79-7.01,7.64-13.41,8.14-4.36.34-8.99-.31-13.39,1.23-1.48.52-3.57-.72-6.35-1.39,7.2-3.17,13.4-5.82,20.21-6.6Zm-27.1-66.08c-1.93-3.77-2.23-3.67-5.36-.78-2.97,2.74-6.42,4.72-10.54,5.16-3.59.39-9.62-4.51-9.92-8.07-.2-2.36,1.49-3.75,3-5.13.84-.77,1.76-1.5,1.32-2.72-.47-1.28-1.68-.49-2.56-.6-1.68-.21-3.36-.35-5.32-.55-2.83.9-5.82.61-8.23-1.6-2.82-2.59-2.06-9.54,1.44-12.82,5.93-5.55,12.56-8.49,20.69-4.79,1.17.53,2.58.33,3.42-.48,1.01-.98-.2-1.9-.64-2.86-2.13-4.65-1.29-9.16,1.01-13.48,1.45-2.73,3.76-4.74,6.12-6.68,3.2-2.62,6.62-2,9.9-.4,3,1.47,4.71,3.94,4.8,7.49.1,3.96,1.2,4.24,4.95,2.64,4.44-1.9,8.29-5.65,13.85-4.4,4.01.9,7.15,3.05,9.62,6.07,4.12,5.05,3.43,9.21-2.01,14.83-2.42,2.49-2.28,3.24,1.06,4.2,3.05.87,6.12,1.48,7.69,4.8,2.52,5.32-.53,12.35-6.27,15.51-3.66,2.01-6.56.58-9.73-.67-4.19-1.65-4.07-1.59-5.46,2.63-1.28,3.92-3.79,6.95-7.95,7.91-5.95,1.37-11.53,1.32-14.88-5.2Zm43.97,26.68c-4.23,3.67-9.28,6.22-14.36,7.75-3.75,1.13-7.87,2.04-12.08,2.29,6.84-4.51,13.53-9.17,21.31-11.95-1.94-2.21-5.7-2.56-8.78.16-4.43,3.92-9.99,5.8-15.41,9.86,2.97-7.18,7.11-12.14,13.01-15.58,2.9-1.69,6.05-2.69,9.39-3.44,3.63-.82,6.16.62,8.61,2.56,2.77,2.19,1.96,5.18-1.69,8.34Z"/>
    </g>
    <path class="cls-1" d="m461.87,209.76c-3.95-.94-7.71.26-11.55.26-8.64,0-16.71,2.65-24.53,5.74-4.11,1.62-8.1,3.67-12.33,5.12-3.61,1.24-6.96,2.99-9.66,5.87l-1.22,1.27c-.65-.47-1.22-1.06-1.62-1.77-6.69-11.86-12.01-24.32-16.09-37.31-.23-.73-.79-1.56.34-2.38,2.51,1.5,4.51,3.77,7.36,5.01,2.83,1.23,5.13,3.61,7.77,5.32,3.11,2.01,6.24,4.04,9.54,5.71,5.39,2.73,11.32,3.31,17.25,3.45,6.06.15,12.48,1.23,16.76-4.92.83-1.19,1.89-2.21,2.87-3.29,4.69-5.18,3.72-14.94-1.9-18.69-3.84-2.56-8.14-3.75-12.64-4.72-4.97-1.07-13.23-.69-18.86.63l-11.37,1.75-.17.14c-4.51.71-10.53,2.41-13.37,3.94l-4.86.3c-.81-.79-1.43-1.81-1.74-3.06-2.36-9.71-3.78-19.55-4.34-29.53-.22-4.03.13-4.37,3.81-2.79,5.57,2.39,9.78,6.85,15.24,9.62,6.69,3.4,13.18,6.66,20.63,8.05,11.9,2.22,24.18-3.52,28.66-16.53,2.7-7.83-1.72-16.8-10.87-18.89-4.59-1.04-9.15-1.41-13.78-1.9-9.39-1.01-18.36.75-27.33,2.74-5.96,1.32-11.5,3.88-16.77,7.66-.35-8.19.54-15.7,2.37-23.15.68-2.77,1.29-3.28,3.93-1.53,6.78,4.5,13.94,8.58,22.27,9.15,10.44.71,20.7,0,30.31-5.08,5.57-2.94,10.94-10.57,10.27-15.78-.63-4.89-6.27-10.32-11.49-11.82-10.35-2.98-20.12-1.65-30.27,1.68-7.83,2.57-14.72,6.25-21.6,11.49.51-3.79.82-7.5,2.98-9.73,2.82-2.91,6.35-5.3,10.45-6.67,5.17-1.73,10.57-2.35,15.81-3.7,10.05-2.59,17.43-8.51,22.72-17.18,3.77-6.18,2.51-11.75-3.08-16.4-1.48-1.23-3.27-1.69-4.85-2.28-4.02-1.49-8.59-3.58-12.56-1.25-2.69,1.58-5.59,2.19-8.3,3.26-12.03,4.74-16.47,14.32-17.88,26.13-.31,2.57.42,5.85-.91,7.59-3.2,4.17-3.7,9.27-5.96,13.7-.47.92-.33,2.52-1.66,2.38-1.1-.12-1.9-1.12-2.06-2.59-.33-3.14-1.61-5.85-3.87-8.23l-2.52-3.09c-.04-.31-.02-.64.09-1.02v-.03s-.03.02-.06.04c.01,0,.03,0,.04,0-.12.22-.24.44-.35.65l-.29-.36c.2-.07.4-.17.61-.3-.42-.07-.8-.18-1.13-.34l-2.57-3.15c-.38-.92-.69-1.85-1.12-2.6-2.09-3.63-5.1-5.88-7.75-8.89-.04.06-.06.11-.09.16-1.74-1.81-4.37-4.24-6.1-4.53-1.59-.26-3.77-.6-5.37-.85.15-.14.31-.28.47-.45-4.17.23-8.27-1.32-11.01,2.8-.95,1.42-1.03,3.65-3.33,3.97.71,2.16-3.04,3.79-.75,6.17.19.2.2.69.13,1.01-1.5,6.21,1.04,11.49,5.25,15.26,5.67,5.07,12.42,8.61,20.33,9.58,5.14.63,10.35,1.13,15.33,2.74,2.77.9,4.22,2.51,3.53,5.74-1.82,8.44-4.12,16.84-2.94,25.64.13.96.01,2.07-.69,2.77-4.9-2.46-7.52-7.24-12.03-9.95-4.93-2.97-9.19-7.08-14.96-8.58-2.67-.69-5.34-1.37-8.01-2.06-7.68-1.99-15.15-3.71-22.47,1.73-6.27,4.66-9.05,14.96-5.3,21.77,3.63,6.6,9.23,10.21,16.38,12.15,2.44.66,4.69.04,7.02.35,5.91.79,11.85.56,17.57-1.2,6.56-2.02,12.96-4.54,19.02-7.83,2.14-1.16,3.06-1.57,3.52,1.87,1.01,7.5,1.21,15.11,3.02,22.51.71,2.92,1.18,5.91,1.69,8.88.19,1.12,1.04,2.54-.29,3.32-1.14.66-1.88-.81-2.69-1.34-.89-.58-1.67-1.39-2.73-1.68-11.73-3.22-22.7-8.84-35.3-9.47-4.92-.24-8.3.82-11.51,3.76-9.26,8.52-8.4,19.89-.2,26.4,9.45,7.5,21.12,7.6,32.26,4.3,7.12-2.11,13.54-6.29,19.25-11.28,3.11-2.72,3.56-2.52,4.64,1.34,1.86,6.64,4.41,13.01,7.52,19.16,2.64,5.21,5.3,10.4,8.06,15.8-9.13-.86-17.79-1.89-26.58-1.38-6.96.4-13.58,1.96-20.18,4.07-3.69,1.18-8.1,6.07-8.06,9.99.04,3.6.53,7.11,1.28,10.69,1.8,8.61,6.24,14.53,14.72,17.08,15.7,4.73,30.8-3.67,35.67-18.58,1.24-1.93,2.87-4.58,3.54-6.21.76-1.83,1.49-4.43,1.9-6.01.15-.35.25-.84.35-1.39.4-2.15,1.78-2.72,3.3-1.18,4.66,4.75,9.99,8.81,14.65,13.49,6.46,6.5,13.78,11.73,21.31,16.75,2.51,1.68,5.3,2.95,8.01,4.31,1.05.52,2.36.51,2.76-.79.28-.94-.51-1.66-1.54-2.12-16.29-7.33-29.07-19.3-41.58-31.62-.64-.63-1.99-1.13-1.26-2.26.61-.93,1.81-.3,2.73-.17,6.13.87,12.01,2.74,17.81,4.77,9.86,3.44,19.92,4.01,29.95,1.63,5.58-1.33,11.03-3.42,14.03-9.4,4.71-9.37,1.37-16.9-8.84-19.33Zm-79.8-72.71c5.68-3.7,12.09-5.42,18.68-6.49,10.9-1.77,21.86-2.24,32.76-.14,11.06,2.13,12.52,12.67,6.57,21.45-1.19,1.76-2.57,3.43-4.02,4.99-3.87,4.14-9.33,4.05-13.79,5.2-8.12-.43-14.98-3.19-21.47-6.9-6.56-3.76-12.97-7.78-19.43-11.72-2.35-1.43-2.06-4.59.7-6.39Zm48.53-86.63c1.78,1.26,3.07,3.13,2.93,5.55-.15,4.57-2.53,8.48-5.22,11.62-3.2,3.74-6.88,7.28-11.92,9.13-7.24,2.66-14.46,5.22-22.07,6.62-.79.15-1.69.89-2.19-.25-.47-1.07.69-1.41,1.24-1.96,4.67-4.68,9.32-9.38,14.07-13.97,5.89-5.69,11.9-11.26,19.02-15.43,1.26-.74,2.59-2.41,4.14-1.31Zm-38.54,18.69c1.29-12.59,17.59-22.41,27.87-23.32,2.08-.19,4.26.59,6.39.92.17.3.34.59.51.89-14.42,7.57-23.89,20.6-35.76,31.65-1.29-3.7.66-6.87,1-10.14Zm-1.43,29.83c4.6-2.48,9.56-4.57,14.1-6.93,6.71-3.49,13.46-3.3,20.21-3.48,6.07-.16,12.27,1.14,16.42,6.63.52.69,1.12,1.27.9,2.31-9.68.41-19.2,2.06-28.77,3.5-9.45,1.42-18.82,3.91-29.01,3.78,1.63-2.91,3.95-4.63,6.15-5.82Zm37.3,2.03c4.45-.67,8.89-.74,13.38-.36,2.05.18,1.8,1.12,1.39,2.31-.95,2.8-2.41,5.29-4.64,7.29-5.57,4.98-12.09,7.41-19.55,7.69-5.58.21-11.18.92-16.63-.72-6.56-1.96-12.91-4.46-19.09-9.11,15.87-1.32,30.4-4.88,45.14-7.1Zm-56.44-1c-5.94-.53-11.77-1.72-17.49-3.24-7.58-2.02-14.71-4.88-17.79-13.25-1.05-2.85-.93-5.69-1.11-8.56-.33-5.42,3.85-10.76,9.13-11.34.41-.05.77-.12,1.1-.23,1.92,0,4.45.36,6.46,1.86,2.21,1.66,4.82,2.9,6.59,3.64.06.15.15.27.25.4,3.09,4.15,6.17,8.3,9.26,12.45l3.24,4.28c3.94,4.81,3.94,11.34,7.15,16.61-2.36-.92-4.37-2.41-6.78-2.63Zm-27.44,50.57c-2.83.28-5.89,1.31-8.43,1.01-5.35-.65-11.09-.5-15.75-4.32-4.53-3.71-7.44-8.06-7.72-14.07-.13-2.81,1.66-2.8,3.29-2.42,8.63,1.97,17.44,2.69,26.21,3.42,9.24.77,17.88,3.48,27.17,7.02-7.93,5.21-15.87,8.5-24.77,9.37Zm-32.96-22.5c3.7-4.34,7.31-8.85,12.67-11.4.58-.28,1.41-.05,2.12-.04,9.57.17,18.45,2.89,26.75,7.52,4.83,2.7,9.12,6.21,13.1,10.01,1.85,1.77,3.98,3.04,5.89,5.13-19.37-8.15-40.38-7.17-60.53-11.23Zm67.79,57.76c-7.2,7.1-15.71,11.88-25.29,14.91-.98.31-1.84.42-2.82-.03-4.66.41-9.3.22-13.96-.73-6.38-1.29-12.01-6.67-13.27-13.12-.95-4.86,2.87-12.13,7.3-15.57,4.59-3.56,9.45-2.24,13.9-1.04,8.82,2.37,17.43,5.52,26.04,8.62,2.8,1.01,5.31,2.83,7.95,4.29,1.44.8,1.38,1.44.15,2.66Zm63.54,12.64c-3.68,6.12-9.68,4.52-15.19,4.79-10.75.53-18.96-5.35-27.44-10.59-3.44-2.12-6.87-4.25-10.3-6.37.09-.3.17-.6.26-.9,8.7,1.15,17.53.83,26.12,3.13,7.49,2,15.19,2.32,22.89,2.75,2.31.13,5.49-.85,6.56,1.76.81,1.98-1.81,3.62-2.89,5.42Zm-31.54-22.65c-.77.27-1.44.57-1.98.89,4.61-.36,8.79-.35,12.84-1.08,4.45-.8,8.59.53,12.87.94,5.06.49,10.12,4.92,11.66,9.82.63,2.01.35,2.39-1.52,2.22-7.53-.68-15.29-.29-22.59-1.74-11.59-2.3-23.23-2.92-34.9-3.97-.45-.04-.89-.15-1.31-.28l1.98-.81c4.21-.62,8.04-1.91,11.8-3.12l-.02.02,11.18-2.89Zm-62.21,79.59c-1.06-3.02-2.64-5.96-3.37-8.93-.7-2.86.22-6.42,1.34-9.32,1-2.6,3.06-4.81,6.13-5.73,7.64-2.28,15.42-3.1,23.37-3.21,7.47-.11,14.83.31,22.04,2.4.22.06.41.22,1.14.64-6.44,3.74-12.71,6.76-18.79,10.15-4.64,2.59-9.22,5.28-13.61,8.19-4.77,3.16-10.36,4.66-14.93,8.19-2.14,1.66-2.86-1.06-3.32-2.38Zm47.31-12.07c-.7,1.51-1.32,3.28-1.8,4.81-2.17,2.38-3.11,5.25-5.06,7.39-9.39,10.31-20.28,14.49-33.64,7.02-2.34-1.31-2.46-2.07-.17-3.64,4.26-2.93,9.23-4.44,13.41-7.67,7.95-6.13,17.48-9.68,26.1-14.75,1.06-.62,2.34-1.51,3.52.04.4.52.72.84.98.98-1,1.53-2.4,3.79-3.36,5.83Zm69.24-11.23c-7.13,6.24-16.07,5.5-24.58,5.34-7.4-.14-14.16-3.78-21.36-5.35-4.34-.95-8.59-2.19-13.05-2.68-.59-.07-1.2-.22-1.81-.44.81-1.06,1.6-2.15,1.6-2.15,3.17-2.02,6.54-3.58,10.07-4.93,8.32-3.17,16.58-6.52,25.26-8.59,5.51-1.32,11.2-1.54,16.81-1.41,3.77.09,7.75.85,9.85,4.99,2.48,4.89,1.58,11.4-2.79,15.22Z"/>
    <path class="cls-1" d="m978.32,94.98c-.4-.97-1.53-.66-2.27-.56-3,.41-5.98.99-8.96,1.5-10.37,1.75-20.41,4.93-29.59,9.82-7.94,4.23-15.43,9.57-21.45,16.57-.4.47-.5,1.61-1.51,1.16-.72-.32-.75-.99-.62-1.84,1.44-9.67,3.5-19.19,6.37-28.54.67-2.17,1.92-2.55,3.74-2.53,11.76.15,20.53-5.89,27.94-14.11,7.37-8.18,12.54-17.83,16.65-28.02.34-.83,1.42-1.75.62-2.64-.88-.97-2.02-.23-3.03.18-3.28,1.31-6.57,2.62-9.85,3.93,2.74-3.87,5.42-7.46,6.93-11.77.32-.91.94-1.93,0-2.68-.78-.63-1.59.13-2.31.54-2.38,1.36-4.75,2.74-7.66,4.42.86-2.6,1.66-4.59,2.15-6.66.22-.94,1.1-2.33-.11-2.96-.86-.44-2.16-.01-3.1.65-2.15,1.5-4.29,3.02-6.88,4.85,1.07-4.26,2.05-7.98,2.9-11.73.23-1,.72-2.33-.31-3.06-1.21-.84-1.9.4-2.7,1.12-3.61,3.31-7.26,6.59-11.19,10.16-.62-2.96.15-5.54.21-8.12.03-1.09.73-2.7-.92-3.14-1.32-.36-2.22.78-2.95,1.77-1.47,2-2.89,4.03-4.68,6.54-.24-3.92,0-7.1,1.26-10.17.43-1.05,1.82-2.56.52-3.2-1.41-.7-2.49.95-3.25,2.22-.31.52-.56,1.09-.89,1.59-3.32,5.06-6.64,10.11-10.14,15.42-.59-1.21-1.2-2.01-1.37-2.9-.83-4.31-3.57-7.72-5.39-11.55-.45-.94-1.09-2.13-2.38-1.88-.99.19-1.53,1.26-1.7,2.2-.47,2.59-2.21,4.89-1.55,7.74.32,1.4-.52,2.84-1.52,3.47-2.15,1.33-2.4,3.38-2.42,5.38-.1,10.7.97,21.21,3.93,31.6,2.23,7.81,6.34,14.18,13.22,17.86,4.72,2.52,3.53,5.27,2.49,8.56-1.67,5.3-3.72,10.62-4.01,16.11-.59,11.03-2.55,21.93-2.64,33.84-3.93-5.46-7.16-10.38-10.82-14.98-.71-.89-1.36-1.5-2.03-1.79l-2.11-1.58c-.01-1.07-.82-1.99-1.93-2.87-.89-.71-1.8-1.4-2.77-1.96l-3.4-2.51c.07-.36.04-.58-.44-.33l-.98-.72c.09-.07.18-.15.3-.23-.68-.39-1.05-.57-1.39-.8-2.23-1.54-4.49-2.99-6.13-5.28-.63-.89-1.96-1.32-3.02-1.87l-10.35-5.65c.09-.03.18-.06.28-.1-3.71-1.74-6.64-4.59-10.29-6.4-1.17-.58-2.35-1.45-3.19-.42-.89,1.09.37,2.25,1.1,3.13,5.42,6.45,10.61,13.13,16.43,19.21,4.79,5.01,10.79,8.88,15.73,13.68,6.15,5.98,13.63,9.44,20.87,13.34,3.09,1.67,4.27,3.2,4.42,6.44.55,11.51-.09,23.09,2.27,34.57-1.47-.15-2.65-.51-3.41-1.54-1.83-2.48-4.56-3.54-7.22-4.69-1.88-.81-4.06-1.07-5.74-2.16-7.36-4.78-16.07-6.04-23.92-9.5-5.94-2.62-12.41-2.26-18.56-3.65-1.2-.27-2.35-.86-3.15.58-.87,1.56.57,2.27,1.39,2.92,3.24,2.58,5.99,5.65,8.95,8.53,6.12,5.95,13.52,9.49,21.82,11.39,9.17,2.1,18.36,4,27.72,5.06,3.02.34,4.19,2.03,4.61,4.98,1.39,9.64,4.17,18.96,7.24,28.18,1.14,3.42,1.45,4.05-.91,4.11l-1.37-1.21c.05-.34-.09-.6-.65-.58-3.41.09-5.38-2.63-8.16-3.57-2.34-.79-4.92-.8-7.33-1.4-8.15-2.03-15.86-5.49-24.37-6.44-6.29-.7-12.36.09-18.49.83-1.59.19-2.74,1.38-1.06,2.68,5.05,3.91,9.62,8.38,15.85,10.81,5.49,2.14,11.28,2.74,16.84,4.44,4.87,1.49,10.07,2.3,15.29,2.49,4.76.17,9.42-.79,14.12-1.2,2.44-.21,3.67.18,4.59,2.72,1.52,4.2,3.19,8.48,5.64,12.15,2.45,3.67,5.11,7.19,7.17,11.23-1.65.52-3.15.67-4.92.51-4.17-.36-8.23-1.23-12.35-1.82-8.91-1.3-17.82-2.55-26.69-4.19-4.77-.88-9.97-1.69-14.14,2.3-.5.48-1.38.77-1.18,1.66.2.93.97,1.31,1.86,1.52,4.49,1.07,8.66,2.96,12.87,4.81,5.29,2.33,10.6,4.87,16.17,6.22,9.13,2.2,18.3,2.23,26.63-3.3.7-.46,1.6-.63,2.3-1.09,2.09-1.39,3.53-.63,4.89,1.17,6.07,8.06,13.43,14.8,21.58,20.7.59.43,1.09.99,1.71,1.36,1,.6,2.17.86,3.02-.1,1.07-1.22-.14-1.95-.88-2.68-.43-.42-.97-.72-1.46-1.08-7.92-5.65-15.05-12.13-20.94-19.93-1.47-1.95-1.95-3.65-.89-5.99,1.3-2.87,2.17-5.94,3.29-8.89.04-.11.08-.23.12-.34.84-1.87,5.71-8.86,6.89-12.14,1.26-3.53,4.87-15.09,4.45-15.74-.01-.72-.1-1.45-.18-2.46,1.51-1.88-1.14-3.5-.7-5.64.43-2.08-.76-2.62-2.59-1.8-1.1.49-2.17,1.05-3.25,1.59-.5.25-1.34.44-.98,1.17,0,0-1.28,1.07-2.79,2.2-1.51,1.13-4.41,7.18-6.05,9.58-1.27,1.85-2.61,6.18-3.41,9.31-.41.68-.52,1.51-.56,2.36-.43,2.02-1.09,7.35-1.4,9.94-.17.13-.34.29-.51.51-2.22,2.68-2.67.25-3.24-.68-4.59-7.54-7.82-15.69-10.04-24.2-2.13-8.19-1.89-8.14,5.84-12.48,5.47-3.07,10.11-6.98,13.92-12.21,4.84-6.64,9.78-13.23,14.69-19.83.83-1.12,2.65-1.96,1.96-3.55-.79-1.82-2.57-.37-3.9-.52-.46-.05-1.02-.1-1.4.1-7.51,3.92-15.25,7.47-21.4,13.53-5.92,5.84-9.79,13.09-13.83,20.38-4.01-9.69-3.96-20.08-6.36-29.94-.3-1.25.43-2.12,1.82-2.14,1.09-.01,2.1-.2,3.17-.5,6.03-1.69,11.03-5.45,16.45-8.29,9.09-4.78,15.32-12.97,22.01-20.53,3.86-4.35,6.59-9.6,10.97-13.53.7-.62,2.25-1.22,1.44-2.49-.6-.95-1.92-.75-3.05-.58-4.21.64-8.12,2.18-12.04,3.78-10.56,4.32-19.66,10.96-28.24,18.25-5.07,4.31-9.66,9.24-14.48,15.18-.29-7.9-.75-14.89-.69-21.88.02-2.82.95-5.39.19-8.5-.88-3.59.24-7.64.29-11.5.03-1.9.98-2.7,2.6-2.85,6.25-.55,11.41-3.9,16.84-6.5,7.11-3.4,14.59-6.32,21.06-10.7,7.86-5.32,15.53-10.96,23.4-16.3.86-.59,1.59-1.36,1.15-2.41Zm-18.73-55.19c-3.52,5.64-6.7,10.82-11.13,15.07,1.65-6.33,4.02-12.1,11.13-15.07Zm-26.53-.41c2.69-4.83,6.21-9.65,11.45-12.97-.66,11.05-5.41,19.5-14.36,25.61,1.39-4.05.93-9.08,2.91-12.64Zm-16.8-3.45c2.06-2.93,3.7-6.15,5.71-9.54,2.13,6.34-.51,16-5.44,20.86-1.78-3.77-3.04-7.37-.28-11.32Zm-9.23,41.88c-1.73-2.67-3.61-5.31-4.17-8.89,1.57.48,2.05,3.03,3.59,1.88.5-.37-.19-2.52-.52-3.8-1.52-5.81-4.56-11.42-3.92-17.53.88-8.34.71-16.81,2.85-25.29,1.39.85,2.35,1.78,2.67,3.29.95,4.5,2.35,8.97,3.49,13.35.98,3.8,1.95,7.71,2.85,11.62.53,2.3,2.06,2.24,3.26.37,1.7-2.66,2.89-5.71,4.89-8.09,4.48-5.33,4-13.04,9.25-18.13,1.06,2.6.3,5.24-.16,7.63-1.32,6.88-1.97,13.9-4.13,20.6-.44,1.36-.71,2.94.66,3.59,1.29.61,2.07-.98,2.84-1.82,2.21-2.43,4.23-5.03,6.45-7.44,1.22-1.32,2.18-3.24,4.75-2.22,1.26.5,2.05-1.03,2.05-2.03-.02-6,5.23-7.34,8.36-10.54.27.16.55.32.82.48-1.6,4.63-3.14,9.28-4.82,13.88-1.46,4.02-3.95,7.44-6.6,10.76-.55.68-1.72,1.27-.56,2.38.98.94,1.81.29,2.59-.28,1.37-1,2.62-2.2,4.07-3.06,1.1-.65,2.28-2.41,3.73,0,.74,1.23,2,.21,1.85-.84-.46-3.21,1.69-4.2,3.93-5.22,2.62-1.2,5.25-2.38,8.78-3.98-1.45,3.57-2.28,6.45-3.73,8.97-2.96,5.15-6.09,10.21-9.45,15.1-4.83,7.04-11.75,11.46-19.57,14.52-9.03,3.53-20.48-.57-26.09-9.25Zm-3.65,64.85c-.22.16-.77.16-.99,0-3.92-2.99-8.93-4.1-12.6-7.61-3.43-3.27-7.16-6.34-10.82-9.21-5.89-4.61-10.45-10.29-15.45-15.61-1.35-1.44-3.75-2.7-3.56-5.4,1.46-.05,2.64.84,4,.84l9.78,6.92c.16.15.35.28.55.39,3.3,1.81,6.4,3.88,8.99,6.66,0,0,.92.81,2.02,1.75.15.48.93.86,1.24,1.25,2.18,2.72,5.79,3.98,7.46,7.24.12-.14.22-.27.32-.41.05.05.1.1.15.15-.15.08-.3.16-.46.26,0,0,0,0,0,0,0,0,0,0,0,0h0s0,0,0,0h0c2.95,1.11,3.29,4.76,5.81,6.13,2.28,1.24,2.09,3.85,3.68,5.39.38.36.34.95-.1,1.27Zm-26.12,43.04c-6.62-2.16-12.22-6.25-16.7-11.69-.98-1.19-1.9-2.42-2.64-3.36,9.05-.5,46.5,15.17,52.01,22.16-11.2-1.64-22.12-3.67-32.67-7.11Zm30.3,86.45c-6.2-2.02-11.82-5.29-17.95-7.39-1.08-.37-1.89-.92-3.35-2.56,17.58,3.54,34.49,4.89,51.68,7.43-9.95,7.15-19.98,5.92-30.39,2.52Zm40.66-41.17c1.76-3.78,7.16-8.21,7.16-8.21,2.07-.99,2.07.45,2.38,1.77.35,1.52.38,3.02.32,4.56-.03.63-.25,1.64.27,2-.47,2.71-1.25,6.78-2.18,9.71-1.27,4.03-5.89,12.43-7.31,14.98-.28.2-.47.49-.42.75.56,3.47-3.18,4.54-3.72,8.09-1.39-2.67-1.8-4.67-2.08-6.82-.09-.71-.36-1.51-.76-2.08.23-2.28.94-7.02,1.36-9.78,1.03-.82,1.12-1.97.73-3.35.85-2.6,2.9-8.7,4.27-11.63Zm-24.85,5.43c-.21,1.01-1.05,1.05-1.98,1.15-11.05,1.22-21.77.17-32.59-2.7-6.32-1.68-12.13-3.99-17.87-6.91-2.36-1.2-3.71-3.35-6.2-5.16,6.79-1.74,12.93-.74,18.98.67,9.26,2.15,18.36,4.96,27.67,6.93,2.63.56,4.9,2.4,7.64,2.86l.1.09c.41,1.23,1.59,1.52,2.58,2.09.56.32,2.02-.67,1.67.99Zm12.41-36.77c5.67-6.72,13.21-10.56,21.64-15.07-9.39,15-17.91,29.48-34.22,37.31,3.01-8.22,6.98-15.61,12.58-22.24Zm-19.99-22.04c8.46-12.12,19.55-20.99,32.03-28.58,4.59-2.79,9.67-4.4,14.18-7.23.99-.62,1.95-.78,3.23-.33-7.09,9.09-12.83,19.04-21.67,26.51-4.76,4.02-10.18,6.94-15.68,9.71-2.54,1.28-4.94,3.01-8,3.26-1.14.09-2.21.09-3.15-.38-1.15-.57-2.72-.41-.94-2.96Zm-.82-48.99c14.03-19.34,33.84-27.09,55.67-31.3-3.35,7.58-46.64,32.39-55.67,31.3Z"/>
    <path class="cls-1" d="m149.64,217.83c.63-1.62,1.83-2.35,3.51-2.81,6.98-1.9,13.86.99,17.25,7.25.8,1.47.46,2.3-.53,3.49-7.74,9.29-17.8,14.89-28.94,19.08-4.3,1.62-8.5,2.12-12.96,1.92-3.44-.15-5.37,2.1-6.28,5-2.07,6.59-5.48,12.61-7.83,19.07-.25.68-.47,1.45-.95,1.95-.82.85-.99,3.14-2.74,2.14-1.79-1.03-.28-2.27.31-3.61,3.27-7.38,6.32-14.86,9.4-22.32.82-1.98.19-3.18-2.1-3.48-8.92-1.15-17.69-3.29-25.98-6.55-6.52-2.57-11.96-7.29-15.3-13.82-1.36-2.65.15-7.25,2.93-8.41,4.17-1.73,8.5-2.89,12.73.03,1.45,1,3.16,1.06,4.8,1.46,5.43,1.34,9.99,4.46,14.68,7.36,4.76,2.94,7.77,7.34,10.7,12.04-.02-9.56,2-18.85,1.73-28.33-.26-9.06-.45-18.11-1.68-27.1-.12-.9.29-2.19-.84-2.58-1.07-.37-1.65.84-2.37,1.42-3.99,3.23-7.05,7.35-10.42,11.15-3.62,4.09-8,5.55-13.16,5.39-4.57-.14-7.23-5.02-4.79-8.84,1.91-2.99,4.54-5.22,7.83-6.72,1.45-.66,3.28-.86,4.68-3.19-4.08.5-7.36,0-9.91-2.85-2.73-3.05-3.46-6.6-2.92-10.46.25-1.81,5.8-4.68,8.21-4.1,2.77.66,5.71.83,8.22,2.42.56.35,1.16,1.13,1.89.39.59-.61.32-1.35-.06-2.01-1.52-2.6-1.51-5.29-1.14-8.25.45-3.63,2.74-4.57,5.64-4.93,3.36-.42,6.15.49,7.9,3.75,1.32,2.46.91,5.42,2.4,8.18,2.27-2.7,4.55-5,6.32-7.65,1.76-2.63,5.44-2.91,8.33-1.17,2.76,1.67,2.86,4.42,1.61,7.07-1.47,3.12-2.6,6.5-5.69,8.91,3.97-.85,7.78-1.1,11.66-.5,1.87.29,3.63.91,5.06,1.91,2.15,1.51,4.45,3.29,3.9,6.47-.46,2.67-4.77,5.26-8.29,5.54-5.94.47-11.65.35-16.93-3.1-2.09-1.36-3.95-.99-3.6,2.33,1.67,15.8.55,31.57-.33,47.36-.09,1.65.21,3.32.38,5.68,5.48-5.67,11.01-10.33,17.02-14.39,1.4-.94,2.91-1.74,4.43-2.47.9-.43,1.94-.63,2.22.85,2.99.12,2.84,1.83,1.32,4.62,4.92-2.23,9.61-1.4,14-3.17-1.88-2-3.91-2.95-6.76-2.66-2.89.29-5.77.42-8.58,1.22Zm-32.81-43.02c-3.4-4.34-11.26-9.59-15.75-10.44-2.44-.46-5.41-1.13-7.03,1.42-2.31,3.66,1.9,10.95,6.07,10.19,5.36-.97,10.7-1.15,16.7-1.18Zm25.56-4.95c-3.82.02-10.39,1.9-14.02,3.96-.49.28-1.31.73-1.28,1.01.09.71.78.93,1.51,1.22,5.75,2.31,11.74,2.9,17.86,2.83,2.38-.03,4.26-1.28,5.07-3.07.83-1.83-1.01-3.22-2.47-4.38-2.08-1.65-4.64-1-6.68-1.57Zm-22.02,2.62c.67-6.76.58-13.32-2.68-19.45-.81-1.52-1.93-2.19-3.53-1.87-1.5.3-3.11.49-3.64,2.45-.47,1.79-.76,3.47-.29,5.35,1.48,5.88,6.23,9.3,10.13,13.52Zm-4.62,6.68c-4.56.93-8.85,2.3-12.97,4.29-3.21,1.55-6.23,3.22-8.3,6.23-.6.87-1.71,1.65-1.03,2.86.7,1.26,1.99,1.85,3.39,1.73,3.07-.26,5.99-1.08,8.18-3.43,3.6-3.87,7.16-7.78,10.73-11.68Zm-28.01,39.99c-1.61,1.12-3.15.71-4.68.47-1.19-.18-2.43-.55-3.17.9-.64,1.27-.65,2.43-.04,3.8,1.14,2.58,3.15,1.48,4.95,1.48,5.95-.01,11.97-3.9,17.86.33.3.21.91.43,1.28-.13.35-.54.54-1.21.1-1.69-.89-.97-1.75-2.3-2.88-2.67-5.2-1.69-10.52-3.01-15.76-5.34.08,2,1.84,1.54,2.34,2.84Zm49.85-62.01c-.22-1.55-.84-2.51-2.03-3.08-1.42-.67-2.42-.17-3.53.87-3.82,3.58-6.05,7.93-6.94,13.05-.18,1.02-1.27,2.19-.14,2.97,1.27.88,1.77-.72,2.53-1.37,1.01-.85,2.01-1.72,3.03-2.57,3.26-2.74,5.71-6.04,7.08-9.86Zm5.75,73.29c2.88.88,5.45,1.55,7.94,2.45,5.15,1.87,5.13,1.92,8.2-2.69-5.25-2.19-10.4-4.26-16.13.24Zm-48.28,5.33c5.29,3.06,9.75,2.77,15.22-.65-5.42-5.6-10.17.25-15.22.65Zm-11.1-6.97c1.93,2.32,3.67,4.77,5.64,4.48,3.49-.51,6.7-2.52,10.23-3.46-5.14-2.56-10.19-1.35-15.86-1.02Zm69.17-4.14c2.64.74,4.6.85,6.02,1.78,3.21,2.12,5.12.16,7.19-1.71.52-.47,1.21-.97.86-1.8-.29-.68-.88-1.23-1.71-1.07-3.87.79-8.02.4-12.36,2.79Zm-10.02,15.46c-5.26-1.97-9.78-2.28-13.96,1.12-.44.36-1.14.86-1.11,1.26.05.94,1.03.79,1.69.86,4.68.56,8.81-1.05,13.39-3.24Zm-5.21-10.11c7.89-4.47,10.45-7.19,10.66-10.88-4.82,2.4-8.27,6.14-10.66,10.88Zm12.55,6.18c-4.07-1.43-8.03-3.73-12.5-1.62,4.22.08,7.99,4.1,12.5,1.62Zm-42.45-9.36c1.66,4.38,5.37,6.8,8.82,9.47-1.48-4.5-5.03-7.1-8.82-9.47Zm8.82,15.2c-2.3-1.71-4.27-5.31-7.93-1.41,2.89.52,5.41.96,7.93,1.41Z"/>
    <path class="cls-1" d="m248.64,226.83c.63-1.62,1.83-2.35,3.51-2.81,6.98-1.9,13.86.99,17.25,7.25.8,1.47.46,2.3-.53,3.49-7.74,9.29-17.8,14.89-28.94,19.08-4.3,1.62-8.5,2.12-12.96,1.92-3.44-.15-5.37,2.1-6.28,5-2.07,6.59-5.48,12.61-7.83,19.07-.25.68-.47,1.45-.95,1.95-.82.85-.99,3.14-2.74,2.14-1.79-1.03-.28-2.27.31-3.61,3.27-7.38,6.32-14.86,9.4-22.32.82-1.98.19-3.18-2.1-3.48-8.92-1.15-17.69-3.29-25.98-6.55-6.52-2.57-11.96-7.29-15.3-13.82-1.36-2.65.15-7.25,2.93-8.41,4.17-1.73,8.5-2.89,12.73.03,1.45,1,3.16,1.06,4.8,1.46,5.43,1.34,9.99,4.46,14.68,7.36,4.76,2.94,7.77,7.34,10.7,12.04-.02-9.56,2-18.85,1.73-28.33-.26-9.06-.45-18.11-1.68-27.1-.12-.9.29-2.19-.84-2.58-1.07-.37-1.65.84-2.37,1.42-3.99,3.23-7.05,7.35-10.42,11.15-3.62,4.09-8,5.55-13.16,5.39-4.57-.14-7.23-5.02-4.79-8.84,1.91-2.99,4.54-5.22,7.83-6.72,1.45-.66,3.28-.86,4.68-3.19-4.08.5-7.36,0-9.91-2.85-2.73-3.05-3.46-6.6-2.92-10.46.25-1.81,5.8-4.68,8.21-4.1,2.77.66,5.71.83,8.22,2.42.56.35,1.16,1.13,1.89.39.59-.61.32-1.35-.06-2.01-1.52-2.6-1.51-5.29-1.14-8.25.45-3.63,2.74-4.57,5.64-4.93,3.36-.42,6.15.49,7.9,3.75,1.32,2.46.91,5.42,2.4,8.18,2.27-2.7,4.55-5,6.32-7.65,1.76-2.63,5.44-2.91,8.33-1.17,2.76,1.67,2.86,4.42,1.61,7.07-1.47,3.12-2.6,6.5-5.69,8.91,3.97-.85,7.78-1.1,11.66-.5,1.87.29,3.63.91,5.06,1.91,2.15,1.51,4.45,3.29,3.9,6.47-.46,2.67-4.77,5.26-8.29,5.54-5.94.47-11.65.35-16.93-3.1-2.09-1.36-3.95-.99-3.6,2.33,1.67,15.8.55,31.57-.33,47.36-.09,1.65.21,3.32.38,5.68,5.48-5.67,11.01-10.33,17.02-14.39,1.4-.94,2.91-1.74,4.43-2.47.9-.43,1.94-.63,2.22.85,2.99.12,2.84,1.83,1.32,4.62,4.92-2.23,9.61-1.4,14-3.17-1.88-2-3.91-2.95-6.76-2.66-2.89.29-5.77.42-8.58,1.22Zm-32.81-43.02c-3.4-4.34-11.26-9.59-15.75-10.44-2.44-.46-5.41-1.13-7.03,1.42-2.31,3.66,1.9,10.95,6.07,10.19,5.36-.97,10.7-1.15,16.7-1.18Zm25.56-4.95c-3.82.02-10.39,1.9-14.02,3.96-.49.28-1.31.73-1.28,1.01.09.71.78.93,1.51,1.22,5.75,2.31,11.74,2.9,17.86,2.83,2.38-.03,4.26-1.28,5.07-3.07.83-1.83-1.01-3.22-2.47-4.38-2.08-1.65-4.64-1-6.68-1.57Zm-22.02,2.62c.67-6.76.58-13.32-2.68-19.45-.81-1.52-1.93-2.19-3.53-1.87-1.5.3-3.11.49-3.64,2.45-.47,1.79-.76,3.47-.29,5.35,1.48,5.88,6.23,9.3,10.13,13.52Zm-4.62,6.68c-4.56.93-8.85,2.3-12.97,4.29-3.21,1.55-6.23,3.22-8.3,6.23-.6.87-1.71,1.65-1.03,2.86.7,1.26,1.99,1.85,3.39,1.73,3.07-.26,5.99-1.08,8.18-3.43,3.6-3.87,7.16-7.78,10.73-11.68Zm-28.01,39.99c-1.61,1.12-3.15.71-4.68.47-1.19-.18-2.43-.55-3.17.9-.64,1.27-.65,2.43-.04,3.8,1.14,2.58,3.15,1.48,4.95,1.48,5.95-.01,11.97-3.9,17.86.33.3.21.91.43,1.28-.13.35-.54.54-1.21.1-1.69-.89-.97-1.75-2.3-2.88-2.67-5.2-1.69-10.52-3.01-15.76-5.34.08,2,1.84,1.54,2.34,2.84Zm49.85-62.01c-.22-1.55-.84-2.51-2.03-3.08-1.42-.67-2.42-.17-3.53.87-3.82,3.58-6.05,7.93-6.94,13.05-.18,1.02-1.27,2.19-.14,2.97,1.27.88,1.77-.72,2.53-1.37,1.01-.85,2.01-1.72,3.03-2.57,3.26-2.74,5.71-6.04,7.08-9.86Zm5.75,73.29c2.88.88,5.45,1.55,7.94,2.45,5.15,1.87,5.13,1.92,8.2-2.69-5.25-2.19-10.4-4.26-16.13.24Zm-48.28,5.33c5.29,3.06,9.75,2.77,15.22-.65-5.42-5.6-10.17.25-15.22.65Zm-11.1-6.97c1.93,2.32,3.67,4.77,5.64,4.48,3.49-.51,6.7-2.52,10.23-3.46-5.14-2.56-10.19-1.35-15.86-1.02Zm69.17-4.14c2.64.74,4.6.85,6.02,1.78,3.21,2.12,5.12.16,7.19-1.71.52-.47,1.21-.97.86-1.8-.29-.68-.88-1.23-1.71-1.07-3.87.79-8.02.4-12.36,2.79Zm-10.02,15.46c-5.26-1.97-9.78-2.28-13.96,1.12-.44.36-1.14.86-1.11,1.26.05.94,1.03.79,1.69.86,4.68.56,8.81-1.05,13.39-3.24Zm-5.21-10.11c7.89-4.47,10.45-7.19,10.66-10.88-4.82,2.4-8.27,6.14-10.66,10.88Zm12.55,6.18c-4.07-1.43-8.03-3.73-12.5-1.62,4.22.08,7.99,4.1,12.5,1.62Zm-42.45-9.36c1.66,4.38,5.37,6.8,8.82,9.47-1.48-4.5-5.03-7.1-8.82-9.47Zm8.82,15.2c-2.3-1.71-4.27-5.31-7.93-1.41,2.89.52,5.41.96,7.93,1.41Z"/>
    <path class="cls-1" d="m544.07,211.63c-.84-7.75.05-14.92.45-22.09.13-2.43.48-4.88.36-7.35-.08-1.55-.56-2.11-2.32-1.4-2.46.99-5.09,1.57-7.66,2.28-5.6,1.55-9.39-1.98-12.83-5.23-5.48-5.19-7.96-12.13-8.91-19.48-.52-4.01,3.26-2.28,4.85-2.53,9.64-1.54,16.12,4.78,23.01,9.92.94.7,1.57,1.84,2.86,2.15,2.95-5.83,2-12.11,1.72-18.13-.39-8.35.6-16.73-.64-25.06-.49-3.29-1.46-6.07-3.31-9.08-4.68-7.61-12.22-11.38-18.98-16.27-5.13-3.7-9.68-7.54-8.95-14.94.34-3.48,2.24-4.64,5.02-4.91,4.19-.4,7.93.9,10.92,3.98,3.97,4.08,7.65,8.37,9.62,13.84.28.78.61,1.62,1.86,1.89-1.41-7.16-3.15-14.19-3.32-21.42-.08-3.61-.62-7.26.71-10.84,1.31-3.54,4.58-3.64,7.3-3.99,2.39-.31,3.57,2.2,4.43,4.16,2.45,5.56,2.46,11.45,2.11,17.38-.03.59-.07,1.17-.12,1.94,1.54-.2,1.35-1.48,1.52-2.16,1.33-5.24,5.18-7.29,10.01-8.07,4.57-.74,8,2.43,7.81,7.03-.21,5.17-2.06,9.54-5.6,13.4-5.66,6.18-10.49,13.08-14.71,20.25-1.98,3.36-2.53,7.88-2.69,11.92-.37,9.4-.12,18.82-.12,28.33,1.68.11,1.94-2.06,3.09-3.1,5.68-5.12,12.19-7.26,19.77-5.79,4.66.9,9.39,1.33,13.99,2.62,3.82,1.07,3.71,1.12,2.2,4.69-5.77,13.65-17.97,16.45-30.62,18.5-1.72.28-3.69-.07-5.36-.66-2.67-.94-3.37.44-3.29,2.5.29,8.17-.64,16.34.15,24.5.07.7-.3,1.57.54,1.92.93.39,1.22-.58,1.59-1.11,4.75-6.92,11.29-10.96,19.45-12.87,3.52-.82,6.74.29,10.11.26,1.3-.01,1.72,1.41,2,2.7,1.56,7.27-1.95,12.77-6.61,17.5-3.84,3.9-8.9,6.19-14.11,7.92-1.99.66-4.13.8-6.1.19-1.92-.6-4-1.12-5.68-.4-2.46,1.06-.18,3.31-.52,4.93-1.46,6.88.47,13.72.04,20.58-.08,1.28-.84,3.58.82,3.87,1.87.32,1.93-2.16,2.42-3.47,1.52-4.06,3.96-7.56,6.58-10.88,3.36-4.24,8.1-6.5,13.4-7.11,2.11-.24,2.07-3.08,4.56-2.71,1.41.21,2.24.08,1.53,1.61-2.33,5.06-2.04,10.89-5.09,15.79-2.73,4.4-5.72,8.36-10.42,10.71-3.44,1.72-6.94,3.35-10.47,4.87-1.1.47-1.58,1.07-1.44,2.16,1.16,8.86.92,17.91,3.48,26.59.17.58.24,1.19.33,1.79.16,1.05-.02,2.07-1.16,2.35-1.3.32-1.67-.78-1.85-1.73-.57-2.97-.95-5.98-1.59-8.94-1.31-6.06-1.14-12.4-3.71-18.27-.63-1.43-.9-1.3-2.11-1.33-7.55-.21-15.33-1.04-20.94-6.31-4.91-4.6-9.89-9.64-11.79-16.68-.55-2.04-.2-2.92,1.79-2.61,3.69.56,7.63.22,10.97,2.17,3.44,2.01,7.4,2.49,10.86,4.8,4.39,2.93,7.71,6.7,11.1,10.73,0-4.11.4-7.91-.12-11.58-.46-3.28-.75-6.59-1.15-9.87-.25-2.05-.68-3.26-3.16-3.3-14.99-.26-22.47-9.98-27.75-22.35-.47-1.11-1.03-2.53.38-3.26,1.46-.76,2.56-1.98,4.75-1.73,8.5.96,14.58,6.27,21.02,10.98,1.14.83,2.12,1.89,3.69,3.31Zm2.22-102.08c.98-7.73,1.79-15.49,2.98-23.19.74-4.75.55-9.38-.17-14.07-.42-2.75-2.03-4.6-4.2-6.08-1.67-1.13-2.79-1.15-3.85,1.09-2.8,5.92-1.28,11.88-.35,17.75,1.29,8.23,4.37,16.11,5.59,24.51Zm4.23.48c2.41-1.29,3.31-2.69,4.31-4.06,3.21-4.39,6.21-8.98,9.87-12.97,2.58-2.82,3.57-6.02,4.12-9.45.54-3.42-1.53-5.39-4.68-4.57-3.8.99-7.38,2.39-8.25,7.04-.28,1.51-1.17,2.91-1.84,4.34-2.85,6.06-2.97,12.54-3.51,19.67Zm-8.91-1.09c-3.55-9.32-7.36-18.4-14.64-25.47-2.47-2.4-6.27-2.28-9.2.18-2.93,2.47-.79,4.78.32,6.99.63,1.26,1.84,2.2,2.83,3.25,1.86,1.96,4.38,2.51,6.59,3.68,5.44,2.87,9.49,7.37,14.1,11.36Zm40.27,47.47c-1.43-.53-2.58-.02-3.74.24-4.94,1.12-9.37,3.79-14.4,4.69-4.61.82-8.13,4.3-12.66,5.4-.78.19-1.68.89-1.48,1.78.11.48,1.1.9,1.76,1.07,2.57.69,5.17,1.37,7.86.56,4.86-1.47,9.88-2.64,14.25-5.25,3.38-2.02,7.51-3.53,8.41-8.49Zm-30.75,6.48c10.36-3.6,20.62-7.16,30.82-10.69-4.81-2.2-9.81-1.31-14.9-1.05-8.7.44-13.34,2.92-15.92,11.75Zm-10.03,14.25c-3.65-3.45-8.47-4.25-12.12-7.01-3.62-2.73-7.58-4.99-11.06-8.68,1.22,12.87,12.9,20.68,23.19,15.7Zm30.62,53.45c-6.72,7.1-13.44,14.19-20.11,21.23,9.5-1.95,19.32-9.46,20.11-21.23Zm4.19-39.59c-6.68-3.86-21.83,7.38-24.3,16.72,8.52-5.03,15.14-12.42,24.3-16.72Zm-23.18,21.15c8.93-.44,21.29-8.64,22.4-14.31-8.15,3.71-15.04,9.37-22.4,14.31Zm-11.5,8.91c-6.46-5.94-13.97-9.66-20.84-15.42,2.29,8.41,12.85,16.13,20.84,15.42Zm-21.37-63.17c6.5,5.65,13.2,9.93,20.42,13.44-4.79-7.26-10-13.9-20.42-13.44Zm19.58,95.09c-7.09-5.07-14.72-9.17-21.77-14.86,4.32,9.29,12.35,14.8,21.77,14.86Zm-17.59-16.75c5.39,7.13,13.86,9.75,20.93,14.43-5.07-7.55-12.23-12.09-20.93-14.43Zm33.62,6.36c1.76-1.46,4.2-3.05,6.07-5.14,2.58-2.9,4.95-5.95,8.68-7.41,2.84-1.11,2.88-1.02,2.28-3.93-4.53-.35-8.71,2.63-10.66,5.08-2.62,3.3-4.84,7.66-6.37,11.4Zm-15.99-27.98c-3.71-5.26-8.3-9.43-14.48-11.48,4.36,4.42,9.23,8.18,14.48,11.48Zm17.85-.45c6.66-.02,16.51-6.26,17.59-10.91-5.01,5.18-11.22,8.17-17.59,10.91Z"/>
    <path class="cls-1" d="m47.01,269.85c-2.39-7.7-4.86-15.37-7.32-23.04-2.31-7.22-4.11-14.56-4.57-22.13-.6-9.93,1.07-19.7,2.75-29.44.36-2.06,1.3-3.83,3.56-4.66,1.69-.62,3.2-1.71,4.82-2.54,9.41-4.86,18.15-11.06,28.48-14.1,2.53-.74,4.29-2.75,5.51-5.07,1.82-3.46-.51-8.04-4.37-8.43-5.61-.58-10.41,1.88-14.73,4.95-6.43,4.56-13.53,8.23-19.31,14.95.12-2.3.08-3.63.29-4.92.15-.93.72-1.79.96-2.72.72-2.74,2.79-5.12,3.22-7.65.61-3.56,1.88-6.89,2.66-10.36.27-1.18,1.36-2.43,3.03-2.83,6.43-1.53,12.13-5.02,18.54-6.77,7.29-1.99,14.41-4.64,21.76-6.52,2.98-.76,7.43-4.93,7.71-7.62.38-3.7-2.47-5.24-5-6.87-1.49-.96-3.3-.98-4.95-.71-4.74.8-9.57,1.32-13.94,3.54-6.88,3.49-14.36,5.84-20.43,11.01,3.4-9.15,6.81-18.14,10.94-26.84.66-1.38,1.73-1.55,2.97-1.61,4.87-.22,9.61-1.28,14.31-2.42,6.54-1.58,13.07-3.03,19.71-4.18,4.88-.85,10.11-.6,14.58-3.83,5.06-3.66,5.29-8.12.04-11.49-1.57-1.01-3.34-1.31-5.2-1.37-6.58-.21-12.89,1.49-19.22,2.84-6.75,1.44-13.42,3.35-19.37,8-.02-3.95,2.58-5.79,4.12-8.08.87-1.28.85-3.57,2.96-3.81,2.18-.26,2.78-1.48,1.98-3.24-.56-1.23.48-1.76.59-2.61.25-1.83,2.44-2.42,2.8-4.12.61-.7,1.32-1.52,1.93-2.22.65-.38,1.36-.68,2.16-.98,5.99-2.22,12.34-1.55,18.45-2.85,10.12-2.15,20.41-3.52,30.59-5.38,3.35-.61,6.42-2.13,9.19-4.18,2.07-1.54,3.7-3.52,3.06-6.15-.68-2.8-3.53-3.43-5.86-4.25-4.75-1.66-9.6-1.15-14.48-.4-9.33,1.45-18.1,4.27-26.55,8.59-2.11,1.08-3.99,4.58-6.93,3.88.71-1.05,1.54-2.31,2.17-3.36.81-1.35,2.44-3.52,3.62-5.04,1.68-1.53,3.36-3.05,4.89-4.72,4.82-5.29,10.1-10.72,18.88-10.13,7.81.52,15.48-2.21,23.24-3.31,5.14-.73,10.32-1.25,14.03-5.79,1.4-1.71,1.14-2.97.46-4.59-.62-1.49-.49-3.6-2.76-3.78-3.07-.24-5.91-1.37-9.09-1.52-6.35-.29-12.4.69-17.43,4.18-8.38,5.82-16.22,12.42-24.3,18.7-.58-.83-.03-1.26.19-1.8,4.15-10.17,8.27-20.35,6.71-31.74-.4-2.89-3.67-8.21-5.57-8.33-3.74-.25-4.93,2.93-6.65,5.34-.21.29-.37.63-.51.96-5.74,13.29-7.87,26.89-3.22,40.96.62,1.89.6,3.21-.51,4.51-1.45,1.42-3.41,3.39-4.19,4.42-1.32,1.73-4.29,5.86-4.29,5.86l.06.03c-2.17,2.85-3.67,6.17-6.28,8.71-.16.15-.28.32-.4.49l-4.44,4.62c.52-6.7-.74-13.09-2.28-19.4-2.35-9.63-4.87-19.25-13.04-25.99-1.85-1.53-4.29-2.65-6.33-1.75-2.41,1.06-3.75,3.63-4.3,6.38-1.7,8.47,1.65,16.13,5.16,23.17,4.03,8.06,9.59,15.4,15,22.67,1.75,2.35,1.38,3.55.21,5.62-4.19,7.4-8.21,14.89-12.28,22.35-1.82,3.33-3.14,6.94-5.34,9.99-4.01-9.98-8.07-19.77-13.82-28.8-1.92-3.02-4.72-4.69-7.72-6.25-1.48-.77-2.69-.45-3.95.67-3.48,3.11-4.69,9.87-2.86,15.24,1.93,5.68,6.55,9.21,10.35,13.36,4.05,4.43,8.46,8.53,12.74,12.75,1.21,1.2,1.68,2.29,1.14,4.16-1.35,4.59-2.96,9.02-5.01,13.37-2.17,4.6-3.64,9.53-5.53,14.62-1.89-2.23-2.91-4.68-3.92-7.07-3.48-8.21-8.05-15.73-14.77-21.61-2.6-2.27-6.09-4.44-9.79-3.81-6.19,1.06-7.99,8.02-3.79,13.5,6.77,8.83,15.49,15.66,23.96,22.67,5.22,4.32,5.46,3.95,3.97,10.26-1.38,5.8-2.64,11.63-4.19,18.49-2.99-8.36-7.3-14.47-13-19.98-4.1-3.95-8.55-7.02-13.46-9.48-5.29-2.65-10.92,1.27-10.16,6.91.28,2.08,1.27,4.16,2.88,5.79,3.35,3.39,6.31,6.96,10.7,9.49,6.7,3.86,12.7,8.93,19.86,12.07,1.15.5,2.01,1.12,1.6,2.39-1.24,3.95-.62,8.09-1.54,12.12-.82,3.59-.85,7.45-.73,11.17.56,17.33,7.45,33.23,11.48,49.78.23.95.51,2.05,1.88,1.56,1.21-.43,1.09-1.62.82-2.49ZM100.56,62.44c9.67-5.6,20.24-8.37,30.94-10.89,5.31-1.25,10.62-1.83,15.86.46,2.93,1.28,3.39,2.65.9,4.59-3.07,2.4-6.33,4.23-10.54,4.79-7.77,1.05-15.4,3.15-23.13,4.61-6.09,1.15-12.2,2.19-18.73,2.12.59-2.94,2.24-4.26,4.7-5.69Zm27.02-29.29c4.68-3.71,10.27-5.87,15.25-9.04,1.69-1.08,3.35-1.97,5.22-2.19,4.56-.54,9.01.07,12.01,1.19,4.05,3.05,3.94,3.74,1.2,5.88-3.15,2.46-7.04,2.35-10.54,2.85-7.47,1.06-14.6,3.88-22.22,4.07-1.21.03-2.57.64-3.01-.99-.49-1.79,1.37-1.18,2.1-1.76Zm-50.61,42.25c-4.44-6.91-9.32-13.61-12.94-20.93-2.66-5.37-5.37-11.16-4.12-17.69.42-2.21.8-4.61,3.03-5.35,2.16-.71,3.96.78,5.57,2.39,4.91,4.88,7.17,11.28,9.14,17.52,2.61,8.26,3.39,16.96,3.02,25.69-.02.46-.2.92-.35,1.61-1.9-.66-2.59-2.06-3.35-3.24Zm26.25-48.12c.79-6.74,2.17-13.39,5.14-19.6,1.18-2.48,2.6-5.34,5.44-5.1,2.65.23,3,3.53,3.39,5.76.9,5.21.84,10.44-.98,15.53-2.31,6.45-4.11,13.1-7.48,19.14-.76,1.36-1.52,2.72-2.85,5.09-2.52-7.39-3.44-14.05-2.64-20.82Zm-20.54,68.69c8.37-3.26,17.15-5.12,25.97-6.65,2.6-.45,5.47-.85,8.06.81,3.42,2.18,3.39,4.32-.31,6.28-3.49,1.85-7.44,2.39-11.22,2.8-8.95.99-17.37,4.21-26.18,5.69-1.19.2-2.37.45-3.54.73-1.27.31-2.79.9-3.63-.32-.86-1.26,1-1.99,1.35-3.34,2.47-2.85,5.95-4.63,9.5-6.02Zm-46.15,7.56c-2.68-2.8-3.66-11.03-1.86-14.52,1.43-2.75,3.19-3.12,5.72-1.14,4.55,3.56,7.46,8.55,9.04,13.73,2.03,6.63,6.33,12.27,7.61,19.12.21,1.15,1,2.24-.01,3.96-6.96-7.17-13.76-14.14-20.5-21.16Zm15.12,45.54c3.64-7.45,9.73-11.99,16.93-15.49,7.62-3.71,15.16-7.28,23.96-7.18,2.58.03,3.53,1.45,4.36,3.09.85,1.7-.61,3.06-1.77,4-2.97,2.41-6.68,3.32-10.27,4.24-10.82,2.79-21.17,6.83-31.39,11.23-.54.23-1,.74-1.81.11Zm-26.38-1.26c-3.1-2.49-5.87-5.37-8.24-8.6-.65-.88-1.55-1.66-1.9-2.64-.85-2.37-2.76-4.85.16-7.21,2.73-2.2,5.39-.89,7.56.58,7.04,4.74,10.92,12.11,14.52,19.41,2.06,4.17,4.33,8.3,6.53,13.49-7.89-3.95-12.67-10.22-18.64-15.03Zm-7.48,34.56c-4.51-2.98-8.84-6.23-12.19-10.64-1.61-2.11-3.02-6.54-1.63-7.54,2.41-1.75,5.31-1.38,7.43.27,3.45,2.68,7.88,4.03,10.25,8.29,1.96,3.52,6.56,4.88,8.08,9.04,1.17,3.21,2.68,6.29,4.19,9.78-6.47-1.85-11.11-5.88-16.13-9.19Zm23.83,4.81c-.54.3-1.03.62-1.73.3,3.67-4.18,6.63-8.66,11.16-11.71,6.67-4.49,12.75-9.94,20.74-12.18,2.13-.6,4.42-1.47,5.72,1.21,1.24,2.56-.57,4.03-2.4,5.38-3.56,2.63-7.99,3.32-11.83,5.27-7.32,3.71-14.45,7.78-21.65,11.72Z"/>
    <path class="cls-1" d="m300.35,153.99c3.11-4.17,4.81-8.32,9.89-8.59,3.82-.2,6.46,3.6,5.88,7.19-1.1,6.72-6.99,7.63-11.41,10.12-2.32,1.31-3.8,2.08-3.98,5.12-.38,6.59-1.37,13.14-2.11,19.71-.1.9-.19,1.81-.41,3.85,2.04-2.85,4.01-4.18,6.15-5.2,2.27-1.08,4.71-.86,6.41.91,1.56,1.63,1.55,3.78.64,6.05-1.47,3.66-3.58,5.86-7.86,5.58-1.89-.12-3.82.6-5.75.81-1.65.18-1.86,1.41-2.04,2.59-.69,4.54-1.07,9.5-2.54,13.48-2.91,7.91-3.9,16.24-6.81,24.08-3.89,10.46-9.37,20.07-15.35,29.4-2.06,3.22-4.83,5.99-7.34,8.9-.66.77-1.49,2-2.69.98-.78-.66-1.49-1.71-1.66-2.68-.21-1.22,1.2-1.24,2.02-1.67,4-2.05,6.52-5.64,8.75-9.26,3.54-5.74,7.04-11.57,9.75-17.72,2.46-5.55,4.97-11.24,5.72-17.38.43-3.47,1.62-6.77,2.55-10.03,1-3.51-.77-4.23-2.89-4.91-4.03-1.29-6.41-4.02-8.21-7.68-1.29-2.64-2.28-5.28-.29-7.72,1.45-1.78,7.14-.43,9.2,2.01,1.56,1.84,2.88,3.9,4.56,6.21.84-3.38,3.44-6.2,1.01-9.7-.47-.67,0-1.12.52-1.5,4.57-3.39,3.27-8.74,3.71-13.13.56-5.57-.84-6.12-7.68-5.7-6.11.37-11.1-4.6-11.16-10.58-.03-2.86,1.4-3.46,3.5-3.26,5.64.53,10.6,2.66,14.69,6.72,1.05,1.05.52,2.84,2.54,4.18v-40.15c-2.98,2.02-5.85,1.21-8.57-.64-1.26-.85-2.65-1.14-4.12-1.21-5.52-.29-9.42-5.74-7.96-11.1.4-1.46,1.54-2.54,2.8-2.51,3.54.09,7.12-.33,10.05,2.93,2.31,2.56,5.51,4.32,8.01,7.66.49-4.36.89-8.18.7-12.09-.42-8.77-.71-17.55-1.05-26.33-.02-.61-.12-1.21-.14-1.82-.17-5.73-1.19-10.49-8.27-11.8-3.14-.58-5.99-3.08-8.82-4.95-3.13-2.07-4.87-5.08-4.77-8.92.09-3.47,2.19-5.22,5.68-4.93.36.03.73.06,1.09.12,2.25.37,4.86,1.59,6.63.83,1.17-.5.92-3.92,1.7-5.86.72-1.77,2.03-3.79,4-3.79,2.19,0,3.94,1.73,5.19,3.6.79,1.19,1.43,2.49,2.18,3.82,1.82-1.33,3.36-2.75,5.15-3.7,3.53-1.87,5.46-.46,6.92,3.16,3.2,7.9-1.68,12.49-6.38,17.22-2.38,2.39-4.93,4.62-7.5,6.79-1.16.98-.96,2.12-.85,3.28.84,8.94,1.64,17.88.76,26.87-.06.61-.03,1.28.75,1.4.94.14,1.25-.69,1.52-1.3,1.43-3.31,3.84-5.67,7.21-6.73,2.71-.85,5.7-1.74,7.85,1.4,1.46,2.14,2.95,4.29,1.68,7.01-1.68,3.6-4.91,5.77-8.54,5.91-3.37.13-5.61,2.78-8.82,2.78-.28,0-.87.76-.79,1.02.88,3.03-1.76,6.54,1.23,9.26.5.46.69,1.01.38,1.62-3.18,6.09-1.78,12.63-2.19,19.97Zm-.96-91.76c.24-1.5-.39-3.57-1.25-5.61-.62-1.47-1.19-3.25-3.25-2.67-1.79.5-2.68,1.98-2.58,3.93.15,2.82.76,5.51,2.03,8.05.64,1.29,1.52,2.79-.06,3.93-1.78,1.28-2.54-.74-3.5-1.54-2.2-1.84-3.88-4.32-6.52-5.62-1.34-.66-3.03-1.64-4.31-.02-1.21,1.53-1.44,3.41-.24,5.1,3.65,5.16,8.63,8.19,14.91,9.15,1.03.16,2.02-1.02,3.05.13,1.67,1.86,2.85.47,3.7-.87.87-1.37,2.16-2.25,3.2-3.4,3.25-3.57,6.43-7.16,7-12.28.14-1.3,0-2.5-.88-3.38-1.22-1.21-2.32.08-3.24.61-2.92,1.65-3.42,4.78-4,7.66-.3,1.5-.32,3.23-2.08,3.09-1.49-.12-2.16-1.82-2.31-3.35-.07-.71.15-1.44.34-2.92Zm17.14,49.23c.12-3.41-3.24-5.16-6.31-3.85-3.78,1.62-5.1,5.29-6.97,8.45-.85,1.44.27,1.9,1.62,1.6,2.1-.47,4.23-.85,6.28-1.5,2.6-.83,4.63-2.42,5.38-4.69Zm-22.16,18.99c-2.19-3.35-5.33-5.27-7.71-7.91-1.45-1.61-3.34-1.67-4.97-1.01-1.66.67-1.39,2.45-1.33,4.11.08,2.25.84,4.06,3.04,4.24,3.51.28,7.04,1.11,10.97.57Zm-.69,43.56c-2.53-4.39-6.25-6.16-10.49-7.07-.98-.21-2.26-.91-3.07.17-.88,1.17-.44,2.55.02,3.81.4,1.1,1.42,1.53,2.32,2.16,3.52,2.44,7.25-.08,11.21.93Zm-4.97,38.69c-.41-1.63-1.19-3.15-1.84-4.57-1.05-2.32-2.44-4.73-5.02-5.9-.74-.34-1.52-.87-2.31-.04-.61.64-.26,1.33-.11,2.02,1.03,4.98,3.58,7.36,9.28,8.49Zm10.46-18.01c5.47,2.21,8.44,1.17,9.52-3.11.31-1.21.11-2.14-.86-2.86-.87-.65-1.67-.42-2.64.09-2.62,1.37-4.33,3.55-6.03,5.88Zm3.72-36.25c2.93-1.63,6.1-2.88,8.29-5.48.88-1.04,2.15-2.59,1.01-3.88-1.38-1.55-2.97-.15-4.14.76-2.72,2.12-4.16,5.15-5.16,8.6Z"/>
  </g>
</svg>