<?xml version="1.0" encoding="UTF-8"?>
<svg id="_レイヤー_2" data-name="レイヤー 2" xmlns="http://www.w3.org/2000/svg" viewBox="0 0 494.84 283.08">
  <defs>
    <style>
      .cls-1 {
        fill: #babf00;
      }
    </style>
  </defs>
  <g id="_レイヤー_1-2" data-name="レイヤー 1">
    <path class="cls-1" d="m370.27,193.48c-3.95-.94-7.71.26-11.55.26-8.64,0-16.71,2.65-24.53,5.74-4.11,1.62-8.1,3.67-12.33,5.12-3.61,1.24-6.96,2.99-9.66,5.87l-1.22,1.27c-.65-.47-1.22-1.06-1.62-1.77-6.69-11.86-12.01-24.32-16.09-37.31-.23-.73-.79-1.56.34-2.38,2.51,1.5,4.51,3.77,7.36,5.01,2.83,1.23,5.13,3.61,7.77,5.32,3.11,2.01,6.24,4.04,9.54,5.71,5.39,2.73,11.32,3.31,17.25,3.45,6.06.15,12.48,1.23,16.76-4.92.83-1.19,1.89-2.21,2.87-3.29,4.69-5.18,3.72-14.94-1.9-18.69-3.84-2.56-8.14-3.75-12.64-4.72-4.97-1.07-13.23-.69-18.86.63l-11.37,1.75-.17.14c-4.51.71-10.53,2.41-13.37,3.94l-4.86.3c-.81-.79-1.43-1.81-1.74-3.06-2.36-9.71-3.78-19.55-4.34-29.53-.22-4.03.13-4.37,3.81-2.79,5.57,2.39,9.78,6.85,15.24,9.62,6.69,3.4,13.18,6.66,20.63,8.05,11.9,2.22,24.18-3.52,28.66-16.53,2.7-7.83-1.72-16.8-10.87-18.89-4.59-1.04-9.15-1.41-13.78-1.9-9.39-1.01-18.36.75-27.33,2.74-5.96,1.32-11.5,3.88-16.77,7.66-.35-8.19.54-15.7,2.37-23.15.68-2.77,1.29-3.28,3.93-1.53,6.78,4.5,13.94,8.58,22.27,9.15,10.44.71,20.7,0,30.31-5.08,5.57-2.94,10.94-10.57,10.27-15.78-.63-4.89-6.27-10.32-11.49-11.82-10.35-2.98-20.12-1.65-30.27,1.68-7.83,2.57-14.72,6.25-21.6,11.49.51-3.79.82-7.5,2.98-9.73,2.82-2.91,6.35-5.3,10.45-6.67,5.17-1.73,10.57-2.35,15.81-3.7,10.05-2.59,17.43-8.51,22.72-17.18,3.77-6.18,2.51-11.75-3.08-16.4-1.48-1.23-3.27-1.69-4.85-2.28-4.02-1.49-8.59-3.58-12.56-1.25-2.69,1.58-5.59,2.19-8.3,3.26-12.03,4.74-16.47,14.32-17.88,26.13-.31,2.57.42,5.85-.91,7.59-3.2,4.17-3.7,9.27-5.96,13.7-.47.92-.33,2.52-1.66,2.38-1.1-.12-1.9-1.12-2.06-2.59-.33-3.14-1.61-5.85-3.87-8.23l-2.52-3.09c-.04-.31-.02-.64.09-1.02v-.03s-.03.02-.06.04c.01,0,.03,0,.04,0-.12.22-.24.44-.35.65l-.29-.36c.2-.07.4-.17.61-.3-.42-.07-.8-.18-1.13-.34l-2.57-3.15c-.38-.92-.69-1.85-1.12-2.6-2.09-3.63-5.1-5.88-7.75-8.89-.04.06-.06.11-.09.16-1.74-1.81-4.37-4.24-6.1-4.53-1.59-.26-3.77-.6-5.37-.85.15-.14.31-.28.47-.45-4.17.23-8.27-1.32-11.01,2.8-.95,1.42-1.03,3.65-3.33,3.97.71,2.16-3.04,3.79-.75,6.17.19.2.2.69.13,1.01-1.5,6.21,1.04,11.49,5.25,15.26,5.67,5.07,12.42,8.61,20.33,9.58,5.14.63,10.35,1.13,15.33,2.74,2.77.9,4.22,2.51,3.53,5.74-1.82,8.44-4.12,16.84-2.94,25.64.13.96.01,2.07-.69,2.77-4.9-2.46-7.52-7.24-12.03-9.95-4.93-2.97-9.19-7.08-14.96-8.58-2.67-.69-5.34-1.37-8.01-2.06-7.68-1.99-15.15-3.71-22.47,1.73-6.27,4.66-9.05,14.96-5.3,21.77,3.63,6.6,9.23,10.21,16.38,12.15,2.44.66,4.69.03,7.02.35,5.91.79,11.85.56,17.57-1.2,6.56-2.02,12.96-4.54,19.02-7.83,2.14-1.16,3.06-1.57,3.52,1.87,1.01,7.5,1.21,15.11,3.02,22.51.71,2.92,1.18,5.91,1.69,8.88.19,1.12,1.04,2.54-.29,3.32-1.14.66-1.88-.81-2.69-1.34-.89-.58-1.67-1.39-2.73-1.68-11.73-3.22-22.7-8.84-35.3-9.47-4.92-.24-8.3.82-11.51,3.76-9.26,8.52-8.4,19.89-.2,26.4,9.45,7.5,21.12,7.6,32.26,4.3,7.12-2.11,13.54-6.29,19.25-11.28,3.11-2.72,3.56-2.52,4.64,1.34,1.86,6.64,4.41,13.01,7.52,19.16,2.64,5.21,5.3,10.4,8.06,15.8-9.13-.86-17.79-1.89-26.58-1.38-6.96.4-13.58,1.96-20.18,4.07-3.69,1.18-8.1,6.07-8.06,9.99.04,3.6.53,7.11,1.28,10.69,1.8,8.61,6.24,14.53,14.72,17.08,15.7,4.73,30.8-3.67,35.67-18.58,1.24-1.93,2.87-4.58,3.54-6.21.76-1.83,1.49-4.43,1.9-6.01.15-.35.25-.84.35-1.39.4-2.15,1.78-2.72,3.3-1.18,4.66,4.75,9.99,8.81,14.65,13.49,6.46,6.5,13.78,11.73,21.31,16.75,2.51,1.68,5.3,2.95,8.01,4.31,1.05.52,2.36.51,2.76-.79.28-.94-.51-1.66-1.54-2.12-16.29-7.33-29.07-19.3-41.58-31.62-.64-.63-1.99-1.13-1.26-2.26.61-.93,1.81-.3,2.73-.17,6.13.87,12.01,2.74,17.81,4.77,9.86,3.44,19.92,4.01,29.95,1.63,5.58-1.33,11.03-3.42,14.03-9.4,4.71-9.37,1.37-16.9-8.84-19.33Zm-79.8-72.71c5.68-3.7,12.09-5.42,18.68-6.49,10.9-1.77,21.86-2.24,32.76-.14,11.06,2.13,12.52,12.67,6.57,21.45-1.19,1.76-2.57,3.43-4.02,4.99-3.87,4.14-9.33,4.05-13.79,5.2-8.12-.43-14.98-3.19-21.47-6.9-6.56-3.76-12.97-7.78-19.43-11.72-2.35-1.43-2.06-4.59.7-6.39Zm48.53-86.63c1.78,1.26,3.07,3.13,2.93,5.55-.15,4.57-2.53,8.48-5.22,11.62-3.2,3.74-6.88,7.28-11.92,9.13-7.24,2.66-14.46,5.22-22.07,6.62-.79.14-1.69.89-2.19-.25-.47-1.07.69-1.41,1.24-1.96,4.67-4.68,9.32-9.38,14.07-13.97,5.89-5.69,11.9-11.26,19.02-15.43,1.26-.74,2.59-2.41,4.14-1.31Zm-38.54,18.69c1.29-12.59,17.59-22.41,27.87-23.32,2.08-.19,4.26.59,6.39.92.17.3.34.59.51.89-14.42,7.57-23.89,20.6-35.76,31.65-1.29-3.7.66-6.87,1-10.14Zm-1.43,29.83c4.6-2.48,9.56-4.57,14.1-6.93,6.71-3.49,13.46-3.3,20.21-3.48,6.07-.16,12.27,1.14,16.42,6.63.52.69,1.12,1.27.9,2.31-9.68.41-19.2,2.06-28.77,3.5-9.45,1.42-18.82,3.91-29.01,3.78,1.63-2.91,3.95-4.63,6.15-5.82Zm37.3,2.03c4.45-.67,8.89-.74,13.38-.36,2.05.18,1.8,1.12,1.39,2.31-.95,2.8-2.41,5.29-4.64,7.29-5.57,4.98-12.09,7.41-19.55,7.69-5.58.21-11.18.92-16.63-.72-6.56-1.96-12.91-4.46-19.09-9.11,15.87-1.32,30.4-4.88,45.14-7.1Zm-56.44-1c-5.94-.53-11.77-1.72-17.49-3.24-7.58-2.02-14.71-4.88-17.79-13.25-1.05-2.85-.93-5.69-1.11-8.56-.33-5.42,3.85-10.76,9.13-11.34.41-.05.77-.12,1.1-.23,1.92,0,4.45.36,6.46,1.86,2.21,1.66,4.82,2.9,6.59,3.64.06.15.15.27.25.4,3.09,4.15,6.17,8.3,9.26,12.45l3.24,4.28c3.94,4.81,3.94,11.34,7.15,16.61-2.36-.92-4.37-2.41-6.78-2.63Zm-27.44,50.57c-2.83.28-5.89,1.31-8.43,1.01-5.35-.65-11.09-.5-15.75-4.32-4.53-3.71-7.44-8.06-7.72-14.07-.13-2.81,1.66-2.8,3.29-2.42,8.63,1.97,17.44,2.69,26.21,3.42,9.24.77,17.88,3.48,27.17,7.02-7.93,5.21-15.87,8.5-24.77,9.37Zm-32.96-22.5c3.7-4.34,7.31-8.85,12.67-11.4.58-.28,1.41-.05,2.12-.04,9.57.17,18.45,2.89,26.75,7.52,4.83,2.69,9.12,6.21,13.1,10.01,1.85,1.77,3.98,3.04,5.89,5.13-19.37-8.15-40.38-7.17-60.53-11.23Zm67.79,57.76c-7.2,7.1-15.71,11.88-25.29,14.91-.98.31-1.84.42-2.82-.03-4.66.41-9.3.22-13.96-.73-6.38-1.29-12.01-6.67-13.27-13.12-.95-4.86,2.87-12.13,7.3-15.57,4.59-3.56,9.45-2.24,13.9-1.04,8.82,2.37,17.43,5.52,26.04,8.62,2.8,1.01,5.31,2.83,7.95,4.29,1.44.8,1.38,1.44.15,2.66Zm63.54,12.64c-3.68,6.12-9.68,4.52-15.19,4.79-10.75.53-18.96-5.35-27.44-10.59-3.44-2.12-6.87-4.25-10.3-6.37.09-.3.17-.6.26-.9,8.7,1.15,17.53.83,26.12,3.13,7.49,2,15.19,2.32,22.89,2.75,2.31.13,5.49-.85,6.56,1.76.81,1.98-1.81,3.62-2.89,5.42Zm-31.54-22.65c-.77.27-1.44.57-1.98.89,4.61-.36,8.79-.35,12.84-1.08,4.45-.8,8.59.53,12.87.94,5.06.49,10.12,4.92,11.66,9.82.63,2.01.35,2.39-1.52,2.22-7.53-.68-15.29-.29-22.59-1.74-11.59-2.3-23.23-2.92-34.9-3.97-.45-.04-.89-.15-1.31-.28l1.98-.81c4.21-.62,8.04-1.91,11.8-3.12l-.02.02,11.18-2.89Zm-62.21,79.59c-1.06-3.02-2.64-5.96-3.37-8.93-.7-2.86.22-6.42,1.34-9.32,1-2.6,3.06-4.81,6.13-5.73,7.64-2.28,15.42-3.1,23.37-3.21,7.47-.11,14.83.31,22.04,2.4.22.06.41.22,1.14.64-6.44,3.74-12.71,6.76-18.79,10.15-4.64,2.59-9.22,5.28-13.61,8.19-4.77,3.16-10.36,4.66-14.93,8.19-2.14,1.66-2.86-1.06-3.32-2.38Zm47.31-12.07c-.7,1.51-1.32,3.28-1.8,4.81-2.17,2.38-3.11,5.25-5.06,7.39-9.39,10.31-20.28,14.49-33.64,7.02-2.34-1.31-2.46-2.07-.17-3.64,4.26-2.93,9.23-4.44,13.41-7.67,7.95-6.13,17.48-9.68,26.1-14.75,1.06-.62,2.34-1.51,3.52.04.4.52.72.84.98.98-1,1.53-2.4,3.79-3.36,5.83Zm69.24-11.23c-7.13,6.24-16.07,5.5-24.58,5.34-7.4-.14-14.16-3.78-21.36-5.35-4.34-.95-8.59-2.19-13.05-2.68-.59-.07-1.2-.22-1.81-.44.81-1.06,1.6-2.15,1.6-2.15,3.17-2.02,6.54-3.58,10.07-4.93,8.32-3.17,16.58-6.52,25.26-8.59,5.51-1.32,11.2-1.54,16.81-1.41,3.77.09,7.75.85,9.85,4.99,2.48,4.89,1.58,11.4-2.79,15.22Z"/>
    <path class="cls-1" d="m227.72,78.71c-.4-.97-1.53-.66-2.27-.56-3,.41-5.98.99-8.96,1.5-10.37,1.75-20.41,4.93-29.59,9.82-7.94,4.23-15.43,9.57-21.45,16.57-.4.47-.5,1.61-1.51,1.16-.72-.32-.75-.99-.62-1.84,1.44-9.67,3.5-19.19,6.37-28.54.67-2.17,1.92-2.55,3.74-2.53,11.76.15,20.53-5.89,27.94-14.11,7.37-8.18,12.54-17.83,16.65-28.02.34-.83,1.42-1.75.62-2.64-.88-.97-2.02-.23-3.03.18-3.28,1.31-6.57,2.62-9.85,3.93,2.74-3.87,5.42-7.46,6.93-11.77.32-.91.94-1.93,0-2.68-.78-.63-1.59.13-2.31.54-2.38,1.36-4.75,2.74-7.66,4.42.86-2.6,1.66-4.59,2.15-6.66.22-.94,1.1-2.33-.11-2.96-.86-.44-2.16-.01-3.1.65-2.15,1.5-4.29,3.02-6.88,4.85,1.07-4.26,2.05-7.98,2.9-11.73.23-1,.72-2.33-.31-3.06-1.21-.84-1.9.4-2.7,1.12-3.61,3.31-7.26,6.59-11.19,10.16-.62-2.96.15-5.54.21-8.12.03-1.09.73-2.7-.92-3.14-1.32-.36-2.22.78-2.95,1.77-1.47,2-2.89,4.03-4.68,6.54-.24-3.93,0-7.1,1.26-10.17.43-1.05,1.82-2.56.52-3.2-1.41-.7-2.49.95-3.25,2.22-.31.52-.56,1.09-.89,1.59-3.32,5.06-6.64,10.11-10.14,15.42-.59-1.21-1.2-2.01-1.37-2.9-.83-4.31-3.57-7.72-5.39-11.55-.45-.94-1.09-2.13-2.38-1.88-.99.19-1.53,1.26-1.7,2.2-.47,2.59-2.21,4.89-1.55,7.74.32,1.4-.52,2.84-1.52,3.47-2.15,1.33-2.4,3.38-2.42,5.38-.1,10.7.97,21.21,3.93,31.6,2.23,7.81,6.34,14.18,13.22,17.86,4.72,2.52,3.53,5.27,2.49,8.56-1.67,5.3-3.72,10.62-4.01,16.11-.59,11.03-2.55,21.93-2.64,33.84-3.93-5.47-7.16-10.38-10.82-14.98-.71-.89-1.36-1.5-2.03-1.79l-2.11-1.58c-.01-1.07-.82-1.99-1.93-2.87-.89-.71-1.8-1.4-2.77-1.96l-3.4-2.51c.07-.36.04-.57-.44-.33l-.98-.72c.09-.07.18-.15.3-.23-.68-.39-1.05-.57-1.39-.8-2.23-1.54-4.49-2.99-6.13-5.28-.63-.89-1.96-1.32-3.02-1.87l-10.35-5.65c.09-.03.18-.06.28-.1-3.71-1.74-6.64-4.59-10.29-6.4-1.17-.58-2.35-1.45-3.19-.42-.89,1.09.37,2.25,1.1,3.13,5.42,6.45,10.61,13.13,16.43,19.21,4.79,5.01,10.79,8.88,15.73,13.68,6.15,5.98,13.63,9.44,20.87,13.34,3.09,1.67,4.27,3.2,4.42,6.44.55,11.51-.09,23.09,2.27,34.57-1.47-.15-2.65-.51-3.41-1.54-1.83-2.48-4.56-3.54-7.22-4.69-1.88-.81-4.06-1.07-5.74-2.16-7.36-4.78-16.07-6.04-23.92-9.5-5.94-2.62-12.41-2.26-18.56-3.65-1.2-.27-2.35-.86-3.15.58-.87,1.56.57,2.27,1.39,2.92,3.24,2.58,5.99,5.65,8.95,8.53,6.12,5.95,13.52,9.49,21.82,11.39,9.17,2.1,18.36,4,27.72,5.06,3.02.34,4.19,2.03,4.61,4.98,1.39,9.64,4.17,18.96,7.24,28.18,1.14,3.42,1.45,4.05-.91,4.11l-1.37-1.21c.05-.34-.09-.6-.66-.58-3.41.09-5.38-2.63-8.16-3.57-2.34-.79-4.92-.8-7.33-1.4-8.15-2.03-15.86-5.49-24.37-6.44-6.29-.7-12.36.09-18.49.83-1.59.19-2.74,1.38-1.06,2.68,5.05,3.91,9.62,8.38,15.85,10.81,5.49,2.14,11.28,2.74,16.84,4.44,4.87,1.49,10.07,2.3,15.29,2.49,4.76.17,9.42-.79,14.12-1.2,2.44-.21,3.67.18,4.59,2.72,1.52,4.2,3.19,8.48,5.64,12.15,2.45,3.67,5.11,7.19,7.17,11.23-1.65.52-3.15.67-4.92.51-4.17-.36-8.23-1.23-12.35-1.82-8.91-1.3-17.82-2.55-26.69-4.19-4.77-.88-9.97-1.69-14.14,2.3-.5.48-1.38.77-1.18,1.66.2.93.97,1.31,1.86,1.52,4.49,1.07,8.66,2.96,12.87,4.81,5.29,2.33,10.6,4.87,16.17,6.22,9.13,2.2,18.3,2.23,26.63-3.3.7-.46,1.6-.63,2.3-1.09,2.09-1.39,3.53-.63,4.89,1.17,6.07,8.06,13.43,14.8,21.58,20.7.59.43,1.09.99,1.71,1.36,1,.6,2.17.86,3.02-.1,1.07-1.22-.14-1.95-.88-2.68-.43-.42-.97-.72-1.46-1.08-7.92-5.65-15.05-12.13-20.94-19.93-1.47-1.95-1.95-3.65-.89-5.99,1.3-2.87,2.17-5.94,3.29-8.89.04-.11.08-.23.12-.34.84-1.87,5.71-8.86,6.89-12.14,1.26-3.53,4.87-15.09,4.45-15.74-.01-.72-.1-1.45-.18-2.46,1.51-1.88-1.14-3.5-.7-5.64.43-2.08-.76-2.62-2.59-1.8-1.1.49-2.17,1.05-3.25,1.59-.5.25-1.34.44-.98,1.17,0,0-1.28,1.07-2.79,2.2s-4.41,7.18-6.05,9.58c-1.27,1.85-2.61,6.18-3.41,9.31-.41.68-.52,1.51-.56,2.36-.43,2.02-1.09,7.34-1.4,9.94-.17.13-.34.29-.51.51-2.22,2.68-2.67.25-3.24-.68-4.59-7.54-7.82-15.69-10.04-24.2-2.13-8.19-1.89-8.14,5.84-12.48,5.47-3.07,10.11-6.98,13.92-12.21,4.84-6.64,9.78-13.23,14.69-19.83.83-1.12,2.65-1.96,1.96-3.55-.79-1.82-2.57-.37-3.9-.52-.46-.05-1.02-.1-1.4.1-7.51,3.92-15.25,7.47-21.4,13.53-5.92,5.84-9.79,13.09-13.83,20.38-4.01-9.69-3.96-20.08-6.36-29.94-.3-1.25.43-2.12,1.82-2.14,1.09-.01,2.1-.2,3.17-.5,6.03-1.69,11.03-5.45,16.45-8.29,9.09-4.78,15.32-12.97,22.01-20.53,3.86-4.35,6.59-9.6,10.97-13.53.7-.62,2.25-1.22,1.44-2.49-.6-.95-1.92-.75-3.05-.58-4.21.64-8.12,2.18-12.04,3.78-10.56,4.32-19.66,10.96-28.24,18.25-5.07,4.31-9.66,9.24-14.48,15.18-.29-7.9-.75-14.89-.69-21.88.02-2.82.95-5.39.19-8.5-.88-3.59.24-7.64.29-11.5.03-1.9.98-2.7,2.6-2.85,6.25-.55,11.41-3.9,16.84-6.5,7.11-3.4,14.59-6.32,21.06-10.7,7.86-5.32,15.53-10.96,23.4-16.3.86-.59,1.59-1.36,1.15-2.41Zm-18.73-55.19c-3.52,5.64-6.7,10.82-11.13,15.07,1.65-6.33,4.02-12.1,11.13-15.07Zm-26.53-.41c2.69-4.83,6.21-9.65,11.45-12.97-.66,11.05-5.41,19.5-14.36,25.61,1.39-4.05.93-9.08,2.91-12.64Zm-16.8-3.45c2.06-2.93,3.7-6.15,5.71-9.54,2.13,6.34-.51,16-5.44,20.86-1.78-3.77-3.04-7.37-.28-11.32Zm-9.23,41.88c-1.73-2.67-3.61-5.31-4.17-8.89,1.57.48,2.05,3.03,3.59,1.88.5-.37-.19-2.52-.52-3.8-1.52-5.81-4.56-11.42-3.92-17.53.88-8.34.71-16.81,2.85-25.29,1.39.85,2.35,1.78,2.67,3.29.95,4.5,2.35,8.97,3.49,13.35.98,3.8,1.95,7.71,2.85,11.62.53,2.3,2.06,2.24,3.26.37,1.7-2.66,2.89-5.71,4.89-8.09,4.48-5.33,4-13.04,9.25-18.13,1.06,2.6.3,5.24-.16,7.63-1.32,6.88-1.97,13.9-4.13,20.6-.44,1.36-.71,2.94.66,3.59,1.29.61,2.07-.98,2.84-1.82,2.21-2.43,4.23-5.03,6.45-7.44,1.22-1.32,2.18-3.24,4.75-2.22,1.26.5,2.05-1.03,2.05-2.03-.02-6,5.23-7.34,8.36-10.54l.82.48c-1.6,4.63-3.14,9.28-4.82,13.88-1.46,4.02-3.95,7.44-6.6,10.76-.55.68-1.72,1.27-.56,2.38.98.94,1.81.29,2.59-.28,1.37-1,2.62-2.2,4.07-3.06,1.1-.65,2.28-2.41,3.73,0,.74,1.23,2,.21,1.85-.84-.46-3.21,1.69-4.2,3.93-5.22,2.62-1.2,5.25-2.38,8.78-3.98-1.45,3.57-2.28,6.45-3.73,8.97-2.96,5.15-6.09,10.21-9.45,15.1-4.83,7.04-11.75,11.46-19.57,14.52-9.03,3.53-20.48-.57-26.09-9.25Zm-3.65,64.85c-.22.16-.77.16-.99,0-3.92-2.99-8.93-4.1-12.6-7.61-3.43-3.27-7.16-6.34-10.82-9.21-5.89-4.61-10.45-10.29-15.45-15.61-1.35-1.44-3.75-2.7-3.56-5.4,1.46-.05,2.64.84,4,.84l9.78,6.92c.16.15.35.28.55.39,3.3,1.81,6.4,3.88,8.99,6.66,0,0,.92.81,2.02,1.75.15.48.93.86,1.24,1.25,2.18,2.72,5.79,3.98,7.46,7.24.12-.14.22-.27.32-.41.05.05.1.1.15.15-.15.08-.3.16-.46.26,0,0,0,0,0,0,0,0,0,0,0,0h0s0,0,0,0h0c2.95,1.11,3.29,4.76,5.81,6.13,2.28,1.24,2.09,3.85,3.68,5.39.38.36.34.95-.1,1.27Zm-26.12,43.04c-6.62-2.16-12.22-6.25-16.7-11.69-.98-1.19-1.9-2.42-2.64-3.36,9.05-.5,46.5,15.17,52.01,22.16-11.2-1.64-22.12-3.67-32.67-7.11Zm30.3,86.45c-6.2-2.02-11.82-5.29-17.95-7.39-1.08-.37-1.89-.92-3.35-2.56,17.58,3.54,34.49,4.89,51.68,7.43-9.95,7.15-19.98,5.92-30.39,2.52Zm40.66-41.17c1.76-3.78,7.16-8.21,7.16-8.21,2.07-.99,2.07.45,2.38,1.77.35,1.52.38,3.02.32,4.56-.03.63-.25,1.64.27,2-.47,2.71-1.25,6.78-2.18,9.71-1.27,4.03-5.89,12.43-7.31,14.98-.28.2-.47.49-.42.75.56,3.47-3.18,4.54-3.72,8.1-1.39-2.67-1.8-4.67-2.08-6.82-.09-.71-.36-1.51-.76-2.08.23-2.28.94-7.02,1.36-9.78,1.03-.82,1.12-1.97.73-3.35.85-2.6,2.9-8.7,4.27-11.63Zm-24.85,5.43c-.21,1.01-1.05,1.05-1.98,1.15-11.05,1.22-21.77.17-32.59-2.7-6.32-1.68-12.13-3.99-17.87-6.91-2.36-1.2-3.71-3.35-6.2-5.16,6.79-1.74,12.93-.74,18.98.67,9.26,2.15,18.36,4.96,27.67,6.93,2.63.56,4.9,2.4,7.64,2.86l.1.09c.41,1.23,1.59,1.52,2.58,2.09.56.32,2.02-.67,1.67.99Zm12.41-36.77c5.67-6.72,13.21-10.56,21.64-15.07-9.39,15-17.91,29.48-34.22,37.31,3.01-8.22,6.98-15.61,12.58-22.24Zm-19.99-22.04c8.46-12.12,19.55-20.99,32.03-28.58,4.59-2.79,9.67-4.4,14.18-7.23.99-.62,1.95-.78,3.23-.33-7.09,9.09-12.83,19.04-21.67,26.51-4.76,4.02-10.18,6.94-15.68,9.71-2.54,1.28-4.94,3.01-8,3.26-1.14.09-2.21.09-3.15-.38-1.15-.57-2.72-.41-.94-2.96Zm-.82-48.99c14.03-19.34,33.84-27.09,55.67-31.3-3.35,7.58-46.64,32.39-55.67,31.3Z"/>
    <path class="cls-1" d="m41.01,157.72c3.11-4.17,4.81-8.32,9.89-8.59,3.82-.2,6.46,3.6,5.88,7.19-1.1,6.72-6.99,7.63-11.41,10.12-2.32,1.31-3.8,2.08-3.98,5.12-.38,6.59-1.37,13.14-2.11,19.71-.1.9-.19,1.81-.41,3.85,2.04-2.85,4.01-4.18,6.15-5.2,2.27-1.08,4.71-.86,6.41.91,1.56,1.63,1.55,3.78.64,6.05-1.47,3.66-3.58,5.86-7.86,5.58-1.89-.12-3.82.6-5.75.81-1.65.18-1.86,1.41-2.04,2.59-.69,4.55-1.07,9.5-2.54,13.48-2.91,7.91-3.9,16.24-6.81,24.08-3.89,10.46-9.37,20.07-15.35,29.4-2.06,3.22-4.83,5.99-7.34,8.9-.66.77-1.49,2-2.69.98-.78-.66-1.49-1.71-1.66-2.68-.21-1.22,1.2-1.24,2.02-1.67,4-2.05,6.52-5.64,8.75-9.26,3.54-5.74,7.04-11.57,9.75-17.72,2.46-5.55,4.97-11.24,5.72-17.38.43-3.47,1.62-6.77,2.55-10.03,1-3.51-.77-4.23-2.89-4.91-4.03-1.29-6.41-4.02-8.21-7.68-1.29-2.64-2.28-5.28-.29-7.72,1.45-1.78,7.14-.43,9.2,2.01,1.56,1.84,2.88,3.9,4.56,6.21.84-3.38,3.44-6.2,1.01-9.7-.47-.67,0-1.12.52-1.5,4.57-3.39,3.27-8.74,3.71-13.13.56-5.57-.84-6.12-7.68-5.7-6.11.37-11.1-4.6-11.16-10.58-.03-2.86,1.4-3.46,3.5-3.26,5.64.53,10.6,2.66,14.69,6.72,1.05,1.05.52,2.84,2.54,4.18v-40.15c-2.98,2.02-5.85,1.21-8.57-.64-1.26-.86-2.65-1.14-4.12-1.21-5.52-.29-9.42-5.74-7.96-11.1.4-1.46,1.54-2.54,2.8-2.51,3.54.09,7.12-.33,10.05,2.93,2.31,2.56,5.51,4.32,8.01,7.66.49-4.36.89-8.18.7-12.09-.42-8.77-.71-17.55-1.05-26.33-.02-.61-.12-1.21-.14-1.82-.17-5.73-1.19-10.49-8.27-11.8-3.14-.58-5.99-3.08-8.82-4.95-3.13-2.07-4.87-5.08-4.77-8.92.09-3.47,2.19-5.22,5.68-4.93.36.03.73.06,1.09.12,2.25.37,4.86,1.59,6.63.83,1.17-.5.92-3.91,1.7-5.86.72-1.77,2.03-3.79,4-3.79,2.19,0,3.94,1.73,5.19,3.6.79,1.19,1.43,2.49,2.18,3.82,1.82-1.33,3.36-2.75,5.15-3.7,3.53-1.87,5.46-.46,6.92,3.16,3.2,7.9-1.68,12.49-6.38,17.22-2.38,2.39-4.93,4.62-7.5,6.79-1.16.98-.96,2.12-.86,3.28.84,8.94,1.64,17.88.76,26.87-.06.61-.03,1.28.75,1.4.94.14,1.25-.69,1.52-1.3,1.43-3.31,3.84-5.67,7.21-6.73,2.71-.85,5.7-1.74,7.85,1.4,1.46,2.14,2.95,4.29,1.68,7.01-1.68,3.6-4.91,5.77-8.54,5.91-3.37.13-5.61,2.78-8.82,2.78-.28,0-.87.76-.79,1.02.88,3.03-1.76,6.54,1.23,9.26.5.46.69,1.01.38,1.62-3.18,6.09-1.78,12.63-2.19,19.97Zm-.96-91.76c.24-1.5-.39-3.57-1.25-5.61-.62-1.47-1.19-3.25-3.25-2.67-1.79.5-2.68,1.98-2.58,3.93.15,2.82.76,5.51,2.03,8.05.64,1.29,1.52,2.79-.06,3.93-1.78,1.28-2.54-.74-3.5-1.54-2.2-1.84-3.88-4.32-6.52-5.62-1.34-.66-3.03-1.64-4.31-.02-1.21,1.53-1.44,3.41-.24,5.1,3.65,5.16,8.63,8.19,14.91,9.15,1.03.16,2.02-1.02,3.05.13,1.67,1.86,2.85.47,3.7-.87.87-1.37,2.16-2.25,3.2-3.4,3.25-3.57,6.43-7.16,7-12.28.14-1.3,0-2.5-.88-3.38-1.22-1.21-2.32.08-3.24.61-2.92,1.65-3.42,4.78-4,7.66-.3,1.5-.32,3.23-2.08,3.09-1.49-.12-2.16-1.82-2.31-3.35-.07-.71.15-1.44.34-2.92Zm17.14,49.23c.12-3.41-3.24-5.16-6.31-3.85-3.78,1.62-5.1,5.29-6.97,8.45-.85,1.44.27,1.9,1.62,1.6,2.1-.47,4.23-.85,6.28-1.5,2.6-.83,4.63-2.41,5.38-4.69Zm-22.16,18.99c-2.19-3.35-5.33-5.27-7.71-7.91-1.45-1.61-3.34-1.67-4.97-1.01-1.66.67-1.39,2.45-1.33,4.11.08,2.25.84,4.06,3.04,4.24,3.51.28,7.04,1.11,10.97.57Zm-.69,43.56c-2.53-4.39-6.25-6.16-10.49-7.07-.98-.21-2.26-.91-3.07.17-.88,1.17-.44,2.55.02,3.81.4,1.1,1.42,1.53,2.32,2.16,3.52,2.44,7.25-.08,11.21.93Zm-4.97,38.69c-.41-1.63-1.19-3.15-1.84-4.57-1.05-2.32-2.44-4.73-5.02-5.9-.74-.34-1.52-.87-2.31-.04-.61.64-.26,1.33-.11,2.02,1.03,4.98,3.58,7.36,9.28,8.49Zm10.46-18.01c5.47,2.21,8.44,1.17,9.52-3.11.31-1.21.11-2.14-.86-2.86-.87-.65-1.67-.42-2.64.09-2.62,1.37-4.33,3.55-6.03,5.88Zm3.72-36.25c2.93-1.63,6.1-2.88,8.29-5.48.88-1.04,2.15-2.59,1.01-3.88-1.38-1.55-2.97-.15-4.14.76-2.72,2.12-4.16,5.15-5.16,8.6Z"/>
    <g>
      <path class="cls-1" d="m447.25,213.69c3.21-5.96,6.8-10.88,11.46-15,3.79-3.35,7.83-5.48,13.11-4.44,2.66.53,4.48,1.93,5.3,4.4,2.18,6.55,1.67,10.36-3.51,13.37-4.26,2.48-8.54,4.82-13.17,6.72-3.16,1.3-6.74,2.01-9.66,4.39-3.42,2.8-5.34,9.18-2.61,12.7,2.14,2.75,2.01,4.74.03,7.72-2.02,3.04-1.03,7.1-.7,10.62.44,4.69-1.38,9.05-1.27,13.63.02.85-.41,1.07-1.07,1.06-1.05-.02-1.6-.67-1.53-1.64.14-1.91.27-3.84.64-5.71,1-5.18.31-10.35.09-15.52-.38-8.98-5.43-14.95-13.02-18.8-6.41-3.25-13.06-6-16.23-13.14-1.01-2.29-2.63-4.68-.45-7.06,2.46-2.69,5.26-4.34,9.26-3.1,6.06,1.88,9.84,6.38,13.41,11.11,2.08,2.76,3.73,5.85,5.86,9.24,1.17-11.04.23-21.55.11-32.05,0-.76-.44-1.09-.88-1.44-7.25-5.7-15.14-9.86-24.28-11.99-8.41-1.96-11.31-9.59-8.11-17.32.61-1.46,2.08-2.29,3.82-2.39,5.27-.28,10.37.55,13.94,4.65,4.11,4.72,8.91,8.76,13.01,13.78,1.55-.86,1.84-2.26,1.78-3.91-.39-9.29-.77-18.57-1.1-27.86-.08-2.2-.78-3.25-3.26-3.14-4.1.17-8.24-.38-12.32-.03-5.55.48-10.28-2.44-15.53-3.14-10.98-1.47-14.39-10.81-18.6-18.95-1.52-2.94.27-6.47,1.54-9.41,1.76-4.08,2.31-8.9,6.44-11.7.53-.36.96-.69.21-1.36-1.25-1.12.74-1.82.46-2.85,4.57.05,6.21-4.18,9.01-6.53,3.97-3.34,8.42-5.72,13.06-7.56,7.87-3.12,16.12-5.85,24.62-5.42,12.1.62,24.17,2.62,34.69,9.14,8.84,5.48,12.91,14.08,13,24.45.01,1.48-.73,3.01-1.31,4.45-3.74,9.18-10.49,15.49-19.25,19.74-5.08,2.46-10.17,5.05-15.52,6.72-2.61.81-5.49,1.72-8.47,1.49-2.7-.21-5.12,1-4.81,3.93.71,6.69-.59,13.37.33,20.1,1.58.16,1.72-1.36,2.32-2.26,3.91-5.91,8.73-10.5,15.72-12.8,5.07-1.68,9.19-.76,12.96,2.68,3.53,3.22,3.8,7.49,3.16,11.75-.56,3.71-4.26,4.77-6.9,6.47-3.48,2.23-7.7,2.98-11.72,2.99-4.8.02-9.23,1.47-13.67,2.68-2.74.75-2.6,4.54-2.42,6.55.83,9.36.38,18.76,1.17,28.11.04.44.35.85.82,1.91Zm-47.23-88.82c2.13-.4,3.53.31,4.86,1.91,1.12,1.35,2.58,2.43,4.27,3.29,6.66,3.38,13.95,3.39,21.06,4.49,5.39.83,11.32-1.34,16.16,2.8.29.25,1.43.07,1.67-.27,1.53-2.11,4.08-1.88,6.11-2.76,3.92-1.69,8.35-1.46,12.34-2.77,4.55-1.49,8.36-4.37,12.21-7.29,8.41-6.39,9.45-15.43,10.06-24.78.06-.85-.31-1.93-.86-2.58-2.52-2.95-4.96-6.02-7.83-8.6-6.44-5.76-14.76-6.84-22.81-8.24-3.52-.61-6.99-1.48-10.68-1.6-6.94-.24-12.9,3-19.38,4.25-6.3,1.21-11.3,5.26-16.23,8.82-4.09,2.95-7.3,7.44-10.09,11.77-3.14,4.87-5.5,10.3-1.22,16,.72.95,1.01,2.21,1.65,3.23,1.03,1.65-.6,1.55-1.3,2.34Zm76.76,36.74c.12-5.2-7.1-9.55-12.04-7.2-3.8,1.81-6.74,4.79-9.89,7.49-2.74,2.35-2.89,6.46-6.04,8.5-.73.47.34.6.42.95.2.93.64,1.06,1.55.74,5.38-1.9,11.03-1.77,16.61-2.16,4.98-.35,9.29-4.23,9.39-8.32Zm-28.27,57.15c5.17-1.99,10.34-3.06,15.03-5.29,4.8-2.28,10.7-3.3,10.86-10.85.06-2.75-.78-4.44-2.57-5.03-2.54-.83-5.87-1.37-7.92.77-2.86,2.98-7.03,4.49-8.92,8.59-1.87,4.07-4.3,7.88-6.49,11.81Zm-32.65-56.28c-.86.03-1.93.98-2.58,2.51-2,4.66.55,9.34,5.83,10.86,7.84,2.25,15.62,4.65,21.5,10.8.38.4.87.49,1.29.23.66-.41.59-1.27.19-1.57-1.33-.98-1.24-2.66-2.16-3.85-4.2-5.44-8.94-10.41-14.58-14.23-2.8-1.89-5.65-4.21-9.49-4.75Zm24.85,65.63c-2.78-6.71-5.91-13.16-11.2-18.35-1.93-1.89-4.33-2.62-6.72-3.29-2.47-.68-5.17,1.06-5.02,3.04.27,3.52,1.65,6.3,4.81,8.39,5.76,3.81,12.3,6.23,18.13,10.2Zm-29.88-94.06c-2.74-1.16-4.68-4.11-8.69-4.03,3.06,1.89,4.96,4.74,8.69,4.03Z"/>
      <path class="cls-1" d="m471.12,104.04c.93,2.49-.5,4.11-.63,5.86,1.16.72,1.25-1.1,2.41-.52-.66,2.82-2.51,4.75-4.3,6.99-5.22,6.53-13.2,6.86-20.04,9.72-2.69,1.12-5.69.13-8.57-.02-7.39-.4-14.69-1-21.64-3.85-8.55-3.5-10.21-8.07-5.69-16.73.67-1.28,1.44-2.43,1.72-3.87.27-1.38,1.07-2.39,2.34-3.07,10.69-5.7,22.22-8.02,34.2-8.34,8.06-.22,14.98,2.9,21.14,7.92,1.48,1.2,2.63,6.99,1.79,8.67-.24.48-.56.82-1.1.68-.51-.13-.88-.57-.59-1.08.4-.7.67-1.29-1.03-2.35Zm-52.78,4.04c-1.3,9.27,11.98,16.2,22.98,12.05-.2-1.59-2.14-.65-3.01-1.74,3.12-.73,5.57,1.45,8.44.6,1.73-.51,3.14-1.79,5.07-1.79,6.17,0,10.17-3.95,13.93-8.07,1.85-2.03,2.44-4.74.27-6.91-1.76-1.76-3.77-3.51-6.3-4.16-8.62-2.23-17.14-1.05-25.65.8-3.3.72-5.56,3.23-8.45,4.64-1.51.74-3.21,1.31-4.21,2.69-1.38,1.89,1.32,3.02,1.42,4.84-2.29-.11-2.48-2.89-4.5-2.95Z"/>
      <path class="cls-1" d="m427.91,114.69c3.18.41,5.5,1.61,7.86,2.7.5.23,1.26.4.84,1.22-.32.62-.95.77-1.53.41-2.19-1.36-5.1-1.46-7.16-4.32Z"/>
    </g>
  </g>
</svg>