<?xml version="1.0" encoding="UTF-8"?>
<svg id="_レイヤー_2" data-name="レイヤー 2" xmlns="http://www.w3.org/2000/svg" xmlns:xlink="http://www.w3.org/1999/xlink" viewBox="0 0 1400 89.3">
  <defs>
    <style>
      .cls-1, .cls-2 {
        fill: none;
      }

      .cls-3 {
        fill: url(#linear-gradient);
      }

      .cls-4 {
        fill: #f6e4a9;
      }

      .cls-5 {
        fill: #69b64f;
      }

      .cls-6 {
        fill: #67b54e;
      }

      .cls-7 {
        fill: #66b44d;
      }

      .cls-8 {
        fill: #90c766;
      }

      .cls-9 {
        fill: #6ab751;
      }

      .cls-10 {
        fill: #7cc05a;
      }

      .cls-11 {
        fill: #6ab64f;
      }

      .cls-12 {
        fill: #64b24b;
      }

      .cls-13 {
        fill: #6bb750;
      }

      .cls-14 {
        fill: #96c969;
      }

      .cls-15 {
        fill: #98ca69;
      }

      .cls-16 {
        fill: #97ca69;
      }

      .cls-17 {
        fill: #7ec15b;
      }

      .cls-18 {
        fill: #8ac561;
      }

      .cls-19 {
        fill: #9bcb6b;
      }

      .cls-20 {
        fill: #9ecd6c;
      }

      .cls-21 {
        fill: #9ecc6b;
      }

      .cls-22 {
        fill: #91c765;
      }

      .cls-23 {
        fill: #9fcd6d;
      }

      .cls-24 {
        fill: #83c25d;
      }

      .cls-25 {
        fill: #92c866;
      }

      .cls-26 {
        fill: #84c35f;
      }

      .cls-27 {
        fill: #89c461;
      }

      .cls-28 {
        fill: #89c349;
      }

      .cls-29 {
        fill: #9ccc6b;
      }

      .cls-30 {
        fill: #b6d15b;
      }

      .cls-31 {
        fill: #a0cd6e;
      }

      .cls-32 {
        fill: #8ec663;
      }

      .cls-33 {
        fill: #8fc765;
      }

      .cls-34 {
        fill: #8fc764;
      }

      .cls-35 {
        fill: #b3c85b;
      }

      .cls-36 {
        fill: #65b34c;
      }

      .cls-37 {
        fill: #72bb55;
      }

      .cls-38 {
        fill: #2fa24c;
      }

      .cls-39 {
        fill: #8dc663;
      }

      .cls-40 {
        fill: #8bc562;
      }

      .cls-41 {
        fill: #a7d071;
      }

      .cls-42 {
        fill: #a6d071;
      }

      .cls-43 {
        fill: #a8d072;
      }

      .cls-44 {
        fill: #bcd267;
      }

      .cls-45 {
        fill: #a9d172;
      }

      .cls-46 {
        fill: #a5cf70;
      }

      .cls-47 {
        fill: #acd275;
      }

      .cls-48 {
        fill: #a3ce6f;
      }

      .cls-49 {
        fill: #a4cf6f;
      }

      .cls-50 {
        fill: #aad173;
      }

      .cls-51 {
        fill: #3eac4a;
      }

      .cls-52 {
        fill: #93c866;
      }

      .cls-53 {
        fill: #a2ce6e;
      }

      .cls-54 {
        fill: #9acb6a;
      }

      .cls-55 {
        fill: #6fb953;
      }

      .cls-56 {
        fill: #70ba53;
      }

      .cls-57 {
        fill: #a37b51;
      }

      .cls-58 {
        fill: #94c967;
      }

      .cls-59 {
        fill: #52aa43;
      }

      .cls-60 {
        fill: #99ca6a;
      }

      .cls-61 {
        fill: #88c460;
      }

      .cls-62 {
        fill: #6db852;
      }

      .cls-63 {
        fill: #87c45f;
      }

      .cls-64 {
        fill: #85c35f;
      }

      .cls-65 {
        fill: #6fa22f;
      }

      .cls-66 {
        fill: #6cb851;
      }

      .cls-67 {
        fill: #7fc15c;
      }

      .cls-68 {
        fill: #54aa43;
      }

      .cls-69 {
        fill: #62b24b;
      }

      .cls-70 {
        fill: #59ad46;
      }

      .cls-71 {
        fill: #57ad46;
      }

      .cls-72 {
        fill: #29973d;
      }

      .cls-73 {
        fill: #55ab44;
      }

      .cls-74 {
        fill: #5bae47;
      }

      .cls-75 {
        fill: #63b34c;
      }

      .cls-76 {
        fill: #58ac45;
      }

      .cls-77 {
        fill: #56ac45;
      }

      .cls-78 {
        fill: #61b24b;
      }

      .cls-79 {
        fill: #5db049;
      }

      .cls-80 {
        fill: #61b14b;
      }

      .cls-81 {
        fill: #5eb049;
      }

      .cls-82 {
        fill: #74b657;
      }

      .cls-83 {
        fill: #73bc56;
      }

      .cls-84 {
        fill: #74bd56;
      }

      .cls-85 {
        fill: #78be58;
      }

      .cls-86 {
        fill: #77be58;
      }

      .cls-87 {
        fill: #5cae47;
      }

      .cls-88 {
        fill: #5caf47;
      }

      .cls-89 {
        fill: #60b149;
      }

      .cls-90 {
        fill: #71bb54;
      }

      .cls-91 {
        fill: #51a942;
      }

      .cls-92 {
        fill: #82c25c;
      }

      .cls-93 {
        fill: #79bf59;
      }

      .cls-94 {
        fill: #81c15d;
      }

      .cls-95 {
        fill: #7bb429;
      }

      .cls-96 {
        fill: #76bd56;
      }

      .cls-97 {
        fill: #50a840;
      }

      .cls-98 {
        fill: #7abf5a;
      }

      .cls-99 {
        fill: #4da335;
      }

      .cls-100 {
        fill: url(#radial-gradient-3);
      }

      .cls-101 {
        fill: url(#radial-gradient-2);
      }

      .cls-102 {
        fill: url(#linear-gradient-2);
      }

      .cls-103 {
        fill: url(#radial-gradient);
      }

      .cls-2 {
        clip-path: url(#clippath);
      }
    </style>
    <linearGradient id="linear-gradient" x1="950.51" y1="54.58" x2="960.58" y2="54.58" gradientUnits="userSpaceOnUse">
      <stop offset="0" stop-color="#25a739"/>
      <stop offset=".97" stop-color="#0f3b1e"/>
    </linearGradient>
    <linearGradient id="linear-gradient-2" x1="942.49" y1="50.1" x2="951.88" y2="50.1" gradientUnits="userSpaceOnUse">
      <stop offset="0" stop-color="#acd275"/>
      <stop offset=".97" stop-color="#50a840"/>
    </linearGradient>
    <radialGradient id="radial-gradient" cx="963.38" cy="45.32" fx="963.38" fy="45.32" r="10.82" gradientUnits="userSpaceOnUse">
      <stop offset="0" stop-color="#9abe72"/>
      <stop offset=".97" stop-color="#3d8c40"/>
    </radialGradient>
    <radialGradient id="radial-gradient-2" cx="950.87" cy="562.7" fx="950.87" fy="562.7" r="45.53" gradientTransform="translate(9.26 -501.07) rotate(.07) scale(1 .93) skewX(.13)" gradientUnits="userSpaceOnUse">
      <stop offset="0" stop-color="#9cc92f"/>
      <stop offset=".97" stop-color="#3d8c40"/>
    </radialGradient>
    <radialGradient id="radial-gradient-3" cx="3284.66" cy="1370.33" fx="3284.66" fy="1370.33" r="13.12" gradientTransform="translate(-1822.7 -2223.08) rotate(16.5)" gradientUnits="userSpaceOnUse">
      <stop offset="0" stop-color="#acd275"/>
      <stop offset=".97" stop-color="#50a840"/>
    </radialGradient>
    <clipPath id="clippath">
      <path class="cls-1" d="m941.71,49.6c-.78-1.52,3.73-1.38,2.99,6.48,1.69-.4,3.46-.94,4.97-1.69-.19-1.3-.67-3.6-1.85-5.23-1.73-2.39-1.54-2.47-2.17-2.87-.63-.4-.9-3.32,2.32-1.13,2.38,1.62,4.28,4.25,5.33,6.73,1.13-1.03,2.11-2.19,2.92-3.44-.81-2.2-2.66-5.28-6.88-6.82-1.2-.93-.1-1.76,2.43-.62,1.75.79,4.45,2.62,6.08,4.24.4-1.06.67-2.14.8-3.2-1.15-2.31-3.32-4.55-6.46-4.94-1.9-.74-1.05-2.13,2.13-1.05,1.23.42,2.7,1.11,4.04,1.81-.3-1.02-.78-1.98-1.46-2.84-4.83-6.09-10.26-2.57-10.26-2.57-.58-.22-.84-1.21-2.11-2.22-2.62-2.11-7.07-2.74-10.74.68-.08.07-.16.15-.24.23,1.26-.09,2.45-.12,3.46-.04,2.04.15,4.03,1.69,2.76,2.13-2.65-1.11-5.91-.55-8.41.92-.59,1.18-.97,2.45-1.15,3.78,3.87-1.68,7.88-1.19,9.06-.98,1.46.26,2.43,2.19.7,1.83-4.89-1.42-8.45.63-9.88,1.71.04,1.24.23,2.5.55,3.76,1.64-1.55,4.16-2.31,6.8-1.77,1.6.33,2.28,2.81-.78,2.82-2.96.02-4.14,1.53-4.62,2.83.39.84.83,1.66,1.32,2.45.14.23.28.45.41.67.52-1.04,1.4-2.42,2.54-2.65,1.86-.37,2.05,2.22,1,2.26-1.41.06-1.96,1.23-2.29,2.34,2.39,3.64,3.01,3.87,3.01,3.87,0,0,1.79-.1,4.15-.5.61-1.4,1.15-3.81-.47-6.98Z"/>
    </clipPath>
  </defs>
  <g id="_レイヤー_7" data-name="レイヤー 7">
    <g>
      <path class="cls-4" d="m0,54.17l292.29-2.32c19.14-.15,38.28.2,57.4,1.06l404.31,18.17c28.06,1.26,56.15,1.43,84.22.52l367.61-12c26.01-.85,52.05-.76,78.05.26l116.11,4.56v22.85H0v-33.09Z"/>
      <path class="cls-82" d="m0,72.59l260.87-17.88c47.9-3.28,95.97-3.14,143.85.42l256.7,19.12c43.39,3.23,86.94,3.65,130.39,1.26l281.75-15.53c26.2-1.44,52.45-1.87,78.69-1.26l247.75,5.7v24.89H0v-16.71Z"/>
      <path class="cls-44" d="m0,64.37l220.1-12.44c49.17-2.78,98.45-2.87,147.63-.26l239.84,12.71,96.32,8.68c89.28,8.04,179.14,7.17,268.25-2.59l36.53-4.01,92.84-7.74c87.32-7.28,175.15-6.05,262.24,3.69l36.25,4.05v22.85H0v-24.93Z"/>
      <path class="cls-35" d="m455.31,59.59s-172.84-10.96-228.39-4.74L0,67.66v-3.17l226.92-12.81c55.56-6.22,228.39,4.74,228.39,4.74l41.86,2.1-41.86,1.07Z"/>
      <g>
        <ellipse class="cls-57" cx="375.23" cy="57.74" rx="9.35" ry="2.62"/>
        <g>
          <path class="cls-30" d="m375.21,55.8c-.02-.25-.07-.59-.16-1.03-.32-1.53-1.1-4.18-2.4-7.08-1.3-2.9-3.13-6.04-5.53-8.54-1.59-1.64-2.95-2.96-4.3-4.88-.1-.14-.3-.18-.44-.08-.14.1-.18.3-.08.44,1.38,1.97,2.79,3.32,4.36,4.95,2.67,2.76,4.63,6.4,5.93,9.56.65,1.58,1.14,3.05,1.47,4.22.16.59.29,1.1.38,1.52.09.42.13.75.15.94.01.17.16.31.33.3.17-.01.31-.16.3-.33Z"/>
          <path class="cls-30" d="m375.27,55.92c.22-.98.48-1.94.77-2.9.28-.96.59-1.91.92-2.85.33-.94.68-1.88,1.05-2.81.37-.93.76-1.85,1.17-2.76.82-1.83,1.74-3.61,2.8-5.32.53-.85,1.09-1.69,1.71-2.48.62-.8,1.28-1.56,2.02-2.26.13-.12.33-.11.45.01.12.12.12.32,0,.44h0c-1.38,1.38-2.5,3.01-3.52,4.69-1.01,1.69-1.89,3.46-2.69,5.26-.4.9-.78,1.81-1.15,2.73-.36.92-.71,1.85-1.05,2.78-.34.93-.65,1.87-.97,2.8-.31.94-.62,1.88-.91,2.82h0c-.05.17-.23.26-.39.21-.16-.05-.25-.21-.21-.37Z"/>
          <path class="cls-30" d="m375.43,57.52c-.03-.46-.04-.89-.04-1.33,0-.44,0-.88,0-1.32.01-.88.04-1.75.08-2.63.04-.87.09-1.75.14-2.62.06-.87.13-1.75.21-2.62.3-3.49.75-6.97,1.35-10.42.3-1.73.64-3.45,1.03-5.16.4-1.71.84-3.41,1.36-5.09.52-1.68,1.1-3.34,1.8-4.96.7-1.62,1.5-3.2,2.47-4.68.1-.14.29-.19.44-.09.14.09.18.29.09.43-.92,1.45-1.68,3.01-2.34,4.61-.65,1.6-1.22,3.24-1.71,4.91-.49,1.66-.92,3.35-1.29,5.05-.38,1.7-.71,3.4-1,5.12-.58,3.43-1.01,6.89-1.34,10.35-.08.87-.16,1.73-.22,2.6-.07.87-.14,1.74-.19,2.6-.06.87-.1,1.74-.14,2.61-.02.43-.04.87-.05,1.3,0,.43-.02.87-.02,1.29h0c0,.18-.12.33-.3.33-.17,0-.31-.12-.32-.29Z"/>
          <path class="cls-30" d="m375.23,58.55c-.11-.28-.18-.53-.25-.79-.07-.26-.14-.52-.2-.78-.13-.52-.25-1.04-.37-1.56-.24-1.04-.45-2.09-.67-3.13l-.32-1.57-.3-1.57c-.2-1.05-.39-2.1-.58-3.14-.74-4.2-1.43-8.4-2.08-12.62-.65-4.21-1.24-8.43-1.75-12.67-.25-2.12-.48-4.24-.65-6.37-.08-1.06-.16-2.13-.2-3.2-.02-.54-.03-1.07-.03-1.61,0-.54.02-1.08.09-1.63.02-.17.18-.3.35-.28.17.02.29.17.28.34h0c-.09,1.03-.04,2.09,0,3.14.06,1.06.15,2.11.25,3.17.1,1.06.22,2.11.35,3.17.12,1.06.25,2.11.39,3.16.55,4.22,1.2,8.42,1.85,12.63.66,4.2,1.38,8.4,2.11,12.59l1.11,6.29c.18,1.05.38,2.09.57,3.14.1.52.19,1.04.3,1.56l.16.77c.06.25.11.52.18.74h0c.05.17-.04.35-.2.4-.16.05-.33-.03-.39-.19Z"/>
          <path class="cls-30" d="m374.38,5.93c.08.29.12.57.16.84.04.28.07.55.1.82.06.55.11,1.09.16,1.64.09,1.09.17,2.18.24,3.28.07,1.09.13,2.18.19,3.28l.15,3.28c.18,4.37.32,8.74.4,13.11.05,2.19.07,4.37.09,6.56.02,2.19.04,4.37.02,6.56v1.64s-.05,1.64-.05,1.64c-.02,1.09-.06,2.19-.1,3.28-.09,2.19-.21,4.38-.47,6.56-.02.17-.18.3-.35.28-.16-.02-.28-.16-.28-.32h0c0-2.18.05-4.36.05-6.54v-6.54s-.02-6.55-.02-6.55l-.06-6.55c-.06-4.37-.11-8.73-.22-13.09l-.09-3.27-.1-3.27c-.04-1.09-.08-2.18-.14-3.27-.03-.54-.06-1.09-.1-1.63-.02-.27-.04-.54-.07-.81-.03-.26-.06-.53-.11-.77h0c-.04-.17.07-.34.24-.38.17-.04.33.06.37.23Z"/>
          <path class="cls-30" d="m361.55,19.33c.07.48.07.91.09,1.35.02.44.04.87.07,1.31.06.87.18,1.73.34,2.58.32,1.71.82,3.38,1.48,4.99.33.81.69,1.59,1.09,2.37.4.77.84,1.53,1.27,2.3l2.64,4.56c.88,1.52,1.75,3.06,2.58,4.61.83,1.56,1.64,3.13,2.35,4.75.72,1.62,1.39,3.27,1.89,4.98.5,1.71.85,3.5.76,5.31,0,.17-.16.31-.33.3-.16,0-.29-.13-.3-.29h0c-.13-1.71-.54-3.39-1.04-5.05-.51-1.65-1.13-3.28-1.83-4.88-1.4-3.2-3.04-6.3-4.73-9.37-.84-1.54-1.72-3.07-2.57-4.61-.43-.77-.85-1.54-1.26-2.33-.41-.79-.78-1.6-1.11-2.42-.67-1.65-1.18-3.36-1.5-5.11-.16-.87-.27-1.76-.35-2.64-.04-.44-.06-.89-.09-1.33-.03-.44-.03-.89-.09-1.28h0c-.03-.18.09-.34.26-.37.17-.03.33.09.36.26h0Z"/>
        </g>
        <path class="cls-28" d="m358.81,15.22c-2.51-1.34-10.53-2.01-11.03,1.51-.5,3.51,8.03,5.35,8.69,6.35.67,1,2.17-1.5,4.51-1.67,2.34-.17,7.19-.5,6.52-3.85-.67-3.34-6.19-3.85-8.69-2.34Z"/>
        <path class="cls-28" d="m372.18,6.69c-3.51-2.51-2.01-6.69,2.51-6.69s8.03,2.68,10.2,2.51c2.17-.17,7.02-.67,8.36.67-2.68.67-6.19,7.19-10.7,7.69-4.51.5-10.53-1-10.37-4.18Z"/>
        <path class="cls-28" d="m364.76,7.6c1.83,1.02,4.85-1.84,6.69-1.17,1.84.67,1.17,4.01-6.35,4.85-7.52.84-11.7-3.18-14.88-1.84.67-2.34,10.37-4.18,14.55-1.84Z"/>
        <path class="cls-28" d="m368.72,24.64c-1.17-1.73,1.7-4.02,5.34-2.7,3.65,1.32,6.44,5.39,6.83,9.73.39,4.34,2.53,6.39,1.2,5.7-1.34-.69-5.39.23-10.08-.88-4.7-1.11-8.6-5.94-9.45-9.39-.85-3.45,2.4-6.48,6.16-2.46Z"/>
        <path class="cls-28" d="m385.3,12.3c-4.35-.84-9.53,3.85-5.68,7.86,3.85,4.01,15.22,5.35,16.05,7.36,2.51-4.85,4.51-10.87,2.01-14.88-2.51-4.01-10.03-5.68-12.37-.33Z"/>
        <path class="cls-28" d="m383.84,36.48c-.8-1.19-.05-4.87,3.66-5.03,2.23-2.31,5.06-2.05,6.68-1.4,1.62.65,6.74,5.16,5.85,11.12-4.48-.58-11.61,2.11-16.19-4.69Z"/>
        <path class="cls-28" d="m359.93,31.78c-2.81-.47-4.01.5-6.19,3.18-1.34,1.65-4.01,3.18-4.01,3.18,0,0,4.35,3.01,9.86,1.67,5.52-1.34,7.36-6.19,2.34-6.52-.67-1.17-1-1.34-2.01-1.5Z"/>
      </g>
      <ellipse class="cls-57" cx="951.25" cy="77.32" rx="8.27" ry="2.32"/>
      <g>
        <path class="cls-3" d="m950.6,79.1c0-.11-.39-10.97.53-22.33,1.25-15.44,4.24-24.43,8.88-26.72l.57,1.15c-4.15,2.05-6.97,10.93-8.17,25.68-.92,11.29-.53,22.07-.53,22.18l-1.28.05Z"/>
        <path class="cls-99" d="m950.97,72.59l-1.27-.16c1.41-11.54,4.32-19.92,6.5-24.91,2.38-5.44,4.41-8.12,4.49-8.23l1.02.78s-2.04,2.7-4.36,8.02c-2.14,4.91-4.99,13.15-6.38,24.5Z"/>
        <path class="cls-102" d="m950.6,75.01c-.12-14.64-2.32-27.29-4.14-35.32-1.98-8.7-3.94-13.98-3.96-14.04l1.2-.45c.02.05,2.02,5.42,4.01,14.2,1.84,8.1,4.06,20.84,4.17,35.6h-1.28Z"/>
        <path class="cls-103" d="m966.47,38.7c-.83.13-.99,1.11,1.78,1.6,1.52.27,2.53.75,3.17,1.17.18.3.37.61.54.94.33.61.62,1.25.86,1.9-1.5-1.12-2.94-1.31-3.46-1.24-.67.08-.85.82,1.08,1.33,1.13.3,2.25,1.23,3.01,2.03.19.85.32,1.72.4,2.56-1.36-1.18-3.8-2.11-4.25-2.14-.54-.04.5,2.07,2.06,2.49,1.49.39,1.43,0,2.26,1.04,0,.76-.03,1.48-.12,2.15-.57-.38-1.3-.85-1.6-.95-.55-.18-.58.45.28.96.4.24.81.66,1.14,1.03-.25,1.07-.26,2.53-.78,2.84-.36.22-1.52-.42-2.56-.61-.43-1.23-.64-2.83-.51-3.31.19-.69-.18-1.45-.72-1.34-.49.1-.42,2.12.09,4.37-.85-.25-1.82-.63-2.88-1.16-.48-1.37-.95-3.2-.52-4.53.56-1.75.54-2.44-.23-2.76-.75-.31-1.57,3.03-.99,6.31-.85-.53-1.73-1.14-2.61-1.86-.42-.34-.84-.69-1.25-1.05-.18-1.8-.07-4.35,1.53-5.65,1.55-1.25.59-2.27-.32-1.82-.82.41-2.86,3.28-2.91,5.89-1.36-1.34-2.6-2.77-3.6-4.24.08-1.36.61-4.29,3.55-5.05,1.04-.28.47-1.18-.91-.87-1.25.28-3.48,1.09-4.57,2.28-.67-1.88-.76-3.63-.09-5.12,1.77-3.9,7.67.31,8.57.59,1.01.14.47-1.51,2.63-1.2,1.46.21,3.62,1.8,5.51,4.2-1.4-.61-2.97-.85-3.55-.75Z"/>
        <path class="cls-101" d="m967.01,24.15c-1.22.74-1.4,2.03,2.77.84,2.53-.72,4.26-.81,5.39-.7.3.28.59.58.87.89.53.59.95,1.25,1.29,1.94-2.57-.46-5.02.21-5.88.61-1.06.49-1.37,1.44,1.66.97,1.88-.3,3.74.18,4.99.72.19.92.26,1.87.22,2.79-2.18-.66-6.05-.51-6.73-.33-.81.21-.98,1.25,1.32,1,2.33-.25,4.03.06,5.27.81-.13.79-.32,1.55-.58,2.25-.87-.17-1.97-.36-2.44-.34-.83.03-.94.63.31.82.6.09,1.19.34,1.65.59-.56,1.07-.77,2.35-1.58,2.74-.55.27-2.13.03-3.52.11-.5-.89-.71-2.17-.51-2.63.3-.67-.17-1.24-.92-.96-.67.25-.62,1.95-.03,3.63-1.06,0-2.23-.08-3.47-.24-.59-.94-1.19-2.26-.73-3.49.64-1.73.6-2.37-.38-2.38-.94,0-1.7,3.14-.88,5.53-.95-.2-1.91-.45-2.87-.77-.45-.15-.9-.31-1.35-.48-.38-1.31-.56-3.4,1.01-5.1,1.69-1.82.45-2.41-.56-1.56-.86.72-2.57,3.9-2.26,5.91-1.43-.64-2.76-1.38-3.89-2.21-.19-1.09-.29-3.73,2.44-5.68,1.07-.77.29-1.42-1.09-.43-1.18.84-3.03,2.47-3.7,3.86-.98-1.31-1.48-2.78-1.29-4.42.57-4.94,7.87-3.77,9.01-4.01,1.31-.49.38-2.2,3.4-3.42,2.22-.9,5.78-.42,8.94,1.51-2.4.24-4.95,1.09-5.84,1.63Z"/>
        <path class="cls-100" d="m935.87,18.49c.66.23,2.97,1.11,3.4,2,.44.93-.14,2.24-1.16.74-.67-.98-3.01-1.73-4.58-2.16-.63.21-1.05.49-1.52.81-.68.47-.71.66-.87.87,1.22.27,3.03.93,3.24,1.44.32.76.25,1.91-1.34.73-.86-.63-2.13-.97-3.07-1.15-.5.66-.95,1.35-1.36,2.05,1.08.08,2.67.75,3.08,1.18.5.52.19,1.47-1.06.92-.62-.27-1.84-.39-2.9-.44-1.04,2.12-1.67,4.02-1.92,4.66-.35.9.77.69.77.69,0,0,1.7.11,3.24.49.02,0,.04.01.07.02.37-.52.93-1.44.92-2.32-.01-1.26,1.33-.89,1.4-.16.06.63-.15,2-.83,2.97.93.33,2.1.76,3.42,1.17.5-.78,1.23-2.15,1.14-3.39-.11-1.73.64-2.25,1.45-1.51.67.61.9,3.81.17,5.66,1.56.35,3.18.58,4.7.54.36-1.22.44-3.11-.41-5.21-1.25-3.11-2.06-3.19-1.32-3.59.73-.39,1.72.14,2.43,1.71.68,1.48,1.54,4.59,1.48,6.94,1.85-.53,4.12-2.01,4.43-3.02-.23-1.41-.79-2.97-1.85-4.2-1.32-1.53-.34-1.39.55-.59.69.61,2.3,2.39,2.56,4.15,2.01-1.71,2.1-3.35.52-5.99-1.51-2.52-5.15-2.84-6.06-2.7-.48.07-.86-.13-.89-.38-.05-.48.1-2.39-3.54-3.24-1.6-.38-3.4-.55-5.12.13.31.04.62.09.83.17Z"/>
        <g class="cls-2">
          <rect class="cls-97" x="930.09" y="27.48" width="28.56" height="29.6"/>
          <path class="cls-97" d="m935.95,49.31c-3.91-1.13-6.98-3.82-8.76-7.26h2.42v-15.07h23.71v-.21c1.79,3.44,2.3,7.62,1.11,11.73-2.38,8.23-10.65,13.06-18.48,10.8Z"/>
          <path class="cls-91" d="m935.99,49.16c-3.87-1.12-6.9-3.78-8.67-7.18h2.28v-14.99h23.58v-.13c1.77,3.4,2.27,7.54,1.1,11.61-2.35,8.14-10.54,12.93-18.29,10.69Z"/>
          <path class="cls-91" d="m936.03,49c-3.83-1.11-6.83-3.74-8.58-7.11h2.15v-14.91h23.45v-.05c1.75,3.37,2.25,7.46,1.09,11.49-2.33,8.06-10.43,12.8-18.1,10.58Z"/>
          <path class="cls-59" d="m936.08,48.85c-3.79-1.1-6.76-3.7-8.49-7.03h2.01v-14.83h21.79v-2.32c.58.73,1.09,1.52,1.52,2.35,1.73,3.33,2.23,7.38,1.07,11.37-2.3,7.97-10.32,12.66-17.91,10.47Z"/>
          <path class="cls-68" d="m936.12,48.7c-3.75-1.08-6.69-3.66-8.4-6.96h1.88v-14.76h21.67v-2.22c.57.72,1.08,1.5,1.51,2.33,1.71,3.3,2.2,7.31,1.06,11.25-2.28,7.89-10.21,12.53-17.72,10.36Z"/>
          <path class="cls-73" d="m936.17,48.54c-3.71-1.07-6.62-3.62-8.31-6.88h1.74v-14.68h21.55v-2.11c.57.71,1.07,1.49,1.49,2.3,1.69,3.26,2.18,7.23,1.05,11.13-2.25,7.8-10.1,12.39-17.52,10.25Z"/>
          <path class="cls-73" d="m936.21,48.39c-3.67-1.06-6.54-3.59-8.22-6.81h1.61v-14.6h21.43v-2.01c.56.71,1.06,1.47,1.47,2.28,1.68,3.22,2.15,7.15,1.04,11.01-2.23,7.72-9.99,12.26-17.33,10.14Z"/>
          <path class="cls-77" d="m936.26,48.24c-3.63-1.05-6.47-3.55-8.13-6.73h1.47v-10.89h-2.5c.55-1.91,1.44-3.62,2.59-5.08v1.45h21.23v-1.91c.56.7,1.04,1.45,1.46,2.25,1.66,3.19,2.13,7.07,1.03,10.89-2.2,7.63-9.88,12.12-17.14,10.02Z"/>
          <path class="cls-76" d="m936.3,48.08c-3.59-1.04-6.4-3.51-8.04-6.66h1.34v-10.77h-2.36c.54-1.89,1.43-3.58,2.56-5.03v1.35h20.99v-1.8c.55.69,1.03,1.44,1.44,2.23,1.64,3.15,2.11,6.99,1.02,10.77-2.18,7.55-9.77,11.99-16.95,9.91Z"/>
          <path class="cls-71" d="m936.35,47.93c-3.55-1.03-6.33-3.47-7.95-6.59h1.2v-10.64h-2.21c.54-1.87,1.41-3.54,2.53-4.97v1.25h20.76v-1.7c.54.68,1.02,1.42,1.43,2.2,1.62,3.12,2.08,6.91,1.01,10.64-2.16,7.46-9.66,11.85-16.76,9.8Z"/>
          <path class="cls-70" d="m936.39,47.78c-3.51-1.01-6.26-3.43-7.86-6.51h1.07v-10.52h-2.06c.53-1.85,1.4-3.5,2.5-4.91v1.15h18.72v-3.45c1.33,1.12,2.41,2.49,3.21,4.03,1.6,3.08,2.06,6.83.99,10.52-2.13,7.38-9.55,11.72-16.57,9.69Z"/>
          <path class="cls-74" d="m936.43,47.62c-3.47-1-6.19-3.39-7.77-6.44h.93v-10.4h-1.92c.53-1.82,1.38-3.46,2.47-4.86v1.05h18.5v-3.33c1.31,1.1,2.38,2.46,3.18,3.98,1.58,3.05,2.04,6.76.98,10.4-2.11,7.29-9.44,11.58-16.38,9.58Z"/>
          <path class="cls-88" d="m936.48,47.47c-3.43-.99-6.11-3.35-7.68-6.36h.8v-10.28h-1.77c.52-1.8,1.36-3.42,2.44-4.8v.96h18.29v-3.2c1.3,1.09,2.36,2.43,3.14,3.94,1.57,3.01,2.01,6.68.97,10.28-2.08,7.21-9.33,11.45-16.19,9.47Z"/>
          <path class="cls-87" d="m936.52,47.32c-3.39-.98-6.04-3.31-7.59-6.29h.67v-10.16h-1.63c.51-1.78,1.35-3.38,2.41-4.74v.86h18.07v-3.08c1.28,1.08,2.33,2.4,3.1,3.89,1.55,2.98,1.99,6.6.96,10.16-2.06,7.13-9.22,11.31-16,9.36Z"/>
          <path class="cls-79" d="m936.57,47.16c-3.35-.97-5.97-3.27-7.5-6.21h.53v-10.04h-1.48c.51-1.76,1.33-3.34,2.39-4.69v.76h17.86v-2.95c1.26,1.06,2.3,2.38,3.07,3.85,1.53,2.94,1.97,6.52.95,10.04-2.03,7.04-9.11,11.18-15.81,9.24Z"/>
          <path class="cls-79" d="m936.61,47.01c-6.62-1.91-10.35-9.1-8.34-16.06.5-1.74,1.32-3.3,2.36-4.63v.66h17.64v-2.83c1.25,1.05,2.27,2.35,3.03,3.8,1.51,2.91,1.94,6.44.94,9.92-2.01,6.96-9,11.04-15.62,9.13Z"/>
          <path class="cls-81" d="m936.66,46.85c-6.54-1.89-10.23-8.99-8.24-15.86.5-1.72,1.3-3.26,2.33-4.57v.56h17.43v-2.7c1.23,1.04,2.25,2.32,2.99,3.75,1.49,2.87,1.92,6.36.93,9.8-1.98,6.87-8.89,10.91-15.43,9.02Z"/>
          <path class="cls-89" d="m936.7,46.7c-6.46-1.86-10.1-8.88-8.14-15.66.49-1.7,1.28-3.22,2.3-4.52v.46h17.21v-2.58c1.22,1.03,2.22,2.29,2.96,3.71,1.47,2.83,1.89,6.28.91,9.68-1.96,6.79-8.78,10.78-15.24,8.91Z"/>
          <path class="cls-78" d="m936.74,46.55c-6.38-1.84-9.98-8.77-8.04-15.47.48-1.68,1.27-3.18,2.27-4.46v.36h17v-2.45c1.2,1.01,2.19,2.26,2.92,3.66,1.45,2.8,1.87,6.21.9,9.56-1.94,6.7-8.67,10.64-15.05,8.8Z"/>
          <path class="cls-80" d="m936.79,46.39c-6.29-1.82-9.85-8.66-7.94-15.27.96-3.31,3.1-5.93,5.79-7.51v3.37h13.24v-2.33c1.19,1,2.16,2.23,2.88,3.61,1.44,2.76,1.85,6.13.89,9.44-1.91,6.62-8.56,10.51-14.86,8.69Z"/>
          <path class="cls-69" d="m936.83,46.24c-6.21-1.79-9.72-8.54-7.84-15.08.94-3.27,3.06-5.86,5.71-7.41v3.23h13.07v-2.2c1.17.99,2.14,2.2,2.84,3.57,1.42,2.73,1.82,6.05.88,9.31-1.89,6.53-8.45,10.37-14.67,8.58Z"/>
          <path class="cls-12" d="m936.88,46.09c-6.13-1.77-9.6-8.43-7.73-14.88.93-3.22,3.02-5.78,5.64-7.31v3.09h12.9v-2.08c1.16.97,2.11,2.18,2.81,3.52,1.4,2.69,1.8,5.97.87,9.19-1.86,6.45-8.34,10.24-14.48,8.46Z"/>
          <path class="cls-75" d="m936.92,45.93c-6.05-1.75-9.47-8.32-7.63-14.68.92-3.18,2.98-5.71,5.56-7.22v2.95h12.73v-1.95c1.14.96,2.08,2.15,2.77,3.47,1.38,2.66,1.78,5.89.86,9.07-1.84,6.36-8.23,10.1-14.29,8.35Z"/>
          <path class="cls-36" d="m936.97,45.78c-5.97-1.72-9.34-8.21-7.53-14.49.91-3.14,2.94-5.63,5.49-7.12v2.81h12.56v-1.82c1.13.95,2.05,2.12,2.73,3.43,1.36,2.62,1.75,5.81.85,8.95-1.81,6.28-8.12,9.97-14.1,8.24Z"/>
          <path class="cls-7" d="m937.01,45.63c-5.89-1.7-9.22-8.1-7.43-14.29.89-3.1,2.9-5.55,5.41-7.03v2.67h12.39v-1.7c1.11.94,2.02,2.09,2.7,3.38,1.34,2.59,1.73,5.73.83,8.83-1.79,6.19-8.01,9.83-13.91,8.13Z"/>
          <path class="cls-6" d="m937.06,45.47c-5.81-1.68-9.09-7.99-7.33-14.1.88-3.05,2.86-5.48,5.34-6.93v2.54h12.22v-1.57c1.1.92,2,2.06,2.66,3.34,1.33,2.55,1.7,5.66.82,8.71-1.76,6.11-7.9,9.7-13.71,8.02Z"/>
          <path class="cls-6" d="m937.1,45.32c-5.73-1.66-8.97-7.88-7.23-13.9.87-3.01,2.82-5.4,5.27-6.83v2.4h12.05v-1.45c1.08.91,1.97,2.03,2.62,3.29,1.31,2.52,1.68,5.58.81,8.59-1.74,6.02-7.79,9.56-13.52,7.91Z"/>
          <path class="cls-5" d="m937.14,45.16c-5.65-1.63-8.84-7.77-7.12-13.71.86-2.97,2.78-5.33,5.19-6.74v2.26h8.14v-3.32c5.65,1.63,8.84,7.77,7.12,13.71-1.72,5.94-7.69,9.43-13.33,7.8Z"/>
          <path class="cls-11" d="m937.19,45.01c-5.57-1.61-8.71-7.66-7.02-13.51.85-2.93,2.74-5.25,5.12-6.64v2.12h8.03v-3.17c5.57,1.61,8.71,7.66,7.02,13.51-1.69,5.85-7.58,9.29-13.14,7.69Z"/>
          <path class="cls-9" d="m937.23,44.86c-5.49-1.59-8.59-7.55-6.92-13.31.83-2.88,2.7-5.17,5.04-6.54v1.98h7.91v-3.01c5.49,1.59,8.59,7.55,6.92,13.31-1.67,5.77-7.47,9.16-12.95,7.57Z"/>
          <path class="cls-13" d="m937.28,44.7c-5.41-1.56-8.46-7.44-6.82-13.12.82-2.84,2.66-5.1,4.97-6.45v1.84h7.79v-2.86c5.41,1.56,8.46,7.44,6.82,13.12-1.64,5.68-7.36,9.02-12.76,7.46Z"/>
          <path class="cls-66" d="m937.32,44.55c-5.33-1.54-8.33-7.32-6.72-12.92.81-2.8,2.62-5.02,4.9-6.35v1.71h7.68v-2.7c5.33,1.54,8.33,7.32,6.72,12.92-1.62,5.6-7.25,8.89-12.57,7.35Z"/>
          <path class="cls-62" d="m937.37,44.4c-5.25-1.52-8.21-7.21-6.61-12.73.8-2.76,2.58-4.95,4.82-6.26v1.57h7.56v-2.55c5.25,1.52,8.21,7.21,6.61,12.73-1.59,5.51-7.14,8.75-12.38,7.24Z"/>
          <path class="cls-55" d="m937.41,44.24c-5.16-1.49-8.08-7.1-6.51-12.53.78-2.71,2.54-4.87,4.75-6.16v1.43h7.44v-2.4c5.16,1.49,8.08,7.1,6.51,12.53-1.57,5.43-7.03,8.62-12.19,7.13Z"/>
          <path class="cls-55" d="m937.45,44.09c-5.08-1.47-7.95-6.99-6.41-12.34.77-2.67,2.5-4.79,4.67-6.06v1.29h7.33v-2.24c5.08,1.47,7.95,6.99,6.41,12.34-1.54,5.34-6.92,8.49-12,7.02Z"/>
          <path class="cls-56" d="m937.5,43.94c-5-1.45-7.83-6.88-6.31-12.14.76-2.63,2.46-4.72,4.6-5.97v1.15h7.21v-2.09c5,1.45,7.83,6.88,6.31,12.14-1.52,5.26-6.81,8.35-11.81,6.91Z"/>
          <path class="cls-90" d="m937.54,43.78c-4.92-1.42-7.7-6.77-6.21-11.94,1.49-5.17,6.7-8.22,11.62-6.79s7.7,6.77,6.21,11.94c-1.49,5.17-6.7,8.22-11.62,6.79Z"/>
          <path class="cls-37" d="m937.59,43.63c-4.84-1.4-7.58-6.66-6.11-11.75,1.47-5.09,6.59-8.08,11.43-6.68,4.84,1.4,7.58,6.66,6.11,11.75-1.47,5.09-6.59,8.08-11.43,6.68Z"/>
          <path class="cls-83" d="m937.63,43.48c-4.76-1.38-7.45-6.55-6-11.55,1.45-5,6.48-7.95,11.24-6.57,4.76,1.38,7.45,6.55,6,11.55-1.45,5-6.48,7.95-11.24,6.57Z"/>
          <path class="cls-83" d="m937.68,43.32c-4.68-1.35-7.32-6.44-5.9-11.36,1.42-4.92,6.37-7.81,11.05-6.46,4.68,1.35,7.32,6.44,5.9,11.36-1.42,4.92-6.37,7.81-11.05,6.46Z"/>
          <path class="cls-84" d="m937.72,43.17c-4.6-1.33-7.2-6.33-5.8-11.16,1.4-4.84,6.26-7.68,10.86-6.35,4.6,1.33,7.2,6.33,5.8,11.16-1.4,4.84-6.26,7.68-10.86,6.35Z"/>
          <path class="cls-96" d="m937.76,43.01c-4.52-1.31-7.07-6.21-5.7-10.96,1.37-4.75,6.15-7.54,10.67-6.24,4.52,1.31,7.07,6.21,5.7,10.96-1.37,4.75-6.15,7.54-10.67,6.24Z"/>
          <path class="cls-86" d="m937.81,42.86c-4.44-1.28-6.94-6.1-5.6-10.77s6.04-7.41,10.48-6.13c4.44,1.28,6.94,6.1,5.6,10.77-1.35,4.67-6.04,7.41-10.48,6.13Z"/>
          <path class="cls-85" d="m937.85,42.71c-4.36-1.26-6.82-5.99-5.5-10.57,1.32-4.58,5.93-7.27,10.29-6.01,4.36,1.26,6.82,5.99,5.5,10.57s-5.93,7.27-10.29,6.01Z"/>
          <path class="cls-93" d="m937.9,42.55c-4.28-1.24-6.69-5.88-5.39-10.38,1.3-4.5,5.82-7.14,10.1-5.9,4.28,1.24,6.69,5.88,5.39,10.38-1.3,4.5-5.82,7.14-10.1,5.9Z"/>
          <path class="cls-93" d="m937.94,42.4c-4.2-1.21-6.57-5.77-5.29-10.18,1.27-4.41,5.71-7,9.91-5.79,4.2,1.21,6.57,5.77,5.29,10.18-1.27,4.41-5.71,7-9.91,5.79Z"/>
          <path class="cls-98" d="m937.99,42.25c-4.12-1.19-6.44-5.66-5.19-9.99,1.25-4.33,5.6-6.87,9.72-5.68,4.12,1.19,6.44,5.66,5.19,9.99-1.25,4.33-5.6,6.87-9.72,5.68Z"/>
          <path class="cls-10" d="m938.03,42.09c-4.04-1.17-6.31-5.55-5.09-9.79s5.49-6.73,9.52-5.57c4.04,1.17,6.31,5.55,5.09,9.79-1.22,4.24-5.49,6.73-9.52,5.57Z"/>
          <path class="cls-17" d="m938.08,41.94c-3.95-1.14-6.19-5.44-4.99-9.59,1.2-4.16,5.38-6.6,9.33-5.46,3.95,1.14,6.19,5.44,4.99,9.59-1.2,4.16-5.38,6.6-9.33,5.46Z"/>
          <path class="cls-67" d="m938.12,41.79c-3.87-1.12-6.06-5.33-4.88-9.4,1.18-4.07,5.27-6.47,9.14-5.35,3.87,1.12,6.06,5.33,4.88,9.4-1.18,4.07-5.27,6.47-9.14,5.35Z"/>
          <path class="cls-67" d="m938.16,41.63c-3.79-1.1-5.93-5.22-4.78-9.2,1.15-3.99,5.16-6.33,8.95-5.23,3.79,1.1,5.93,5.22,4.78,9.2-1.15,3.99-5.16,6.33-8.95,5.23Z"/>
          <path class="cls-94" d="m938.21,41.48c-3.71-1.07-5.81-5.1-4.68-9.01,1.13-3.9,5.05-6.2,8.76-5.12,3.71,1.07,5.81,5.1,4.68,9.01-1.13,3.9-5.05,6.2-8.76,5.12Z"/>
          <path class="cls-92" d="m938.25,41.33c-3.63-1.05-5.68-4.99-4.58-8.81,1.1-3.82,4.94-6.06,8.57-5.01,3.63,1.05,5.68,4.99,4.58,8.81-1.1,3.82-4.94,6.06-8.57,5.01Z"/>
          <path class="cls-24" d="m938.3,41.17c-3.55-1.03-5.56-4.88-4.48-8.61,1.08-3.73,4.83-5.93,8.38-4.9,3.55,1.03,5.56,4.88,4.48,8.61-1.08,3.73-4.83,5.93-8.38,4.9Z"/>
          <path class="cls-24" d="m938.34,41.02c-3.47-1-5.43-4.77-4.38-8.42,1.05-3.65,4.72-5.79,8.19-4.79,3.47,1,5.43,4.77,4.38,8.42-1.05,3.65-4.72,5.79-8.19,4.79Z"/>
          <path class="cls-26" d="m938.39,40.86c-3.39-.98-5.3-4.66-4.27-8.22,1.03-3.56,4.61-5.66,8-4.68,3.39.98,5.3,4.66,4.27,8.22-1.03,3.56-4.61,5.66-8,4.68Z"/>
          <path class="cls-64" d="m938.43,40.71c-3.31-.96-5.18-4.55-4.17-8.03,1-3.48,4.5-5.52,7.81-4.57,3.31.96,5.18,4.55,4.17,8.03-1,3.48-4.5,5.52-7.81,4.57Z"/>
          <path class="cls-64" d="m938.47,40.56c-3.23-.93-5.05-4.44-4.07-7.83.98-3.39,4.39-5.39,7.62-4.46,3.23.93,5.05,4.44,4.07,7.83-.98,3.39-4.39,5.39-7.62,4.46Z"/>
          <path class="cls-63" d="m938.52,40.4c-3.15-.91-4.92-4.33-3.97-7.64.96-3.31,4.28-5.25,7.43-4.34,3.15.91,4.92,4.33,3.97,7.64-.96,3.31-4.28,5.25-7.43,4.34Z"/>
          <path class="cls-61" d="m938.56,40.25c-3.07-.89-4.8-4.22-3.87-7.44.93-3.22,4.17-5.12,7.24-4.23,3.07.89,4.8,4.22,3.87,7.44-.93,3.22-4.17,5.12-7.24,4.23Z"/>
          <path class="cls-27" d="m938.61,40.1c-2.99-.86-4.67-4.11-3.77-7.24.91-3.14,4.06-4.98,7.05-4.12,2.99.86,4.67,4.11,3.77,7.24-.91,3.14-4.06,4.98-7.05,4.12Z"/>
          <path class="cls-18" d="m938.65,39.94c-2.91-.84-4.55-4-3.66-7.05.88-3.05,3.95-4.85,6.86-4.01,2.91.84,4.55,4,3.66,7.05-.88,3.05-3.95,4.85-6.86,4.01Z"/>
          <path class="cls-40" d="m938.7,39.79c-2.82-.82-4.42-3.88-3.56-6.85.86-2.97,3.84-4.71,6.67-3.9,2.82.82,4.42,3.88,3.56,6.85-.86,2.97-3.84,4.71-6.67,3.9Z"/>
          <path class="cls-40" d="m938.74,39.64c-2.74-.79-4.29-3.77-3.46-6.66.83-2.88,3.73-4.58,6.48-3.79,2.74.79,4.29,3.77,3.46,6.66-.83,2.88-3.73,4.58-6.48,3.79Z"/>
          <path class="cls-39" d="m938.78,39.48c-2.66-.77-4.17-3.66-3.36-6.46s3.62-4.44,6.29-3.68c2.66.77,4.17,3.66,3.36,6.46s-3.62,4.44-6.29,3.68Z"/>
          <path class="cls-32" d="m938.83,39.33c-2.58-.75-4.04-3.55-3.26-6.27.78-2.71,3.51-4.31,6.1-3.56,2.58.75,4.04,3.55,3.26,6.27-.78,2.71-3.51,4.31-6.1,3.56Z"/>
          <path class="cls-34" d="m938.87,39.17c-2.5-.72-3.91-3.44-3.15-6.07.76-2.63,3.4-4.18,5.91-3.45,2.5.72,3.91,3.44,3.15,6.07-.76,2.63-3.4,4.18-5.91,3.45Z"/>
          <path class="cls-33" d="m938.92,39.02c-2.42-.7-3.79-3.33-3.05-5.87.74-2.54,3.29-4.04,5.71-3.34,2.42.7,3.79,3.33,3.05,5.87-.74,2.54-3.29,4.04-5.71,3.34Z"/>
          <path class="cls-8" d="m938.96,38.87c-2.34-.68-3.66-3.22-2.95-5.68.71-2.46,3.18-3.91,5.52-3.23,2.34.68,3.66,3.22,2.95,5.68-.71,2.46-3.18,3.91-5.52,3.23Z"/>
          <path class="cls-22" d="m939.01,38.71c-2.26-.65-3.54-3.11-2.85-5.48.69-2.38,3.07-3.77,5.33-3.12,2.26.65,3.54,3.11,2.85,5.48-.69,2.38-3.07,3.77-5.33,3.12Z"/>
          <path class="cls-25" d="m939.05,38.56c-2.18-.63-3.41-3-2.75-5.29.66-2.29,2.96-3.64,5.14-3.01,2.18.63,3.41,3,2.75,5.29-.66,2.29-2.96,3.64-5.14,3.01Z"/>
          <path class="cls-52" d="m939.1,38.41c-2.1-.61-3.28-2.89-2.65-5.09.64-2.21,2.85-3.5,4.95-2.9,2.1.61,3.28,2.89,2.65,5.09-.64,2.21-2.85,3.5-4.95,2.9Z"/>
          <path class="cls-58" d="m939.14,38.25c-2.02-.58-3.16-2.77-2.54-4.89.61-2.12,2.74-3.37,4.76-2.78,2.02.58,3.16,2.77,2.54,4.89-.61,2.12-2.74,3.37-4.76,2.78Z"/>
          <path class="cls-14" d="m939.18,38.1c-1.94-.56-3.03-2.66-2.44-4.7s2.63-3.23,4.57-2.67c1.94.56,3.03,2.66,2.44,4.7s-2.63,3.23-4.57,2.67Z"/>
          <path class="cls-14" d="m939.23,37.95c-1.86-.54-2.9-2.55-2.34-4.5.56-1.95,2.53-3.1,4.38-2.56,1.86.54,2.9,2.55,2.34,4.5-.56,1.95-2.53,3.1-4.38,2.56Z"/>
          <path class="cls-16" d="m939.27,37.79c-1.78-.51-2.78-2.44-2.24-4.31.54-1.87,2.42-2.96,4.19-2.45,1.78.51,2.78,2.44,2.24,4.31-.54,1.87-2.42,2.96-4.19,2.45Z"/>
          <path class="cls-15" d="m939.32,37.64c-1.69-.49-2.65-2.33-2.14-4.11.51-1.78,2.31-2.83,4-2.34,1.69.49,2.65,2.33,2.14,4.11-.51,1.78-2.31,2.83-4,2.34Z"/>
          <path class="cls-60" d="m939.36,37.49c-1.61-.47-2.53-2.22-2.04-3.92.49-1.7,2.2-2.69,3.81-2.23,1.61.47,2.53,2.22,2.04,3.92-.49,1.7-2.2,2.69-3.81,2.23Z"/>
          <path class="cls-54" d="m939.41,37.33c-1.53-.44-2.4-2.11-1.93-3.72.47-1.61,2.09-2.56,3.62-2.12,1.53.44,2.4,2.11,1.93,3.72s-2.09,2.56-3.62,2.12Z"/>
          <path class="cls-19" d="m939.45,37.18c-1.45-.42-2.27-2-1.83-3.52.44-1.53,1.98-2.42,3.43-2,1.45.42,2.27,2,1.83,3.52-.44,1.53-1.98,2.42-3.43,2Z"/>
          <path class="cls-29" d="m939.49,37.02c-1.37-.4-2.15-1.89-1.73-3.33.42-1.44,1.87-2.29,3.24-1.89,1.37.4,2.15,1.89,1.73,3.33-.42,1.44-1.87,2.29-3.24,1.89Z"/>
          <path class="cls-21" d="m939.54,36.87c-1.29-.37-2.02-1.78-1.63-3.13.39-1.36,1.76-2.16,3.05-1.78,1.29.37,2.02,1.78,1.63,3.13-.39,1.36-1.76,2.16-3.05,1.78Z"/>
          <path class="cls-20" d="m939.58,36.72c-1.21-.35-1.89-1.66-1.53-2.94.37-1.27,1.65-2.02,2.86-1.67,1.21.35,1.89,1.66,1.53,2.94-.37,1.27-1.65,2.02-2.86,1.67Z"/>
          <path class="cls-23" d="m939.63,36.56c-1.13-.33-1.77-1.55-1.43-2.74.34-1.19,1.54-1.89,2.67-1.56,1.13.33,1.77,1.55,1.43,2.74-.34,1.19-1.54,1.89-2.67,1.56Z"/>
          <path class="cls-31" d="m939.67,36.41c-1.05-.3-1.64-1.44-1.32-2.55.32-1.1,1.43-1.75,2.48-1.45,1.05.3,1.64,1.44,1.32,2.55-.32,1.1-1.43,1.75-2.48,1.45Z"/>
          <path class="cls-53" d="m939.72,36.26c-.97-.28-1.51-1.33-1.22-2.35.29-1.02,1.32-1.62,2.29-1.34.97.28,1.51,1.33,1.22,2.35-.29,1.02-1.32,1.62-2.29,1.34Z"/>
          <path class="cls-48" d="m939.76,36.1c-.89-.26-1.39-1.22-1.12-2.15.27-.93,1.21-1.48,2.1-1.23.89.26,1.39,1.22,1.12,2.15-.27.93-1.21,1.48-2.1,1.23Z"/>
          <path class="cls-49" d="m939.81,35.95c-.81-.23-1.26-1.11-1.02-1.96.25-.85,1.1-1.35,1.9-1.11.81.23,1.26,1.11,1.02,1.96-.25.85-1.1,1.35-1.9,1.11Z"/>
          <path class="cls-46" d="m939.85,35.8c-.73-.21-1.14-1-.92-1.76.22-.76.99-1.21,1.71-1s1.14,1,.92,1.76c-.22.76-.99,1.21-1.71,1Z"/>
          <path class="cls-46" d="m939.89,35.64c-.65-.19-1.01-.89-.81-1.57.2-.68.88-1.08,1.52-.89.65.19,1.01.89.81,1.57-.2.68-.88,1.08-1.52.89Z"/>
          <path class="cls-42" d="m939.94,35.49c-.57-.16-.88-.78-.71-1.37.17-.59.77-.94,1.33-.78.57.16.88.78.71,1.37-.17.59-.77.94-1.33.78Z"/>
          <path class="cls-41" d="m939.98,35.34c-.48-.14-.76-.67-.61-1.17.15-.51.66-.81,1.14-.67.48.14.76.67.61,1.17-.15.51-.66.81-1.14.67Z"/>
          <path class="cls-43" d="m940.03,35.18c-.4-.12-.63-.55-.51-.98.12-.42.55-.67.95-.56.4.12.63.55.51.98-.12.42-.55.67-.95.56Z"/>
          <path class="cls-45" d="m940.07,35.03c-.32-.09-.5-.44-.41-.78.1-.34.44-.54.76-.45.32.09.5.44.41.78-.1.34-.44.54-.76.45Z"/>
          <path class="cls-50" d="m940.12,34.87c-.24-.07-.38-.33-.31-.59.07-.25.33-.4.57-.33.24.07.38.33.31.59-.07.25-.33.4-.57.33Z"/>
          <path class="cls-50" d="m940.16,34.72c-.16-.05-.25-.22-.2-.39.05-.17.22-.27.38-.22.16.05.25.22.2.39-.05.17-.22.27-.38.22Z"/>
          <path class="cls-47" d="m940.2,34.57c-.08-.02-.13-.11-.1-.2.02-.08.11-.13.19-.11.08.02.13.11.1.2-.02.08-.11.13-.19.11Z"/>
        </g>
      </g>
      <g>
        <path class="cls-57" d="m1311.74,69.56c0,1.04,3,1.88,6.69,1.88s6.69-.84,6.69-1.88-3-1.88-6.69-1.88-6.69.84-6.69,1.88Z"/>
        <path class="cls-51" d="m1307.49,32.43c-1.22-1.22-1.83-1.64-4.26-2.95-2.43-1.32-4.87-4.26-5.17-6.09-.3-1.83.2-1.63,3.95-.31,3.75,1.32,5.78.61,8.42,2.33,2.64,1.72,3.65,2.74,4.06,4.26.41,1.52,0,4.21.71,6.03.33.84,1.44,7.02,2.41,13.99-.11-9.37-.41-19.17-.78-20.53-.71-2.53-4.56-4.56-6.29-6.59-1.72-2.03-1.62-2.53-2.94-4.77-1.32-2.23-1.72-7.91-1.62-9.53.1-1.62.61-3.14,1.32-1.92.71,1.22,7,6.19,9.33,8.62,2.33,2.43,3.75,4.37,3.95,7.51.2,3.14-1.19,3.74-2.23,6.81-.61,1.8-.41,9.23-.2,11.76.03.33.07,1.07.12,2.1.75-8.52.45-9.78.69-11.25.51-3.04,1.52-4.56,3.95-6.49,2.43-1.93,5.68-2.43,8.21-4.36,2.53-1.93,2.94-.1,2.03,1.83-.91,1.93-1.93,6.49-6.08,8.72-3.76,2.02-7.11.97-8.61,15.9.1,2.37.22,5.15.33,7.93.23-3.16.37-5.72.27-6.24-.3-1.52-.1-5.73.81-7.55.91-1.83,1.28-4.42,3.45-5.78,2.74-1.72,7.1-5.67,8.92-6.99,1.83-1.32,4.46-2.94,3.14,1.83-1.32,4.77-8.42,10.45-9.12,12.68-.04.14-.1.27-.16.41,1.56.13,3.44.46,4.62.09,1.62-.51,2.13-1.52,4.46-1.42,2.33.1,4.26,1.52,4.56,2.23.3.71-1.83.91-4.36.41-2.53-.51-4.36.41-8.01,1.22-2.81.62-3.05.67-3.88.22-1.06.81-2.14,1.52-2.71,2.13,0,0-.71.1-.91,1.62-.12.86-.49,7.1-.8,12.34,0,.01,0,.03,0,.04.56-2.4,1.32-5.64,1.5-6.32.3-1.12.2-4.66,2.53-6.39,2.33-1.72,1.72-2.33,3.95-2.33s4.16-.41,5.98-1.11c1.12-.43,4.36-.07,4.56,1.01.13.69-2.2,1.89-3.14,2.64-2.43,1.93-5.27,2.43-7.71,1.82-2.43-.61-3.35-1.32-4.17.3-.7,1.39-2.88,10.25-3.44,12.99h0c1.11-3.79,3.13-8.53,3.13-8.53.61-.81,1.12-1.72,3.25-2.13,2.13-.41,3.25-1.32,5.68.61,2.43,1.93,5.07,3.85,6.19,3.95,1.12.1-1.01,1.52-2.43,1.42-1.42-.1-5.27-1.32-7.1-2.43-1.82-1.12-3.75-2.84-5.27-.51-.94,1.44-1.83,4.1-2.46,6.98.7-1.63,1.56-3.27,2.46-4.04,2.13-1.82,2.67.04,3.65,1.01.91.91,3.55,1.62,2.84,1.83-.71.2-3.85.81-5.17.1s-1.82-2.13-2.54-.81c-.44.81-1.25,3.61-1.82,5.47-.09.7-.16,1.75-.21,2.31h-2.13l.18-2.6c-1.18-2.48-4.09-7.56-4.64-8.2-.61-.71-2.33-.47-3.04-.87-.71-.41-.71-.43-.71-.43,0,0-3.14,1.2-4.36,1,.91-.3,2.74-.72,3.85-1.43,1.12-.71.91-.82,2.13-.51,1.22.3,2.43.5,2.74,1.92.26,1.2,3.17,5.05,4.09,7.69.03-.31.06-.74.08-1.28-1.25-2.39-3.46-7.02-3.46-7.02,0,0-1.52-2.54-2.54-3.45-1.01-.91-3.35-.2-4.66.1-1.32.3-2.57.59-4.56-.41-4.06-2.03-1.42-2.53.71-1.93,2.13.61,5.07-.3,6.89-.1,1.82.2,2.53,2.13,3.04,3.24.4.88,3.21,5.88,4.62,8.29,0-.09,0-.18,0-.27-2.3-6.45-3.19-11.76-4.52-13.28-1.42-1.62-1.52-.1-4.06.41-2.54.51-3.32-.62-6.08-1.12-5.07-.91-2.43-1.93-1.93-2.33.51-.41.3-.51,2.23-1.01,1.93-.51,5.27,1.32,5.68,1.62.41.3,1.22.41,3.04.51,1.82.1,2.64,4.16,3.24,6.08.41,1.31,1.67,4.87,2.43,7.01.01-.8.02-1.66.02-2.58-.73-3.57-1.91-9.05-2.25-9.6-.51-.81-1.72-1.01-1.72-1.01-1.12-1.12-2.94-2.33-4.06-4.36-1.12-2.03-4.16-3.95-5.58-5.07-1.42-1.12-1.12-2.13,1.83-.91,2.94,1.22,4.36,1.93,6.39,2.74,2.03.81,3.45,3.85,3.55,6.08.06,1.25.97,4.8,1.78,8.29-.55-7.29-1.64-15.58-3.81-20.31-.82-1.78-5.07-1.75-6.29-2.97Z"/>
      </g>
      <g>
        <path class="cls-57" d="m92.13,69.53c0,1.04,3,1.88,6.69,1.88s6.69-.84,6.69-1.88-3-1.88-6.69-1.88-6.69.84-6.69,1.88Z"/>
        <path class="cls-51" d="m87.87,32.39c-1.22-1.22-1.83-1.64-4.26-2.95-2.43-1.32-4.87-4.26-5.17-6.09-.3-1.83.2-1.63,3.95-.31,3.75,1.32,5.78.61,8.42,2.33,2.64,1.72,3.65,2.74,4.06,4.26.41,1.52,0,4.21.71,6.03.33.84,1.44,7.02,2.41,13.99-.11-9.37-.41-19.17-.78-20.53-.71-2.53-4.56-4.56-6.29-6.59-1.72-2.03-1.62-2.53-2.94-4.77-1.32-2.23-1.72-7.91-1.62-9.53.1-1.62.61-3.14,1.32-1.92.71,1.22,7,6.19,9.33,8.62,2.33,2.43,3.75,4.37,3.95,7.51.2,3.14-1.19,3.74-2.23,6.81-.61,1.8-.41,9.23-.2,11.76.03.33.07,1.07.12,2.1.75-8.52.45-9.78.69-11.25.51-3.04,1.52-4.56,3.95-6.49,2.43-1.93,5.68-2.43,8.21-4.36,2.53-1.93,2.94-.1,2.03,1.83-.91,1.93-1.93,6.49-6.08,8.72-3.76,2.02-7.11.97-8.61,15.9.1,2.37.22,5.15.33,7.93.23-3.16.37-5.72.27-6.24-.3-1.52-.1-5.73.81-7.55.91-1.83,1.28-4.42,3.45-5.78,2.74-1.72,7.1-5.67,8.92-6.99,1.83-1.32,4.46-2.94,3.14,1.83-1.32,4.77-8.42,10.45-9.12,12.68-.04.14-.1.27-.16.41,1.56.13,3.44.46,4.62.09,1.62-.51,2.13-1.52,4.46-1.42,2.33.1,4.26,1.52,4.56,2.23.3.71-1.83.91-4.36.41-2.53-.51-4.36.41-8.01,1.22-2.81.62-3.05.67-3.88.22-1.06.81-2.14,1.52-2.71,2.13,0,0-.71.1-.91,1.62-.12.86-.49,7.1-.8,12.34,0,.01,0,.03,0,.04.56-2.4,1.32-5.64,1.5-6.32.3-1.12.2-4.66,2.53-6.39,2.33-1.72,1.72-2.33,3.95-2.33s4.16-.41,5.98-1.11c1.12-.43,4.36-.07,4.56,1.01.13.69-2.2,1.89-3.14,2.64-2.43,1.93-5.27,2.43-7.71,1.82-2.43-.61-3.35-1.32-4.17.3-.7,1.39-2.88,10.25-3.44,12.99h0c1.11-3.79,3.13-8.53,3.13-8.53.61-.81,1.12-1.72,3.25-2.13,2.13-.41,3.25-1.32,5.68.61,2.43,1.93,5.07,3.85,6.19,3.95,1.12.1-1.01,1.52-2.43,1.42-1.42-.1-5.27-1.32-7.1-2.43-1.82-1.12-3.75-2.84-5.27-.51-.94,1.44-1.83,4.1-2.46,6.98.7-1.63,1.56-3.27,2.46-4.04,2.13-1.82,2.67.04,3.65,1.01.91.91,3.55,1.62,2.84,1.83-.71.2-3.85.81-5.17.1s-1.82-2.13-2.54-.81c-.44.81-1.25,3.61-1.82,5.47-.09.7-.16,1.75-.21,2.31h-2.13l.18-2.6c-1.18-2.48-4.09-7.56-4.64-8.2-.61-.71-2.33-.47-3.04-.87-.71-.41-.71-.43-.71-.43,0,0-3.14,1.2-4.36,1,.91-.3,2.74-.72,3.85-1.43,1.12-.71.91-.82,2.13-.51,1.22.3,2.43.5,2.74,1.92.26,1.2,3.17,5.05,4.09,7.69.03-.31.06-.74.08-1.28-1.25-2.39-3.46-7.02-3.46-7.02,0,0-1.52-2.54-2.54-3.45-1.01-.91-3.35-.2-4.66.1-1.32.3-2.57.59-4.56-.41-4.06-2.03-1.42-2.53.71-1.93,2.13.61,5.07-.3,6.89-.1,1.82.2,2.53,2.13,3.04,3.24.4.88,3.21,5.88,4.62,8.29,0-.09,0-.18,0-.27-2.3-6.45-3.19-11.76-4.52-13.28-1.42-1.62-1.52-.1-4.06.41-2.54.51-3.32-.62-6.08-1.12-5.07-.91-2.43-1.93-1.93-2.33.51-.41.3-.51,2.23-1.01,1.93-.51,5.27,1.32,5.68,1.62.41.3,1.22.41,3.04.51,1.82.1,2.64,4.16,3.24,6.08.41,1.31,1.67,4.87,2.43,7.01.01-.8.02-1.66.02-2.58-.73-3.57-1.91-9.05-2.25-9.6-.51-.81-1.72-1.01-1.72-1.01-1.12-1.12-2.94-2.33-4.06-4.36-1.12-2.03-4.16-3.95-5.58-5.07-1.42-1.12-1.12-2.13,1.83-.91,2.94,1.22,4.36,1.93,6.39,2.74,2.03.81,3.45,3.85,3.55,6.08.06,1.25.97,4.8,1.78,8.29-.55-7.29-1.64-15.58-3.81-20.31-.82-1.78-5.07-1.75-6.29-2.97Z"/>
      </g>
      <g>
        <ellipse class="cls-57" cx="560.18" cy="74.28" rx="5.69" ry="1.59"/>
        <g>
          <g>
            <path class="cls-72" d="m542.1,39.09c-.55.3-2.39-1.44-5.58-.68-3.95.94-4.87,4.77-5.55,7.13h0c2.36.7,6.1,1.97,9-.86,2.34-2.28,1.87-4.78,2.41-5.08l.68-.36-.28-.51-.69.36Z"/>
            <g>
              <g>
                <path class="cls-95" d="m539.97,44.7c2.34-2.28,1.87-4.78,2.42-5.08l.69-.37-.15-.28-3.11,1.71-.44,4.52c.2-.15.41-.32.6-.51Z"/>
                <path class="cls-38" d="m530.96,45.55c1.18.34,2.7.83,4.29.88l.34-3.42-4.62,2.54Z"/>
                <path class="cls-38" d="m537.35,46.21c.69-.19,1.37-.52,2.02-1.01l.44-4.52-2.03,1.12-.43,4.41Z"/>
                <path class="cls-95" d="m535.58,43.01l-.33,3.43c.7.02,1.41-.04,2.11-.23l.43-4.41-2.2,1.21Z"/>
              </g>
              <g>
                <path class="cls-65" d="m536.53,38.43c3.18-.76,5.04.98,5.58.68l.68-.39.14.25-3.11,1.71-4.04-2.04c.24-.09.49-.16.76-.22Z"/>
                <path class="cls-72" d="m530.96,45.55c.34-1.18.75-2.72,1.55-4.09l3.07,1.55-4.62,2.54Z"/>
                <path class="cls-72" d="m533.83,39.81c.53-.48,1.17-.89,1.93-1.17l4.04,2.04-2.03,1.12-3.95-1.99Z"/>
                <path class="cls-65" d="m535.58,43.01l-3.07-1.55c.35-.6.78-1.17,1.32-1.66l3.95,1.99-2.2,1.21Z"/>
              </g>
            </g>
          </g>
          <g>
            <path class="cls-72" d="m544.13,37.97c.18-.42,2.01-.24,3.5-2.09,1.84-2.29.67-4.9.01-6.55h0c-1.66.65-4.36,1.58-4.77,4.5-.33,2.35,1.05,3.56.87,3.98l-.23.51.39.17.23-.51Z"/>
            <g>
              <g>
                <path class="cls-95" d="m542.86,33.81c-.33,2.35,1.05,3.57.87,3.98l-.23.52.21.09,1.02-2.36-1.76-2.78c-.05.18-.09.36-.12.56Z"/>
                <path class="cls-38" d="m547.64,29.31c-.83.33-1.92.72-2.85,1.4l1.33,2.11,1.52-3.51Z"/>
                <path class="cls-38" d="m543.68,31.77c-.31.42-.56.9-.71,1.48l1.75,2.78.67-1.54-1.72-2.72Z"/>
                <path class="cls-95" d="m546.13,32.82l-1.34-2.11c-.41.3-.79.65-1.1,1.07l1.71,2.72.72-1.67Z"/>
              </g>
              <g>
                <path class="cls-65" d="m547.62,35.87c-1.49,1.85-3.32,1.68-3.5,2.09l-.22.52-.19-.08,1.02-2.36,3.22-.63c-.1.16-.21.31-.34.46Z"/>
                <path class="cls-72" d="m547.64,29.31c.33.83.78,1.89.93,3.03l-2.45.48,1.52-3.51Z"/>
                <path class="cls-72" d="m548.55,33.88c-.09.51-.27,1.03-.59,1.53l-3.22.63.67-1.54,3.14-.61Z"/>
                <path class="cls-65" d="m546.13,32.82l2.44-.48c.06.5.07,1.02-.02,1.54l-3.15.61.72-1.67Z"/>
              </g>
            </g>
          </g>
          <g>
            <path class="cls-72" d="m558.87,33.82c0-.36,1.37-.79,1.87-2.59.62-2.23-1.04-3.73-2.04-4.73h0c-.99,1-2.65,2.5-2.04,4.73.5,1.8,1.87,2.23,1.87,2.59v.43s.33,0,.33,0v-.44Z"/>
            <g>
              <g>
                <path class="cls-95" d="m556.65,31.22c.5,1.8,1.87,2.24,1.87,2.59v.44s.2,0,.2,0v-2.01l-2.15-1.46c.02.14.03.29.07.44Z"/>
                <path class="cls-38" d="m558.73,26.48c-.5.5-1.16,1.12-1.62,1.9l1.62,1.11v-3Z"/>
                <path class="cls-38" d="m556.63,29.5c-.09.4-.11.83-.04,1.29l2.14,1.46v-1.32l-2.1-1.42Z"/>
                <path class="cls-95" d="m558.73,29.49l-1.64-1.11c-.2.34-.36.71-.45,1.12l2.09,1.42v-1.43Z"/>
              </g>
              <g>
                <path class="cls-65" d="m560.73,31.22c-.5,1.8-1.87,2.24-1.87,2.59v.44s-.13,0-.13,0v-2.01l2.11-1.46c-.02.14-.07.29-.11.44Z"/>
                <path class="cls-72" d="m558.73,26.48c.5.5,1.16,1.12,1.62,1.9l-1.62,1.11v-3Z"/>
                <path class="cls-72" d="m560.79,29.5c.09.4.13.83.06,1.29l-2.12,1.46v-1.32l2.06-1.42Z"/>
                <path class="cls-65" d="m558.73,29.49l1.6-1.11c.2.34.38.71.47,1.12l-2.07,1.42v-1.43Z"/>
              </g>
            </g>
          </g>
          <g>
            <path class="cls-72" d="m586.5,24.81c.44.09.63,1.91,2.71,2.99,2.57,1.35,4.87-.28,6.37-1.24h0c-.97-1.49-2.39-3.93-5.29-3.77-2.34.13-3.26,1.7-3.7,1.61l-.55-.13-.09.41.54.13Z"/>
            <g>
              <g>
                <path class="cls-95" d="m590.28,22.78c-2.34.13-3.26,1.7-3.69,1.61l-.54-.13-.05.22,2.49.54,2.36-2.24c-.18-.01-.37-.02-.56,0Z"/>
                <path class="cls-38" d="m595.56,26.55c-.47-.75-1.07-1.72-1.9-2.49l-1.79,1.69,3.69.8Z"/>
                <path class="cls-38" d="m592.41,23.19c-.46-.22-.98-.37-1.57-.4l-2.36,2.23,1.62.35,2.3-2.18Z"/>
                <path class="cls-95" d="m591.87,25.75l1.79-1.7c-.37-.34-.78-.64-1.25-.86l-2.3,2.18,1.76.38Z"/>
              </g>
              <g>
                <path class="cls-65" d="m589.2,27.79c-2.08-1.09-2.26-2.9-2.7-2.99l-.55-.11.04-.2,2.49.54,1.23,3c-.17-.06-.34-.15-.51-.24Z"/>
                <path class="cls-72" d="m595.56,26.55c-.74.48-1.68,1.12-2.76,1.48l-.93-2.28,3.69.8Z"/>
                <path class="cls-72" d="m591.3,28.3c-.51.01-1.05-.07-1.59-.28l-1.23-3,1.62.35,1.2,2.93Z"/>
                <path class="cls-65" d="m591.87,25.75l.93,2.28c-.47.16-.97.26-1.49.27l-1.2-2.93,1.76.38Z"/>
              </g>
            </g>
          </g>
          <g>
            <path class="cls-72" d="m550.45,34.41c.4.31-.14,2.07,1.5,4.12,2.03,2.55,5,2.23,6.89,2.12h0c-.36-1.86-.8-4.82-3.77-6.15-2.4-1.08-3.96-.11-4.36-.42l-.5-.4-.25.33.49.4Z"/>
            <g>
              <g>
                <path class="cls-95" d="m555.07,34.49c-2.4-1.08-3.96-.11-4.35-.42l-.49-.39-.14.18,2.27,1.76,3.28-.84c-.18-.1-.36-.21-.56-.29Z"/>
                <path class="cls-38" d="m558.82,40.64c-.16-.94-.37-2.12-.89-3.25l-2.48.63,3.37,2.62Z"/>
                <path class="cls-38" d="m557.03,35.95c-.37-.44-.84-.84-1.41-1.17l-3.27.84,1.48,1.15,3.2-.82Z"/>
                <path class="cls-95" d="m555.44,38.02l2.49-.64c-.23-.5-.52-.98-.9-1.43l-3.2.82,1.61,1.25Z"/>
              </g>
              <g>
                <path class="cls-65" d="m551.94,38.52c-1.64-2.06-1.09-3.81-1.48-4.12l-.5-.38.13-.16,2.27,1.76v3.37c-.14-.15-.27-.31-.41-.48Z"/>
                <path class="cls-72" d="m558.82,40.64c-.95.07-2.14.17-3.37-.06v-2.56s3.37,2.62,3.37,2.62Z"/>
                <path class="cls-72" d="m553.84,40.06c-.52-.25-1.02-.6-1.48-1.07v-3.37s1.48,1.15,1.48,1.15v3.29Z"/>
                <path class="cls-65" d="m555.44,38.02v2.56c-.53-.1-1.08-.26-1.6-.51v-3.29s1.6,1.25,1.6,1.25Z"/>
              </g>
            </g>
          </g>
          <g>
            <path class="cls-72" d="m570.55,14.35c.39-.32,2.11.8,4.54-.25,3.01-1.31,3.18-4.47,3.41-6.47h0c-1.97-.23-5.14-.7-7.05,1.97-1.54,2.15-.81,4.07-1.2,4.39l-.5.39.3.37.5-.39Z"/>
            <g>
              <g>
                <path class="cls-95" d="m571.45,9.58c-1.54,2.15-.81,4.07-1.2,4.39l-.5.39.16.2,2.24-1.81-.29-3.66c-.14.15-.28.31-.41.49Z"/>
                <path class="cls-38" d="m578.51,7.62c-.98-.09-2.27-.28-3.54-.09l.22,2.77,3.32-2.68Z"/>
                <path class="cls-38" d="m573.32,8c-.52.25-1.02.61-1.46,1.09l.29,3.66,1.46-1.18-.29-3.57Z"/>
                <path class="cls-95" d="m575.19,10.3l-.22-2.78c-.56.08-1.11.23-1.64.49l.28,3.57,1.58-1.28Z"/>
              </g>
              <g>
                <path class="cls-65" d="m575.08,14.09c-2.43,1.05-4.15-.07-4.54.25l-.48.4-.15-.18,2.24-1.81,3.51,1.05c-.18.1-.37.2-.57.28Z"/>
                <path class="cls-72" d="m578.51,7.62c-.12.97-.21,2.28-.65,3.48l-2.66-.8,3.32-2.68Z"/>
                <path class="cls-72" d="m577.03,12.6c-.36.46-.8.87-1.37,1.21l-3.51-1.05,1.46-1.18,3.43,1.02Z"/>
                <path class="cls-65" d="m575.19,10.3l2.66.8c-.2.53-.46,1.04-.82,1.51l-3.43-1.03,1.58-1.28Z"/>
              </g>
            </g>
          </g>
          <g>
            <path class="cls-72" d="m585.46,25.9c-.05.5-2.06.94-3.01,3.4-1.19,3.06.94,5.43,2.2,6.97h0c1.55-1.26,4.1-3.16,3.55-6.4-.45-2.61-2.32-3.44-2.27-3.94l.07-.62-.47-.05-.07.63Z"/>
            <g>
              <g>
                <path class="cls-95" d="m588.22,29.89c-.45-2.61-2.32-3.44-2.27-3.94l.07-.63-.26-.03-.29,2.86,2.81,2.37c-.01-.21-.03-.42-.06-.63Z"/>
                <path class="cls-38" d="m584.65,36.29c.75-.63,1.79-1.42,2.55-2.45l-2.13-1.79-.43,4.24Z"/>
                <path class="cls-38" d="m588.02,32.33c.19-.55.29-1.15.25-1.81l-2.81-2.37-.19,1.87,2.74,2.31Z"/>
                <path class="cls-95" d="m585.08,32.05l2.13,1.79c.34-.45.62-.96.81-1.51l-2.74-2.31-.2,2.02Z"/>
              </g>
              <g>
                <path class="cls-65" d="m582.46,29.31c.96-2.47,2.97-2.9,3.02-3.41l.05-.63.23.02-.29,2.86-3.21,1.76c.05-.2.12-.4.2-.61Z"/>
                <path class="cls-72" d="m584.65,36.29c-.61-.77-1.47-1.75-2.01-2.91l2.44-1.33-.43,4.24Z"/>
                <path class="cls-72" d="m582.15,31.74c-.08-.57-.06-1.18.11-1.82l3.22-1.76-.19,1.87-3.14,1.72Z"/>
                <path class="cls-65" d="m585.08,32.05l-2.44,1.33c-.24-.51-.42-1.06-.5-1.64l3.14-1.71-.2,2.02Z"/>
              </g>
            </g>
          </g>
          <g>
            <path class="cls-72" d="m563.37,19c-.48-.16-.45-2.21-2.65-3.7-2.72-1.84-5.5-.29-7.29.59h0c.89,1.79,2.17,4.71,5.44,4.89,2.64.15,3.87-1.5,4.35-1.34l.59.21.15-.45-.59-.21Z"/>
            <g>
              <g>
                <path class="cls-95" d="m558.86,20.8c2.64.15,3.87-1.5,4.35-1.34l.6.21.08-.24-2.72-.92-2.93,2.21c.2.04.41.07.63.08Z"/>
                <path class="cls-38" d="m553.42,15.89c.45.87.98,2.06,1.82,3.04l2.22-1.67-4.04-1.36Z"/>
                <path class="cls-38" d="m556.53,20.07c.49.31,1.06.53,1.71.65l2.93-2.21-1.78-.6-2.86,2.16Z"/>
                <path class="cls-95" d="m557.46,17.26l-2.23,1.68c.37.43.79.82,1.29,1.13l2.86-2.15-1.93-.65Z"/>
              </g>
              <g>
                <path class="cls-65" d="m560.72,15.31c2.19,1.49,2.17,3.54,2.65,3.7l.6.19-.07.22-2.72-.92-1-3.52c.18.09.36.21.55.33Z"/>
                <path class="cls-72" d="m553.42,15.89c.89-.42,2.03-1.05,3.29-1.31l.75,2.68-4.04-1.36Z"/>
                <path class="cls-72" d="m558.42,14.47c.58.05,1.17.21,1.75.51l1,3.53-1.78-.6-.97-3.44Z"/>
                <path class="cls-65" d="m557.46,17.26l-.76-2.67c.55-.12,1.13-.17,1.71-.12l.97,3.44-1.93-.65Z"/>
              </g>
            </g>
          </g>
          <g>
            <path class="cls-72" d="m575.97,22.54c.27-.3,1.75.37,3.53-.75,2.2-1.39,1.96-3.9,1.89-5.49h0c-1.58.07-4.11.08-5.28,2.4-.95,1.87-.14,3.29-.41,3.58l-.34.36.28.25.34-.36Z"/>
            <g>
              <g>
                <path class="cls-95" d="m576.09,18.69c-.95,1.87-.14,3.29-.41,3.58l-.34.37.15.14,1.53-1.69-.68-2.83c-.09.14-.18.28-.26.43Z"/>
                <path class="cls-38" d="m581.38,16.3c-.78.05-1.81.06-2.78.36l.51,2.15,2.28-2.5Z"/>
                <path class="cls-38" d="m577.36,17.23c-.38.26-.72.6-1.01,1.03l.67,2.83,1-1.1-.66-2.77Z"/>
                <path class="cls-95" d="m579.11,18.8l-.51-2.15c-.43.13-.84.32-1.23.58l.66,2.76,1.09-1.19Z"/>
              </g>
              <g>
                <path class="cls-65" d="m579.49,21.78c-1.78,1.12-3.26.45-3.53.75l-.33.38-.14-.12,1.53-1.69,2.88.4c-.13.1-.27.2-.41.29Z"/>
                <path class="cls-72" d="m581.38,16.3c.03.78.11,1.81-.09,2.81l-2.19-.3,2.28-2.5Z"/>
                <path class="cls-72" d="m580.83,20.38c-.22.4-.52.78-.93,1.11l-2.88-.4,1-1.1,2.81.39Z"/>
                <path class="cls-65" d="m579.11,18.8l2.18.3c-.09.44-.23.87-.46,1.28l-2.81-.39,1.09-1.19Z"/>
              </g>
            </g>
          </g>
          <g>
            <path class="cls-72" d="m541.69,37.17c-.32-.31.46-1.93-.73-3.92-1.47-2.47-4.26-2.28-6.01-2.24h0c.04,1.76-.03,4.55,2.51,5.91,2.05,1.1,3.63.25,3.95.55l.39.39.29-.3-.39-.39Z"/>
            <g>
              <g>
                <path class="cls-95" d="m537.44,36.93c2.05,1.1,3.63.25,3.95.55l.39.39.16-.16-1.82-1.74-3.15.67c.15.1.3.21.47.3Z"/>
                <path class="cls-38" d="m534.94,31c.03.86.01,2,.31,3.09l2.39-.5-2.7-2.59Z"/>
                <path class="cls-38" d="m535.86,35.47c.28.43.64.82,1.12,1.15l3.15-.66-1.19-1.14-3.08.65Z"/>
                <path class="cls-95" d="m537.64,33.59l-2.39.51c.13.48.33.94.61,1.38l3.08-.65-1.29-1.23Z"/>
              </g>
              <g>
                <path class="cls-65" d="m540.95,33.26c1.19,2,.41,3.62.73,3.92l.41.38-.14.15-1.82-1.74.52-3.17c.11.14.21.3.31.47Z"/>
                <path class="cls-72" d="m534.94,31c.86,0,2-.07,3.1.18l-.4,2.41-2.7-2.59Z"/>
                <path class="cls-72" d="m539.44,31.73c.44.26.85.6,1.2,1.06l-.52,3.17-1.19-1.14.51-3.1Z"/>
                <path class="cls-65" d="m537.64,33.59l.39-2.41c.48.11.96.28,1.41.54l-.51,3.1-1.29-1.23Z"/>
              </g>
            </g>
          </g>
          <path class="cls-65" d="m558.97,73.67c0-.57,0-15.16-.55-15.89-.55-.73-4.2-9.31-6.39-11.5-2.19-2.19-7.66-7.12-8.76-7.49,0,0,7.12,4.38,9.12,6.75-.55-3.65-2.19-9.67-1.82-11.13.36,2.01,2.37,10.4,3.1,11.5.73,1.09,4.56,9.31,5.47,10.04.91.73,3.1-10.22,3.47-11.5.37-1.28-2.92-5.47-3.65-10.04,1.64,3.83,3.1,6.98,4.38,8.26,0,0,3.1-13,3.28-15.01.18-2.01-2.37-4.2-2.37-8.39.55,1.82,2.55,6.93,3.1,7.3,1.28-2.55,2.74-10.77,2.74-11.86.55,2.37-1.46,10.4-2.19,12.77s-2.92,13.14-2.92,13.14c0,0,8.03-7.12,9.12-8.39,1.09-1.28.73-8.39,1.28-9.12.36,2.74.18,7.48,0,8.39,0,0,6.75-6.02,9.67-7.12-3.65,2.74-6.2,5.66-9.67,8.39-3.47,2.74-10.09,9.83-10.77,11.68-.73,2.01-3.65,13.15-3.47,15.16.35,3.82.55,14.07.55,14.07h-2.74Z"/>
        </g>
      </g>
    </g>
  </g>
</svg>